<?xml version="1.0" encoding="UTF-8"?>
<svg xmlns="http://www.w3.org/2000/svg" xmlns:xlink="http://www.w3.org/1999/xlink" width="200px" height="px" viewBox="0 0 200 200" version="1.1">
<g id="surface1">
<path style=" stroke:none;fill-rule:nonzero;fill:rgb(100%,100%,100%);fill-opacity:1;" d="M 93.289062 197.167969 C 95.058594 198.9375 97.460938 199.933594 99.964844 199.933594 C 102.472656 199.933594 104.875 198.9375 106.644531 197.167969 L 197.167969 106.644531 C 198.9375 104.875 199.933594 102.472656 199.933594 99.964844 C 199.933594 97.460938 198.9375 95.058594 197.167969 93.289062 L 106.644531 2.765625 C 104.875 0.996094 102.472656 0 99.964844 0 C 97.460938 0 95.058594 0.996094 93.289062 2.765625 L 2.765625 93.289062 C 0.996094 95.058594 0 97.460938 0 99.964844 C 0 102.472656 0.996094 104.875 2.765625 106.644531 Z M 93.289062 197.167969 "/>
<path style="fill:none;stroke-width:2;stroke-linecap:butt;stroke-linejoin:miter;stroke:rgb(0%,0%,0%);stroke-opacity:1;stroke-miterlimit:4;" d="M 368.642621 -349.005548 L 978.65541 -349.005548 C 1002.951682 -349.005548 1022.654563 -329.302666 1022.654563 -305.006394 L 1022.654563 305.006394 C 1022.654563 329.302666 1002.951682 349.005548 978.65541 349.005548 L 368.642621 349.005548 C 344.346349 349.005548 324.643468 329.302666 324.643468 305.006394 L 324.643468 -305.006394 C 324.643468 -329.302666 344.346349 -349.005548 368.642621 -349.005548 Z M 368.642621 -349.005548 " transform="matrix(0.148396,0.148396,-0.148396,0.148396,0,0)"/>
<path style="fill:none;stroke-width:10;stroke-linecap:butt;stroke-linejoin:miter;stroke:rgb(0%,0%,0%);stroke-opacity:1;stroke-miterlimit:4;" d="M 368.642621 -335.001629 L 978.65541 -335.001629 C 995.212674 -335.001629 1008.650645 -321.563659 1008.650645 -305.006394 L 1008.650645 305.006394 C 1008.650645 321.563659 995.212674 335.001629 978.65541 335.001629 L 368.642621 335.001629 C 352.085357 335.001629 338.647386 321.563659 338.647386 305.006394 L 338.647386 -305.006394 C 338.647386 -321.563659 352.085357 -335.001629 368.642621 -335.001629 Z M 368.642621 -335.001629 " transform="matrix(0.148396,0.148396,-0.148396,0.148396,0,0)"/>
<path style="fill-rule:nonzero;fill:rgb(100%,80%,0%);fill-opacity:1;stroke-width:10;stroke-linecap:butt;stroke-linejoin:miter;stroke:rgb(0%,0%,0%);stroke-opacity:1;stroke-miterlimit:4;" d="M 499.903033 -218.745416 L 847.394999 -218.745416 C 872.257219 -218.758578 892.407593 -198.608203 892.394432 -173.745983 L 892.394432 173.745983 C 892.407593 198.608203 872.257219 218.758578 847.394999 218.745416 L 499.903033 218.745416 C 475.053974 218.745416 454.903599 198.595041 454.903599 173.745983 L 454.903599 -173.745983 C 454.903599 -198.595041 475.053974 -218.745416 499.903033 -218.745416 Z M 499.903033 -218.745416 " transform="matrix(0.148396,0.148396,-0.148396,0.148396,0,0)"/>
</g>
</svg>
