<?xml version="1.0" encoding="UTF-8"?>
<svg xmlns="http://www.w3.org/2000/svg" xmlns:xlink="http://www.w3.org/1999/xlink" width="200px" height="px" viewBox="0 0 199 176" version="1.1">
<g id="surface3">
<path style=" stroke:none;fill-rule:nonzero;fill:rgb(100%,100%,100%);fill-opacity:1;" d="M 0 165.3125 C 0 171.269531 4.808594 176.101562 10.738281 176.101562 L 188.289062 176.101562 C 194.21875 176.101562 199.027344 171.269531 199.027344 165.3125 C 199.027344 163.417969 198.53125 161.554688 197.589844 159.917969 L 108.8125 5.394531 C 106.894531 2.054688 103.351562 0 99.515625 0 C 95.675781 0 92.132812 2.054688 90.214844 5.394531 L 1.4375 159.917969 C 0.496094 161.554688 0 163.417969 0 165.3125 Z M 0 165.3125 "/>
<path style="fill:none;stroke-width:2;stroke-linecap:butt;stroke-linejoin:miter;stroke:rgb(0%,0%,0%);stroke-opacity:1;stroke-miterlimit:4;" d="M 0.998626 689.428267 C 0.998626 713.717907 20.692839 733.429821 45.003651 733.429821 L 789.110945 733.429821 C 813.421757 733.429821 833.11597 713.717907 833.11597 689.428267 C 833.11597 681.70641 831.085977 674.114879 827.22244 667.419345 L 455.160608 23.002663 C 447.302568 9.383523 432.781564 0.993741 417.065484 0.993741 C 401.333032 0.993741 386.812029 9.383523 378.953989 23.002663 L 6.892156 667.419345 C 3.02862 674.114879 0.998626 681.70641 0.998626 689.428267 Z M 0.998626 689.428267 " transform="matrix(0.238609,0,0,0.239782,0,0)"/>
<path style=" stroke:none;fill-rule:nonzero;fill:rgb(100%,0%,0%);fill-opacity:1;" d="M 2.386719 165.3125 C 2.386719 169.945312 6.125 173.703125 10.738281 173.703125 L 188.289062 173.703125 C 192.902344 173.703125 196.640625 169.945312 196.640625 165.3125 C 196.640625 163.839844 196.253906 162.390625 195.523438 161.113281 L 106.746094 6.59375 C 105.253906 3.996094 102.496094 2.398438 99.515625 2.398438 C 96.53125 2.398438 93.773438 3.996094 92.28125 6.59375 L 3.503906 161.113281 C 2.773438 162.390625 2.386719 163.839844 2.386719 165.3125 Z M 22.34375 157.195312 C 22.34375 156.773438 22.453125 156.359375 22.660156 155.996094 L 97.449219 25.824219 C 97.875 25.082031 98.660156 24.625 99.515625 24.625 C 100.367188 24.625 101.152344 25.082031 101.582031 25.824219 L 176.367188 155.996094 C 176.574219 156.359375 176.6875 156.773438 176.6875 157.195312 C 176.6875 158.519531 175.617188 159.59375 174.300781 159.59375 L 24.726562 159.59375 C 23.410156 159.59375 22.34375 158.519531 22.34375 157.195312 Z M 22.34375 157.195312 "/>
<path style=" stroke:none;fill-rule:nonzero;fill:rgb(0%,0%,0%);fill-opacity:1;" d="M 99.515625 98.507812 L 95.132812 104.558594 L 87.464844 104.558594 L 83.085938 98.507812 L 78.703125 104.558594 L 71.039062 104.558594 L 66.65625 98.507812 L 62.273438 104.558594 L 58.441406 104.558594 L 58.441406 110.0625 L 62.273438 110.0625 L 62.273438 136.480469 L 58.441406 136.480469 L 58.441406 143.082031 L 62.273438 143.082031 L 62.273438 148.585938 L 71.039062 148.585938 L 71.039062 143.082031 L 78.703125 143.082031 L 78.703125 148.585938 L 87.464844 148.585938 L 87.464844 143.082031 L 95.132812 143.082031 L 95.132812 148.585938 L 103.894531 148.585938 L 103.894531 143.082031 L 111.5625 143.082031 L 111.5625 148.585938 L 120.324219 148.585938 L 120.324219 143.082031 L 127.992188 143.082031 L 127.992188 148.585938 L 136.753906 148.585938 L 136.753906 143.082031 L 140.585938 143.082031 L 140.585938 136.480469 L 136.753906 136.480469 L 136.753906 110.0625 L 140.585938 110.0625 L 140.585938 104.558594 L 136.753906 104.558594 L 132.371094 98.507812 L 127.992188 104.558594 L 120.324219 104.558594 L 115.941406 98.507812 L 111.5625 104.558594 L 103.894531 104.558594 Z M 71.039062 110.0625 L 78.703125 110.0625 L 78.703125 136.480469 L 71.039062 136.480469 Z M 120.324219 110.0625 L 127.992188 110.0625 L 127.992188 136.480469 L 120.324219 136.480469 Z M 87.464844 110.0625 L 95.132812 110.0625 L 95.132812 136.480469 L 87.464844 136.480469 Z M 103.894531 110.0625 L 111.5625 110.0625 L 111.5625 136.480469 L 103.894531 136.480469 Z M 103.894531 110.0625 "/>
</g>
</svg>
