<?xml version="1.0" encoding="UTF-8"?>
<svg xmlns="http://www.w3.org/2000/svg" xmlns:xlink="http://www.w3.org/1999/xlink" width="200px" height="px" viewBox="0 0 200 200" version="1.1">
<g id="surface1">
<path style=" stroke:none;fill-rule:nonzero;fill:rgb(100%,100%,100%);fill-opacity:1;" d="M 12.855469 0 L 187.144531 0 C 194.242188 0 200 5.757812 200 12.855469 L 200 187.144531 C 200 194.242188 194.242188 200 187.144531 200 L 12.855469 200 C 5.757812 200 0 194.242188 0 187.144531 L 0 12.855469 C 0 5.757812 5.757812 0 12.855469 0 Z M 12.855469 0 "/>
<path style="fill:none;stroke-width:2;stroke-linecap:butt;stroke-linejoin:miter;stroke:rgb(0%,0%,0%);stroke-opacity:1;stroke-miterlimit:4;" d="M 44.994141 0.998047 L 655.005859 0.998047 C 679.300781 0.998047 699.001953 20.699219 699.001953 44.994141 L 699.001953 655.005859 C 699.001953 679.300781 679.300781 699.001953 655.005859 699.001953 L 44.994141 699.001953 C 20.699219 699.001953 0.998047 679.300781 0.998047 655.005859 L 0.998047 44.994141 C 0.998047 20.699219 20.699219 0.998047 44.994141 0.998047 Z M 44.994141 0.998047 " transform="matrix(0.285714,0,0,0.285714,0,0)"/>
<path style=" stroke:none;fill-rule:nonzero;fill:rgb(5.098039%,41.176471%,88.235294%);fill-opacity:1;" d="M 5.714844 187.144531 C 5.714844 191.085938 8.914062 194.285156 12.855469 194.285156 L 187.144531 194.285156 C 191.085938 194.285156 194.285156 191.085938 194.285156 187.144531 L 194.285156 12.855469 C 194.285156 8.914062 191.085938 5.714844 187.144531 5.714844 L 12.855469 5.714844 C 8.914062 5.714844 5.714844 8.914062 5.714844 12.855469 Z M 14.664062 159.644531 C 14.664062 159.140625 14.796875 158.648438 15.046875 158.214844 L 97.527344 15.355469 C 98.035156 14.472656 98.980469 13.929688 100 13.929688 C 101.019531 13.929688 101.964844 14.472656 102.472656 15.355469 L 184.953125 158.214844 C 185.203125 158.648438 185.335938 159.140625 185.335938 159.644531 C 185.335938 161.222656 184.054688 162.5 182.480469 162.5 L 17.519531 162.5 C 15.945312 162.5 14.664062 161.222656 14.664062 159.644531 Z M 14.664062 159.644531 "/>
<path style=" stroke:none;fill-rule:nonzero;fill:rgb(0%,0%,0%);fill-opacity:1;" d="M 51.171875 139.804688 L 38.964844 158.117188 L 56.054688 158.117188 L 63.378906 139.804688 Z M 51.171875 139.804688 "/>
<path style=" stroke:none;fill-rule:nonzero;fill:rgb(0%,0%,0%);fill-opacity:1;" d="M 94.507812 139.804688 L 92.066406 158.117188 L 107.933594 158.117188 L 105.492188 139.804688 Z M 94.507812 139.804688 "/>
<path style=" stroke:none;fill-rule:nonzero;fill:rgb(0%,0%,0%);fill-opacity:1;" d="M 136.621094 139.804688 L 143.945312 158.117188 L 161.035156 158.117188 L 148.828125 139.804688 Z M 136.621094 139.804688 "/>
<path style=" stroke:none;fill-rule:nonzero;fill:rgb(0%,0%,0%);fill-opacity:1;" d="M 118.570312 147.261719 C 119.175781 149.695312 121.363281 151.402344 123.871094 151.402344 C 126.886719 151.402344 129.332031 148.957031 129.332031 145.9375 C 129.332031 145.492188 129.277344 145.050781 129.167969 144.617188 L 121.171875 112.535156 C 121.070312 112.128906 120.859375 111.761719 120.566406 111.464844 L 106.101562 97.003906 L 106.101562 66.445312 C 106.101562 65.417969 105.554688 64.472656 104.667969 63.957031 L 97.246094 59.671875 C 95.464844 58.648438 93.273438 58.648438 91.496094 59.671875 L 73.1875 70.242188 C 71.410156 71.269531 70.3125 73.167969 70.3125 75.222656 L 70.3125 95.34375 C 70.3125 97.726562 72.242188 99.65625 74.625 99.65625 C 77.007812 99.65625 78.9375 97.726562 78.9375 95.34375 L 78.9375 78.210938 C 78.9375 77.390625 79.375 76.628906 80.085938 76.21875 L 87.851562 71.738281 L 87.851562 95.863281 C 87.851562 96.625 88.152344 97.355469 88.691406 97.894531 L 111.648438 120.851562 C 111.941406 121.144531 112.152344 121.515625 112.253906 121.917969 Z M 118.570312 147.261719 "/>
<path style=" stroke:none;fill-rule:nonzero;fill:rgb(0%,0%,0%);fill-opacity:1;" d="M 89.449219 102.71875 L 97.445312 110.714844 L 75.53125 148.671875 C 74.554688 150.359375 72.753906 151.402344 70.800781 151.402344 C 67.785156 151.402344 65.339844 148.957031 65.339844 145.9375 C 65.339844 144.980469 65.59375 144.039062 66.070312 143.207031 Z M 89.449219 102.71875 "/>
<path style=" stroke:none;fill-rule:nonzero;fill:rgb(0%,0%,0%);fill-opacity:1;" d="M 108.976562 90.804688 L 108.976562 78.609375 L 125.394531 95.027344 C 126.203125 95.835938 126.65625 96.933594 126.65625 98.074219 C 126.65625 100.457031 124.726562 102.386719 122.34375 102.386719 C 121.203125 102.386719 120.105469 101.933594 119.296875 101.125 Z M 108.976562 90.804688 "/>
<path style=" stroke:none;fill-rule:nonzero;fill:rgb(0%,0%,0%);fill-opacity:1;" d="M 112.21875 51.34375 C 112.21875 55.875 109 59.90625 104.9375 59.90625 C 100.46875 59.90625 92.75 55.375 92.75 48.90625 C 92.75 44.28125 96.59375 40.90625 100.875 40.90625 C 107.6875 40.90625 112.21875 46.125 112.21875 51.34375 Z M 112.21875 51.34375 "/>
</g>
</svg>
