<?xml version="1.0" encoding="UTF-8"?>
<svg xmlns="http://www.w3.org/2000/svg" xmlns:xlink="http://www.w3.org/1999/xlink" width="200px" height="px" viewBox="0 0 199 176" version="1.1">
<g id="surface1">
<path style=" stroke:none;fill-rule:nonzero;fill:rgb(100%,100%,100%);fill-opacity:1;" d="M 0 165.3125 C 0 171.269531 4.808594 176.101562 10.738281 176.101562 L 188.289062 176.101562 C 194.21875 176.101562 199.027344 171.269531 199.027344 165.3125 C 199.027344 163.417969 198.53125 161.554688 197.589844 159.917969 L 108.8125 5.394531 C 106.894531 2.054688 103.351562 0 99.515625 0 C 95.675781 0 92.132812 2.054688 90.214844 5.394531 L 1.4375 159.917969 C 0.496094 161.554688 0 163.417969 0 165.3125 Z M 0 165.3125 "/>
<path style="fill:none;stroke-width:2;stroke-linecap:butt;stroke-linejoin:miter;stroke:rgb(0%,0%,0%);stroke-opacity:1;stroke-miterlimit:4;" d="M 0.998626 689.428267 C 0.998626 713.717907 20.692839 733.429821 45.003651 733.429821 L 789.110945 733.429821 C 813.421757 733.429821 833.11597 713.717907 833.11597 689.428267 C 833.11597 681.70641 831.085977 674.114879 827.22244 667.419345 L 455.160608 23.002663 C 447.302568 9.383523 432.781564 0.993741 417.065484 0.993741 C 401.333032 0.993741 386.812029 9.383523 378.953989 23.002663 L 6.892156 667.419345 C 3.02862 674.114879 0.998626 681.70641 0.998626 689.428267 Z M 0.998626 689.428267 " transform="matrix(0.238609,0,0,0.239782,0,0)"/>
<path style=" stroke:none;fill-rule:nonzero;fill:rgb(100%,0%,0%);fill-opacity:1;" d="M 2.386719 165.3125 C 2.386719 169.945312 6.125 173.703125 10.738281 173.703125 L 188.289062 173.703125 C 192.902344 173.703125 196.640625 169.945312 196.640625 165.3125 C 196.640625 163.839844 196.253906 162.390625 195.523438 161.113281 L 106.746094 6.59375 C 105.253906 3.996094 102.496094 2.398438 99.515625 2.398438 C 96.53125 2.398438 93.773438 3.996094 92.28125 6.59375 L 3.503906 161.113281 C 2.773438 162.390625 2.386719 163.839844 2.386719 165.3125 Z M 22.34375 157.195312 C 22.34375 156.773438 22.453125 156.359375 22.660156 155.996094 L 97.449219 25.824219 C 97.875 25.082031 98.660156 24.625 99.515625 24.625 C 100.367188 24.625 101.152344 25.082031 101.582031 25.824219 L 176.367188 155.996094 C 176.574219 156.359375 176.6875 156.773438 176.6875 157.195312 C 176.6875 158.519531 175.617188 159.59375 174.300781 159.59375 L 24.726562 159.59375 C 23.410156 159.59375 22.34375 158.519531 22.34375 157.195312 Z M 22.34375 157.195312 "/>
<path style=" stroke:none;fill-rule:nonzero;fill:rgb(0%,0%,0%);fill-opacity:1;" d="M 59.921875 142.394531 C 59.5625 143.023438 59.371094 143.734375 59.371094 144.457031 C 59.371094 146.738281 61.210938 148.585938 63.480469 148.585938 C 64.949219 148.585938 66.304688 147.800781 67.035156 146.523438 L 78.351562 126.832031 L 90.179688 119.6875 C 91.171875 119.089844 91.773438 118.015625 91.773438 116.855469 C 91.773438 116.277344 91.621094 115.707031 91.335938 115.207031 L 83.769531 102.039062 C 83.480469 101.535156 83.328125 100.964844 83.328125 100.386719 C 83.328125 99.808594 83.480469 99.238281 83.769531 98.734375 L 94.382812 80.265625 C 94.695312 79.71875 94.859375 79.101562 94.859375 78.476562 C 94.859375 76.5 93.265625 74.898438 91.300781 74.898438 C 90.027344 74.898438 88.851562 75.578125 88.21875 76.6875 L 72.703125 103.6875 C 72.414062 104.191406 72.261719 104.761719 72.261719 105.339844 C 72.261719 105.917969 72.414062 106.488281 72.703125 106.992188 L 78.191406 116.542969 L 73.054688 120.15625 C 72.664062 120.429688 72.335938 120.789062 72.097656 121.207031 Z M 59.921875 142.394531 "/>
<path style=" stroke:none;fill-rule:nonzero;fill:rgb(0%,0%,0%);fill-opacity:1;" d="M 83.902344 126.367188 L 90.894531 138.542969 C 91.480469 139.5625 92.566406 140.191406 93.742188 140.191406 L 101.15625 140.191406 L 101.15625 131.9375 L 96.585938 131.9375 L 90.941406 122.117188 Z M 83.902344 126.367188 "/>
<path style=" stroke:none;fill-rule:nonzero;fill:rgb(0%,0%,0%);fill-opacity:1;" d="M 70.585938 107.710938 L 64.679688 111.140625 L 60.566406 103.984375 C 59.929688 102.875 58.753906 102.195312 57.484375 102.195312 C 55.519531 102.195312 53.925781 103.796875 53.925781 105.769531 C 53.925781 106.398438 54.089844 107.015625 54.402344 107.558594 L 60.429688 118.054688 C 61.015625 119.074219 62.101562 119.703125 63.277344 119.703125 C 63.851562 119.703125 64.417969 119.550781 64.917969 119.261719 L 74.148438 113.90625 Z M 70.585938 107.710938 "/>
<path style=" stroke:none;fill-rule:nonzero;fill:rgb(0%,0%,0%);fill-opacity:1;" d="M 63.480469 91.269531 C 63.480469 95.5625 67.039062 98.863281 70.460938 98.863281 C 75.71875 98.863281 77.828125 89.535156 77.828125 87.71875 C 77.828125 84.253906 76.101562 81.445312 72.460938 81.445312 C 68.738281 81.445312 63.480469 86.425781 63.480469 91.269531 Z M 63.480469 91.269531 "/>
<path style=" stroke:none;fill-rule:nonzero;fill:rgb(0%,0%,0%);fill-opacity:1;" d="M 103.347656 144.183594 C 103.347656 146.613281 105.308594 148.585938 107.726562 148.585938 C 110.148438 148.585938 112.109375 146.613281 112.109375 144.183594 L 112.109375 120.894531 L 131.359375 109.726562 C 133.054688 108.742188 134.097656 106.925781 134.097656 104.960938 C 134.097656 103.996094 133.84375 103.046875 133.363281 102.210938 L 123.964844 85.847656 L 133.695312 85.847656 L 129.269531 78.144531 L 116.457031 78.144531 C 115.382812 78.144531 114.378906 78.671875 113.765625 79.554688 L 110.253906 84.589844 C 109.867188 85.144531 109.660156 85.804688 109.660156 86.484375 C 109.660156 87.0625 109.8125 87.632812 110.101562 88.132812 L 120.339844 105.953125 L 104.992188 114.859375 C 103.972656 115.449219 103.347656 116.539062 103.347656 117.71875 Z M 103.347656 144.183594 "/>
<path style=" stroke:none;fill-rule:nonzero;fill:rgb(0%,0%,0%);fill-opacity:1;" d="M 126.03125 115.996094 L 134.726562 131.128906 C 135.214844 131.980469 136.117188 132.507812 137.097656 132.507812 C 137.578125 132.507812 138.050781 132.378906 138.464844 132.136719 L 154.835938 122.652344 L 150.457031 115.023438 L 139.304688 121.496094 L 133.617188 111.59375 Z M 126.03125 115.996094 "/>
<path style=" stroke:none;fill-rule:nonzero;fill:rgb(0%,0%,0%);fill-opacity:1;" d="M 108.132812 89.664062 L 102.191406 100.007812 L 92.96875 94.65625 C 92.34375 94.292969 91.636719 94.105469 90.917969 94.105469 C 88.648438 94.105469 86.808594 95.953125 86.808594 98.230469 C 86.808594 99.707031 87.589844 101.070312 88.863281 101.804688 L 102.351562 109.632812 C 102.769531 109.875 103.242188 110 103.722656 110 C 104.699219 110 105.605469 109.476562 106.09375 108.625 L 112.558594 97.367188 Z M 108.132812 89.664062 "/>
<path style=" stroke:none;fill-rule:nonzero;fill:rgb(0%,0%,0%);fill-opacity:1;" d="M 99.40625 73.136719 C 99.40625 78.804688 104.632812 81.832031 107.234375 81.832031 C 111.234375 81.832031 115.695312 73.414062 115.695312 68.734375 C 115.585938 64.855469 113.367188 62.269531 109.972656 62.269531 C 105.347656 62.269531 99.40625 67.414062 99.40625 73.136719 Z M 99.40625 73.136719 "/>
</g>
</svg>
