<?xml version="1.0" encoding="UTF-8"?>
<svg xmlns="http://www.w3.org/2000/svg" xmlns:xlink="http://www.w3.org/1999/xlink" width="200px" height="px" viewBox="0 0 200 200" version="1.1">
<g id="surface1">
<path style=" stroke:none;fill-rule:nonzero;fill:rgb(100%,100%,100%);fill-opacity:1;" d="M 200 100 C 200 155.226562 155.226562 200 100 200 C 44.773438 200 0 155.226562 0 100 C 0 44.773438 44.773438 0 100 0 C 155.226562 0 200 44.773438 200 100 Z M 200 100 "/>
<path style="fill:none;stroke-width:0.170718;stroke-linecap:butt;stroke-linejoin:miter;stroke:rgb(0%,0%,0%);stroke-opacity:1;stroke-miterlimit:4;" d="M -65.613324 432.259967 C -65.613324 448.532825 -75.511585 461.725723 -87.720655 461.725723 C -99.929724 461.725723 -109.827985 448.532825 -109.827985 432.259967 C -109.827985 415.98711 -99.929724 402.794211 -87.720655 402.794211 C -75.511585 402.794211 -65.613324 415.98711 -65.613324 432.259967 Z M -65.613324 432.259967 " transform="matrix(4.508367,0,0,3.382502,495.476933,-1362.12006)"/>
<path style=" stroke:none;fill-rule:nonzero;fill:rgb(100%,0%,0%);fill-opacity:1;" d="M 100 3.332031 C 46.613281 3.332031 3.332031 46.613281 3.332031 100 C 3.332031 153.386719 46.613281 196.667969 100 196.667969 C 153.386719 196.667969 196.667969 153.386719 196.667969 100 C 196.667969 46.613281 153.386719 3.332031 100 3.332031 Z M 100 19.675781 C 144.359375 19.675781 180.324219 55.640625 180.324219 100 C 180.324219 144.359375 144.359375 180.324219 100 180.324219 C 55.640625 180.324219 19.675781 144.359375 19.675781 100 C 19.675781 55.640625 55.640625 19.675781 100 19.675781 Z M 100 19.675781 "/>
<path style=" stroke:none;fill-rule:nonzero;fill:rgb(100%,0%,0%);fill-opacity:1;" d="M 43.960938 77.125 C 42.578125 77.125 41.101562 78.179688 40.648438 79.488281 L 38.976562 84.339844 L 35.511719 94.382812 C 35.507812 94.390625 35.507812 94.402344 35.503906 94.410156 L 34.695312 96.746094 C 32.71875 96.746094 31.128906 98.335938 31.128906 100.3125 L 31.128906 114.582031 C 31.128906 116.558594 32.71875 118.148438 34.695312 118.148438 L 88.207031 118.148438 C 90.183594 118.148438 91.773438 116.558594 91.773438 114.582031 L 91.773438 100.3125 C 91.773438 98.335938 90.183594 96.746094 88.207031 96.746094 L 87.398438 94.410156 C 87.394531 94.402344 87.394531 94.390625 87.394531 94.382812 L 83.925781 84.339844 L 82.253906 79.488281 C 81.804688 78.179688 80.328125 77.125 78.941406 77.125 Z M 45.046875 80.691406 L 77.855469 80.691406 C 78.546875 80.691406 79.285156 81.222656 79.511719 81.875 L 84.640625 96.746094 L 38.265625 96.746094 L 43.390625 81.875 C 43.617188 81.222656 44.355469 80.691406 45.046875 80.691406 Z M 45.046875 80.691406 "/>
<path style=" stroke:none;fill-rule:nonzero;fill:rgb(100%,0%,0%);fill-opacity:1;" d="M 34.695312 119.933594 L 34.695312 127.066406 C 34.695312 130.023438 37.089844 132.417969 40.046875 132.417969 C 43 132.417969 45.398438 130.023438 45.398438 127.066406 L 45.398438 119.933594 Z M 34.695312 119.933594 "/>
<path style=" stroke:none;fill-rule:nonzero;fill:rgb(100%,0%,0%);fill-opacity:1;" d="M 77.503906 119.933594 L 77.503906 127.066406 C 77.503906 130.023438 79.898438 132.417969 82.855469 132.417969 C 85.808594 132.417969 88.207031 130.023438 88.207031 127.066406 L 88.207031 119.933594 Z M 77.503906 119.933594 "/>
<path style=" stroke:none;fill-rule:nonzero;fill:rgb(0%,0%,0%);fill-opacity:1;" d="M 121.058594 77.125 C 119.671875 77.125 118.195312 78.179688 117.746094 79.488281 L 116.074219 84.339844 L 112.605469 94.382812 C 112.605469 94.390625 112.605469 94.402344 112.601562 94.410156 L 111.792969 96.746094 C 109.816406 96.746094 108.226562 98.335938 108.226562 100.3125 L 108.226562 114.582031 C 108.226562 116.558594 109.816406 118.148438 111.792969 118.148438 L 165.304688 118.148438 C 167.28125 118.148438 168.871094 116.558594 168.871094 114.582031 L 168.871094 100.3125 C 168.871094 98.335938 167.28125 96.746094 165.304688 96.746094 L 164.496094 94.410156 C 164.492188 94.402344 164.492188 94.390625 164.488281 94.382812 L 161.023438 84.339844 L 159.351562 79.488281 C 158.898438 78.179688 157.421875 77.125 156.039062 77.125 Z M 122.144531 80.691406 L 154.953125 80.691406 C 155.644531 80.691406 156.382812 81.222656 156.609375 81.875 L 161.734375 96.746094 L 115.359375 96.746094 L 120.488281 81.875 C 120.714844 81.222656 121.453125 80.691406 122.144531 80.691406 Z M 122.144531 80.691406 "/>
<path style=" stroke:none;fill-rule:nonzero;fill:rgb(0%,0%,0%);fill-opacity:1;" d="M 111.792969 119.933594 L 111.792969 127.066406 C 111.792969 130.023438 114.1875 132.417969 117.144531 132.417969 C 120.097656 132.417969 122.496094 130.023438 122.496094 127.066406 L 122.496094 119.933594 Z M 111.792969 119.933594 "/>
<path style=" stroke:none;fill-rule:nonzero;fill:rgb(0%,0%,0%);fill-opacity:1;" d="M 154.601562 119.933594 L 154.601562 127.066406 C 154.601562 130.023438 156.996094 132.417969 159.953125 132.417969 C 162.90625 132.417969 165.304688 130.023438 165.304688 127.066406 L 165.304688 119.933594 Z M 154.601562 119.933594 "/>
</g>
</svg>
