<?xml version="1.0" encoding="UTF-8"?>
<svg xmlns="http://www.w3.org/2000/svg" xmlns:xlink="http://www.w3.org/1999/xlink" width="200px" height="px" viewBox="0 0 200 200" version="1.1">
<g id="surface1">
<path style=" stroke:none;fill-rule:nonzero;fill:rgb(100%,100%,100%);fill-opacity:1;" d="M 12.855469 0 L 187.144531 0 C 194.242188 0 200 5.757812 200 12.855469 L 200 187.144531 C 200 194.242188 194.242188 200 187.144531 200 L 12.855469 200 C 5.757812 200 0 194.242188 0 187.144531 L 0 12.855469 C 0 5.757812 5.757812 0 12.855469 0 Z M 12.855469 0 "/>
<path style="fill:none;stroke-width:2;stroke-linecap:butt;stroke-linejoin:miter;stroke:rgb(0%,0%,0%);stroke-opacity:1;stroke-miterlimit:4;" d="M 44.994141 353.360227 L 655.005859 353.360227 C 679.300781 353.360227 699.001953 373.061399 699.001953 397.356321 L 699.001953 1007.368039 C 699.001953 1031.662961 679.300781 1051.364133 655.005859 1051.364133 L 44.994141 1051.364133 C 20.699219 1051.364133 0.998047 1031.662961 0.998047 1007.368039 L 0.998047 397.356321 C 0.998047 373.061399 20.699219 353.360227 44.994141 353.360227 Z M 44.994141 353.360227 " transform="matrix(0.285714,0,0,0.285714,0,-100.674909)"/>
<path style=" stroke:none;fill-rule:nonzero;fill:rgb(5.098039%,41.176471%,88.235294%);fill-opacity:1;" d="M 12.855469 5.714844 C 8.898438 5.714844 5.714844 8.898438 5.714844 12.855469 L 5.714844 187.144531 C 5.714844 191.101562 8.898438 194.285156 12.855469 194.285156 L 46.667969 194.285156 L 46.667969 66.667969 L 30 66.667969 L 56.667969 20 L 83.332031 66.667969 L 66.667969 66.667969 L 66.667969 194.285156 L 96.667969 194.285156 L 96.667969 173.332031 L 103.332031 173.332031 L 103.332031 194.285156 L 133.332031 194.285156 L 133.332031 93.332031 C 133.332031 88.910156 131.570312 84.679688 128.445312 81.554688 L 108.652344 61.75 L 96.867188 73.535156 L 82.722656 21.6875 L 134.582031 35.820312 L 122.792969 47.605469 L 142.597656 67.402344 C 149.472656 74.277344 153.332031 83.605469 153.332031 93.332031 L 153.332031 194.285156 L 187.144531 194.285156 C 191.101562 194.285156 194.285156 191.101562 194.285156 187.144531 L 194.285156 12.855469 C 194.285156 8.898438 191.101562 5.714844 187.144531 5.714844 Z M 96.667969 120 L 103.332031 120 L 103.332031 140 L 96.667969 140 Z M 96.667969 146.667969 L 103.332031 146.667969 L 103.332031 166.667969 L 96.667969 166.667969 Z M 96.667969 146.667969 "/>
</g>
</svg>
