<?xml version="1.0" encoding="UTF-8"?>
<svg xmlns="http://www.w3.org/2000/svg" xmlns:xlink="http://www.w3.org/1999/xlink" width="200px" height="px" viewBox="0 0 199 176" version="1.1">
<g id="surface3">
<path style=" stroke:none;fill-rule:nonzero;fill:rgb(100%,100%,100%);fill-opacity:1;" d="M 0 165.3125 C 0 171.269531 4.808594 176.101562 10.738281 176.101562 L 188.289062 176.101562 C 194.21875 176.101562 199.027344 171.269531 199.027344 165.3125 C 199.027344 163.417969 198.53125 161.554688 197.589844 159.917969 L 108.8125 5.394531 C 106.894531 2.054688 103.351562 0 99.515625 0 C 95.675781 0 92.132812 2.054688 90.214844 5.394531 L 1.4375 159.917969 C 0.496094 161.554688 0 163.417969 0 165.3125 Z M 0 165.3125 "/>
<path style="fill:none;stroke-width:2;stroke-linecap:butt;stroke-linejoin:miter;stroke:rgb(0%,0%,0%);stroke-opacity:1;stroke-miterlimit:4;" d="M 0.998626 689.428267 C 0.998626 713.717907 20.692839 733.429821 45.003651 733.429821 L 789.110945 733.429821 C 813.421757 733.429821 833.11597 713.717907 833.11597 689.428267 C 833.11597 681.70641 831.085977 674.114879 827.22244 667.419345 L 455.160608 23.002663 C 447.302568 9.383523 432.781564 0.993741 417.065484 0.993741 C 401.333032 0.993741 386.812029 9.383523 378.953989 23.002663 L 6.892156 667.419345 C 3.02862 674.114879 0.998626 681.70641 0.998626 689.428267 Z M 0.998626 689.428267 " transform="matrix(0.238609,0,0,0.239782,0,0)"/>
<path style=" stroke:none;fill-rule:nonzero;fill:rgb(100%,0%,0%);fill-opacity:1;" d="M 2.386719 165.3125 C 2.386719 169.945312 6.125 173.703125 10.738281 173.703125 L 188.289062 173.703125 C 192.902344 173.703125 196.640625 169.945312 196.640625 165.3125 C 196.640625 163.839844 196.253906 162.390625 195.523438 161.113281 L 106.746094 6.59375 C 105.253906 3.996094 102.496094 2.398438 99.515625 2.398438 C 96.53125 2.398438 93.773438 3.996094 92.28125 6.59375 L 3.503906 161.113281 C 2.773438 162.390625 2.386719 163.839844 2.386719 165.3125 Z M 22.34375 157.195312 C 22.34375 156.773438 22.453125 156.359375 22.660156 155.996094 L 97.449219 25.824219 C 97.875 25.082031 98.660156 24.625 99.515625 24.625 C 100.367188 24.625 101.152344 25.082031 101.582031 25.824219 L 176.367188 155.996094 C 176.574219 156.359375 176.6875 156.773438 176.6875 157.195312 C 176.6875 158.519531 175.617188 159.59375 174.300781 159.59375 L 24.726562 159.59375 C 23.410156 159.59375 22.34375 158.519531 22.34375 157.195312 Z M 22.34375 157.195312 "/>
<path style=" stroke:none;fill-rule:nonzero;fill:rgb(0%,0%,0%);fill-opacity:1;" d="M 50.226562 148.585938 L 63.664062 148.585938 C 64.851562 152.277344 68.273438 154.777344 72.132812 154.777344 C 77.046875 154.777344 81.03125 150.773438 81.03125 145.832031 C 81.03125 145.648438 81.027344 145.46875 81.015625 145.285156 L 85.15625 145.285156 C 85.144531 145.46875 85.136719 145.652344 85.136719 145.832031 C 85.136719 150.773438 89.121094 154.777344 94.039062 154.777344 C 98.953125 154.777344 102.9375 150.773438 102.9375 145.832031 C 102.9375 145.648438 102.929688 145.46875 102.917969 145.285156 L 107.058594 145.285156 C 107.050781 145.46875 107.042969 145.652344 107.042969 145.832031 C 107.042969 150.773438 111.027344 154.777344 115.941406 154.777344 C 120.855469 154.777344 124.839844 150.773438 124.839844 145.832031 C 124.839844 145.648438 124.835938 145.46875 124.824219 145.285156 L 136.753906 145.285156 L 136.753906 133.726562 L 57.621094 133.726562 L 57.621094 137.578125 L 50.226562 137.578125 Z M 64.601562 145.832031 C 64.601562 141.65625 67.972656 138.265625 72.132812 138.265625 C 76.292969 138.265625 79.664062 141.65625 79.664062 145.832031 C 79.664062 150.011719 76.292969 153.402344 72.132812 153.402344 C 67.972656 153.402344 64.601562 150.011719 64.601562 145.832031 Z M 86.507812 145.832031 C 86.507812 141.65625 89.878906 138.265625 94.039062 138.265625 C 98.195312 138.265625 101.566406 141.65625 101.566406 145.832031 C 101.566406 150.011719 98.195312 153.402344 94.039062 153.402344 C 89.878906 153.402344 86.507812 150.011719 86.507812 145.832031 Z M 108.414062 145.832031 C 108.414062 141.65625 111.785156 138.265625 115.941406 138.265625 C 120.101562 138.265625 123.472656 141.65625 123.472656 145.832031 C 123.472656 150.011719 120.101562 153.402344 115.941406 153.402344 C 111.785156 153.402344 108.414062 150.011719 108.414062 145.832031 Z M 108.414062 145.832031 "/>
<path style=" stroke:none;fill-rule:nonzero;fill:rgb(0%,0%,0%);fill-opacity:1;" d="M 74.871094 145.835938 C 74.871094 147.355469 73.644531 148.585938 72.132812 148.585938 C 70.621094 148.585938 69.394531 147.355469 69.394531 145.835938 C 69.394531 144.316406 70.621094 143.082031 72.132812 143.082031 C 73.644531 143.082031 74.871094 144.316406 74.871094 145.835938 Z M 74.871094 145.835938 "/>
<path style=" stroke:none;fill-rule:nonzero;fill:rgb(0%,0%,0%);fill-opacity:1;" d="M 96.777344 145.835938 C 96.777344 147.355469 95.550781 148.585938 94.039062 148.585938 C 92.523438 148.585938 91.300781 147.355469 91.300781 145.835938 C 91.300781 144.316406 92.523438 143.082031 94.039062 143.082031 C 95.550781 143.082031 96.777344 144.316406 96.777344 145.835938 Z M 96.777344 145.835938 "/>
<path style=" stroke:none;fill-rule:nonzero;fill:rgb(0%,0%,0%);fill-opacity:1;" d="M 118.679688 145.835938 C 118.679688 147.355469 117.453125 148.585938 115.941406 148.585938 C 114.429688 148.585938 113.203125 147.355469 113.203125 145.835938 C 113.203125 144.316406 114.429688 143.082031 115.941406 143.082031 C 117.453125 143.082031 118.679688 144.316406 118.679688 145.835938 Z M 118.679688 145.835938 "/>
<path style=" stroke:none;fill-rule:nonzero;fill:rgb(0%,0%,0%);fill-opacity:1;" d="M 111.5625 108.960938 L 72.132812 108.960938 L 72.132812 97.679688 L 63.917969 97.679688 L 63.917969 108.960938 L 60.425781 108.960938 C 57.414062 111.820312 55.703125 115.804688 55.703125 119.96875 C 55.703125 124.132812 57.414062 128.117188 60.425781 130.976562 L 111.5625 130.976562 Z M 111.5625 108.960938 "/>
<path style=" stroke:none;fill-rule:nonzero;fill:rgb(0%,0%,0%);fill-opacity:1;" d="M 114.300781 99.058594 L 114.300781 130.976562 L 136.753906 130.976562 L 136.753906 104.558594 L 139.492188 104.558594 L 139.492188 99.058594 Z M 119.777344 104.011719 L 130.179688 104.011719 L 130.179688 115.566406 L 119.777344 115.566406 Z M 119.777344 104.011719 "/>
<path style=" stroke:none;fill-rule:nonzero;fill:rgb(0%,0%,0%);fill-opacity:1;" d="M 72.132812 95.203125 C 73.820312 90.886719 77.964844 88.050781 82.582031 88.050781 L 88.5625 88.050781 C 94.398438 88.050781 99.207031 83.453125 99.5 77.59375 C 99.503906 77.59375 99.507812 77.59375 99.515625 77.59375 C 105.863281 77.59375 111.015625 72.421875 111.015625 66.039062 C 111.015625 61.171875 107.980469 56.828125 103.429688 55.171875 C 106.238281 53.703125 108.003906 50.785156 108.003906 47.601562 C 108.003906 42.890625 104.203125 39.070312 99.515625 39.070312 C 94.824219 39.070312 91.027344 42.890625 91.027344 47.601562 C 91.027344 50.785156 92.789062 53.703125 95.601562 55.171875 C 91.046875 56.828125 88.011719 61.171875 88.011719 66.039062 C 88.011719 66.042969 88.011719 66.046875 88.011719 66.050781 C 82.183594 66.34375 77.609375 71.179688 77.609375 77.042969 C 69.511719 79.332031 63.917969 86.753906 63.917969 95.203125 Z M 72.132812 95.203125 "/>
</g>
</svg>
