<?xml version="1.0" encoding="UTF-8"?>
<svg xmlns="http://www.w3.org/2000/svg" xmlns:xlink="http://www.w3.org/1999/xlink" width="200px" height="176px" viewBox="0 0 199 176" version="1.1">
<g id="surface1">
<path style=" stroke:none;fill-rule:nonzero;fill:rgb(100%,100%,100%);fill-opacity:1;" d="M 10.738281 0 C 4.808594 0 0 4.832031 0 10.789062 C 0 12.683594 0.496094 14.546875 1.4375 16.183594 L 90.214844 170.707031 C 92.132812 174.042969 95.679688 176.101562 99.515625 176.101562 C 103.351562 176.101562 106.894531 174.042969 108.8125 170.707031 L 197.589844 16.183594 C 198.53125 14.546875 199.027344 12.683594 199.027344 10.789062 C 199.027344 4.832031 194.222656 0 188.292969 0 Z M 10.738281 0 "/>
<path style="fill:none;stroke-width:2;stroke-linecap:butt;stroke-linejoin:miter;stroke:rgb(0%,0%,0%);stroke-opacity:1;stroke-miterlimit:4;" d="M 45.003651 0.993741 C 20.692839 0.993741 0.998626 20.705655 0.998626 44.995295 C 0.998626 52.717152 3.02862 60.308683 6.892156 67.004217 L 378.953989 711.420898 C 386.812029 725.040039 401.333032 733.429821 417.065484 733.41353 C 432.781564 733.429821 447.302568 725.040039 455.176979 711.420898 L 827.22244 67.004217 C 831.085977 60.308683 833.11597 52.717152 833.11597 44.995295 C 833.11597 20.705655 813.421757 0.993741 789.127316 0.993741 Z M 45.003651 0.993741 " transform="matrix(0.238609,0,0,0.239782,0,0)"/>
<path style=" stroke:none;fill-rule:nonzero;fill:rgb(100%,0%,0%);fill-opacity:1;" d="M 10.738281 2.398438 C 6.125 2.398438 2.386719 6.15625 2.386719 10.789062 C 2.386719 12.261719 2.773438 13.710938 3.503906 14.988281 L 92.28125 169.507812 C 93.773438 172.101562 96.53125 173.703125 99.515625 173.703125 C 102.496094 173.703125 105.253906 172.101562 106.746094 169.507812 L 195.523438 14.988281 C 196.257812 13.710938 196.640625 12.261719 196.640625 10.789062 C 196.640625 6.15625 192.902344 2.398438 188.292969 2.398438 Z M 174.300781 16.507812 C 175.617188 16.507812 176.683594 17.582031 176.683594 18.90625 C 176.683594 19.328125 176.574219 19.742188 176.367188 20.105469 L 101.582031 150.277344 C 101.15625 151.019531 100.367188 151.476562 99.515625 151.476562 C 98.660156 151.476562 97.875 151.019531 97.449219 150.277344 L 22.664062 20.105469 C 22.453125 19.742188 22.34375 19.328125 22.34375 18.90625 C 22.34375 17.582031 23.410156 16.507812 24.730469 16.507812 Z M 174.300781 16.507812 "/>
</g>
</svg>
