<?xml version="1.0" encoding="UTF-8"?>
<svg xmlns="http://www.w3.org/2000/svg" xmlns:xlink="http://www.w3.org/1999/xlink" width="200px" height="px" viewBox="0 0 200 200" version="1.1">
<g id="surface1">
<path style=" stroke:none;fill-rule:nonzero;fill:rgb(100%,100%,100%);fill-opacity:1;" d="M 200 100 C 200 155.226562 155.226562 200 100 200 C 44.773438 200 0 155.226562 0 100 C 0 44.773438 44.773438 0 100 0 C 155.226562 0 200 44.773438 200 100 Z M 200 100 "/>
<path style="fill:none;stroke-width:0.170718;stroke-linecap:butt;stroke-linejoin:miter;stroke:rgb(0%,0%,0%);stroke-opacity:1;stroke-miterlimit:4;" d="M -65.613324 432.259967 C -65.613324 448.532825 -75.511585 461.725723 -87.720655 461.725723 C -99.929724 461.725723 -109.827985 448.532825 -109.827985 432.259967 C -109.827985 415.98711 -99.929724 402.794211 -87.720655 402.794211 C -75.511585 402.794211 -65.613324 415.98711 -65.613324 432.259967 Z M -65.613324 432.259967 " transform="matrix(4.508367,0,0,3.382502,495.476933,-1362.12006)"/>
<path style=" stroke:none;fill-rule:nonzero;fill:rgb(100%,0%,0%);fill-opacity:1;" d="M 100 3.332031 C 46.613281 3.332031 3.332031 46.613281 3.332031 100 C 3.332031 153.386719 46.613281 196.667969 100 196.667969 C 153.386719 196.667969 196.667969 153.386719 196.667969 100 C 196.667969 46.613281 153.386719 3.332031 100 3.332031 Z M 100 19.675781 C 144.359375 19.675781 180.324219 55.640625 180.324219 100 C 180.324219 144.359375 144.359375 180.324219 100 180.324219 C 55.640625 180.324219 19.675781 144.359375 19.675781 100 C 19.675781 55.640625 55.640625 19.675781 100 19.675781 Z M 100 19.675781 "/>
</g>
</svg>
