<?xml version="1.0" encoding="UTF-8"?>
<svg xmlns="http://www.w3.org/2000/svg" xmlns:xlink="http://www.w3.org/1999/xlink" width="200px" height="px" viewBox="0 0 200 200" version="1.1">
<g id="surface1">
<path style=" stroke:none;fill-rule:nonzero;fill:rgb(100%,100%,100%);fill-opacity:1;" d="M 200 100 C 200 155.226562 155.226562 200 100 200 C 44.773438 200 0 155.226562 0 100 C 0 44.773438 44.773438 0 100 0 C 155.226562 0 200 44.773438 200 100 Z M 200 100 "/>
<path style="fill:none;stroke-width:0.170718;stroke-linecap:butt;stroke-linejoin:miter;stroke:rgb(0%,0%,0%);stroke-opacity:1;stroke-miterlimit:4;" d="M -65.613324 432.259967 C -65.613324 448.532825 -75.511585 461.725723 -87.720655 461.725723 C -99.929724 461.725723 -109.827985 448.532825 -109.827985 432.259967 C -109.827985 415.98711 -99.929724 402.794211 -87.720655 402.794211 C -75.511585 402.794211 -65.613324 415.98711 -65.613324 432.259967 Z M -65.613324 432.259967 " transform="matrix(4.508367,0,0,3.382502,495.476933,-1362.12006)"/>
<path style=" stroke:none;fill-rule:nonzero;fill:rgb(100%,0%,0%);fill-opacity:1;" d="M 100 3.332031 C 46.613281 3.332031 3.332031 46.613281 3.332031 100 C 3.332031 153.386719 46.613281 196.667969 100 196.667969 C 153.386719 196.667969 196.667969 153.386719 196.667969 100 C 196.667969 46.613281 153.386719 3.332031 100 3.332031 Z M 100 19.675781 C 144.359375 19.675781 180.324219 55.640625 180.324219 100 C 180.324219 144.359375 144.359375 180.324219 100 180.324219 C 55.640625 180.324219 19.675781 144.359375 19.675781 100 C 19.675781 55.640625 55.640625 19.675781 100 19.675781 Z M 100 19.675781 "/>
<path style=" stroke:none;fill-rule:nonzero;fill:rgb(0%,0%,0%);fill-opacity:1;" d="M 74.269531 63.375 C 65.011719 63.757812 58.246094 67.714844 53.976562 75.257812 C 49.707031 82.796875 47.601562 91.636719 47.65625 101.773438 C 47.75 112.917969 50.003906 121.457031 54.421875 127.390625 C 58.839844 133.320312 64.863281 136.316406 72.496094 136.371094 C 78.464844 136.1875 83.601562 133.671875 87.910156 128.832031 C 92.214844 123.988281 94.46875 117.925781 94.671875 110.644531 C 94.542969 105.082031 93.324219 100.777344 91.027344 97.734375 C 88.726562 94.6875 86.128906 92.582031 83.238281 91.410156 C 80.347656 90.238281 77.949219 89.679688 76.042969 89.734375 C 72.898438 89.832031 69.875 90.652344 66.96875 92.207031 C 64.058594 93.757812 61.511719 95.46875 59.316406 97.339844 C 59.226562 97.042969 59.488281 94.972656 60.105469 91.128906 C 60.71875 87.285156 62.222656 83.441406 64.609375 79.597656 C 67 75.753906 70.8125 73.683594 76.042969 73.386719 C 80.164062 73.539062 83.675781 74.152344 86.578125 75.226562 C 89.480469 76.296875 90.996094 76.910156 91.125 77.0625 L 89.351562 66.289062 C 89.164062 66.167969 87.539062 65.683594 84.472656 64.832031 C 81.402344 63.984375 78.003906 63.496094 74.269531 63.375 Z M 74.269531 100 C 76.191406 100 78.113281 100.886719 80.035156 102.660156 C 81.957031 104.4375 82.992188 107.097656 83.140625 110.644531 C 83.121094 113.953125 82.054688 117.09375 79.941406 120.070312 C 77.828125 123.046875 74.796875 124.636719 70.847656 124.839844 C 68.15625 124.640625 65.980469 123.261719 64.320312 120.699219 C 62.660156 118.136719 61.449219 115.574219 60.691406 113.011719 C 59.933594 110.449219 59.558594 109.066406 59.570312 108.871094 C 59.792969 108.5 61.46875 107.023438 64.589844 104.433594 C 67.714844 101.847656 70.941406 100.371094 74.269531 100 Z M 74.269531 100 "/>
<path style=" stroke:none;fill-rule:nonzero;fill:rgb(0%,0%,0%);fill-opacity:1;" d="M 128.472656 63.628906 C 121.265625 63.8125 115.5 67.214844 111.175781 73.832031 C 106.851562 80.445312 104.632812 89.171875 104.523438 100 C 104.632812 110.828125 106.851562 119.554688 111.175781 126.167969 C 115.5 132.785156 121.265625 136.1875 128.472656 136.371094 C 135.683594 136.1875 141.449219 132.785156 145.773438 126.167969 C 150.097656 119.554688 152.316406 110.828125 152.425781 100 C 152.316406 89.667969 150.097656 81.089844 145.773438 74.257812 C 141.449219 67.429688 135.683594 63.886719 128.472656 63.628906 Z M 128.472656 74.65625 C 131.949219 74.601562 134.726562 76.609375 136.808594 80.675781 C 138.886719 84.738281 139.953125 91.183594 140.007812 100 C 139.953125 108.816406 138.886719 115.261719 136.808594 119.324219 C 134.726562 123.390625 131.949219 125.398438 128.472656 125.34375 C 125 125.398438 122.222656 123.390625 120.140625 119.324219 C 118.0625 115.261719 116.996094 108.816406 116.941406 100 C 116.996094 91.183594 118.0625 84.738281 120.140625 80.675781 C 122.222656 76.609375 125 74.601562 128.472656 74.65625 Z M 128.472656 74.65625 "/>
</g>
</svg>
