<?xml version="1.0" encoding="UTF-8"?>
<svg xmlns="http://www.w3.org/2000/svg" xmlns:xlink="http://www.w3.org/1999/xlink" width="200px" height="px" viewBox="0 0 199 176" version="1.1">
<g id="surface1">
<path style=" stroke:none;fill-rule:nonzero;fill:rgb(100%,100%,100%);fill-opacity:1;" d="M 0 165.3125 C 0 171.269531 4.808594 176.101562 10.738281 176.101562 L 188.289062 176.101562 C 194.21875 176.101562 199.027344 171.269531 199.027344 165.3125 C 199.027344 163.417969 198.53125 161.554688 197.589844 159.917969 L 108.8125 5.394531 C 106.894531 2.054688 103.351562 0 99.515625 0 C 95.675781 0 92.132812 2.054688 90.214844 5.394531 L 1.4375 159.917969 C 0.496094 161.554688 0 163.417969 0 165.3125 Z M 0 165.3125 "/>
<path style="fill:none;stroke-width:2;stroke-linecap:butt;stroke-linejoin:miter;stroke:rgb(0%,0%,0%);stroke-opacity:1;stroke-miterlimit:4;" d="M 0.998626 689.428267 C 0.998626 713.717907 20.692839 733.429821 45.003651 733.429821 L 789.110945 733.429821 C 813.421757 733.429821 833.11597 713.717907 833.11597 689.428267 C 833.11597 681.70641 831.085977 674.114879 827.22244 667.419345 L 455.160608 23.002663 C 447.302568 9.383523 432.781564 0.993741 417.065484 0.993741 C 401.333032 0.993741 386.812029 9.383523 378.953989 23.002663 L 6.892156 667.419345 C 3.02862 674.114879 0.998626 681.70641 0.998626 689.428267 Z M 0.998626 689.428267 " transform="matrix(0.238609,0,0,0.239782,0,0)"/>
<path style=" stroke:none;fill-rule:nonzero;fill:rgb(100%,0%,0%);fill-opacity:1;" d="M 2.386719 165.3125 C 2.386719 169.945312 6.125 173.703125 10.738281 173.703125 L 188.289062 173.703125 C 192.902344 173.703125 196.640625 169.945312 196.640625 165.3125 C 196.640625 163.839844 196.253906 162.390625 195.523438 161.113281 L 106.746094 6.59375 C 105.253906 3.996094 102.496094 2.398438 99.515625 2.398438 C 96.53125 2.398438 93.773438 3.996094 92.28125 6.59375 L 3.503906 161.113281 C 2.773438 162.390625 2.386719 163.839844 2.386719 165.3125 Z M 22.34375 157.195312 C 22.34375 156.773438 22.453125 156.359375 22.660156 155.996094 L 97.449219 25.824219 C 97.875 25.082031 98.660156 24.625 99.515625 24.625 C 100.367188 24.625 101.152344 25.082031 101.582031 25.824219 L 176.367188 155.996094 C 176.574219 156.359375 176.6875 156.773438 176.6875 157.195312 C 176.6875 158.519531 175.617188 159.59375 174.300781 159.59375 L 24.726562 159.59375 C 23.410156 159.59375 22.34375 158.519531 22.34375 157.195312 Z M 22.34375 157.195312 "/>
<path style=" stroke:none;fill-rule:nonzero;fill:rgb(0%,0%,0%);fill-opacity:1;" d="M 55.703125 137.578125 L 44.75 154.089844 L 60.085938 154.089844 L 66.65625 137.578125 Z M 55.703125 137.578125 "/>
<path style=" stroke:none;fill-rule:nonzero;fill:rgb(0%,0%,0%);fill-opacity:1;" d="M 94.585938 137.578125 L 92.394531 154.089844 L 106.632812 154.089844 L 104.441406 137.578125 Z M 94.585938 137.578125 "/>
<path style=" stroke:none;fill-rule:nonzero;fill:rgb(0%,0%,0%);fill-opacity:1;" d="M 132.371094 137.578125 L 138.941406 154.089844 L 154.277344 154.089844 L 143.324219 137.578125 Z M 132.371094 137.578125 "/>
<path style=" stroke:none;fill-rule:nonzero;fill:rgb(0%,0%,0%);fill-opacity:1;" d="M 82.851562 144.300781 C 82.308594 146.496094 80.347656 148.035156 78.097656 148.035156 C 75.390625 148.035156 73.195312 145.832031 73.195312 143.109375 C 73.195312 142.710938 73.246094 142.308594 73.34375 141.917969 L 80.519531 112.992188 C 80.609375 112.628906 80.796875 112.292969 81.0625 112.027344 L 94.039062 98.988281 L 94.039062 71.4375 C 94.039062 70.511719 94.527344 69.65625 95.328125 69.191406 L 101.984375 65.328125 C 103.582031 64.402344 105.546875 64.402344 107.144531 65.328125 L 123.570312 74.859375 C 125.167969 75.785156 126.148438 77.496094 126.148438 79.347656 L 126.148438 97.492188 C 126.148438 99.640625 124.417969 101.378906 122.28125 101.378906 C 120.144531 101.378906 118.410156 99.640625 118.410156 97.492188 L 118.410156 82.042969 C 118.410156 81.304688 118.019531 80.617188 117.378906 80.25 L 110.414062 76.207031 L 110.414062 97.957031 C 110.414062 98.644531 110.144531 99.304688 109.660156 99.792969 L 89.066406 120.488281 C 88.800781 120.753906 88.613281 121.085938 88.523438 121.453125 Z M 82.851562 144.300781 "/>
<path style=" stroke:none;fill-rule:nonzero;fill:rgb(0%,0%,0%);fill-opacity:1;" d="M 108.980469 104.140625 L 101.804688 111.351562 L 121.46875 145.574219 C 122.34375 147.097656 123.960938 148.035156 125.710938 148.035156 C 128.417969 148.035156 130.613281 145.832031 130.613281 143.109375 C 130.613281 142.246094 130.386719 141.398438 129.957031 140.648438 Z M 108.980469 104.140625 "/>
<path style=" stroke:none;fill-rule:nonzero;fill:rgb(0%,0%,0%);fill-opacity:1;" d="M 91.457031 93.398438 L 91.457031 82.402344 L 76.730469 97.203125 C 76.003906 97.933594 75.59375 98.921875 75.59375 99.953125 C 75.59375 102.101562 77.328125 103.84375 79.464844 103.84375 C 80.492188 103.84375 81.476562 103.433594 82.199219 102.703125 Z M 91.457031 93.398438 "/>
<path style=" stroke:none;fill-rule:nonzero;fill:rgb(0%,0%,0%);fill-opacity:1;" d="M 102.679688 45.261719 C 105.515625 45.261719 110.234375 46.921875 110.234375 52.261719 C 110.234375 58.378906 100.355469 63.277344 97.261719 63.277344 C 92.902344 63.277344 90.890625 58.222656 90.890625 55.113281 C 90.890625 47.441406 100.28125 45.261719 102.679688 45.261719 Z M 102.679688 45.261719 "/>
</g>
</svg>
