<?xml version="1.0" encoding="UTF-8"?>
<svg xmlns="http://www.w3.org/2000/svg" xmlns:xlink="http://www.w3.org/1999/xlink" width="200px" height="px" viewBox="0 0 200 200" version="1.1">
<g id="surface1">
<path style=" stroke:none;fill-rule:nonzero;fill:rgb(100%,100%,100%);fill-opacity:1;" d="M 12.855469 0 L 187.144531 0 C 194.242188 0 200 5.757812 200 12.855469 L 200 187.144531 C 200 194.242188 194.242188 200 187.144531 200 L 12.855469 200 C 5.757812 200 0 194.242188 0 187.144531 L 0 12.855469 C 0 5.757812 5.757812 0 12.855469 0 Z M 12.855469 0 "/>
<path style="fill:none;stroke-width:2;stroke-linecap:butt;stroke-linejoin:miter;stroke:rgb(0%,0%,0%);stroke-opacity:1;stroke-miterlimit:4;" d="M 44.994141 0.998047 L 655.005859 0.998047 C 679.300781 0.998047 699.001953 20.699219 699.001953 44.994141 L 699.001953 655.005859 C 699.001953 679.300781 679.300781 699.001953 655.005859 699.001953 L 44.994141 699.001953 C 20.699219 699.001953 0.998047 679.300781 0.998047 655.005859 L 0.998047 44.994141 C 0.998047 20.699219 20.699219 0.998047 44.994141 0.998047 Z M 44.994141 0.998047 " transform="matrix(0.285714,0,0,0.285714,0,0)"/>
<path style=" stroke:none;fill-rule:nonzero;fill:rgb(5.098039%,41.176471%,88.235294%);fill-opacity:1;" d="M 5.714844 187.144531 C 5.714844 191.085938 8.914062 194.285156 12.855469 194.285156 L 187.144531 194.285156 C 191.085938 194.285156 194.285156 191.085938 194.285156 187.144531 L 194.285156 12.855469 C 194.285156 8.914062 191.085938 5.714844 187.144531 5.714844 L 12.855469 5.714844 C 8.914062 5.714844 5.714844 8.914062 5.714844 12.855469 Z M 14.664062 159.644531 C 14.664062 159.140625 14.796875 158.648438 15.046875 158.214844 L 97.527344 15.355469 C 98.035156 14.472656 98.980469 13.929688 100 13.929688 C 101.019531 13.929688 101.964844 14.472656 102.472656 15.355469 L 184.953125 158.214844 C 185.203125 158.648438 185.335938 159.140625 185.335938 159.644531 C 185.335938 161.222656 184.054688 162.5 182.480469 162.5 L 17.519531 162.5 C 15.945312 162.5 14.664062 161.222656 14.664062 159.644531 Z M 14.664062 159.644531 "/>
<path style=" stroke:none;fill-rule:nonzero;fill:rgb(0%,0%,0%);fill-opacity:1;" d="M 51.171875 139.804688 L 38.964844 158.117188 L 56.054688 158.117188 L 63.378906 139.804688 Z M 51.171875 139.804688 "/>
<path style=" stroke:none;fill-rule:nonzero;fill:rgb(0%,0%,0%);fill-opacity:1;" d="M 94.507812 139.804688 L 92.066406 158.117188 L 107.933594 158.117188 L 105.492188 139.804688 Z M 94.507812 139.804688 "/>
<path style=" stroke:none;fill-rule:nonzero;fill:rgb(0%,0%,0%);fill-opacity:1;" d="M 136.621094 139.804688 L 143.945312 158.117188 L 161.035156 158.117188 L 148.828125 139.804688 Z M 136.621094 139.804688 "/>
<path style=" stroke:none;fill-rule:nonzero;fill:rgb(0%,0%,0%);fill-opacity:1;" d="M 81.429688 147.261719 C 80.824219 149.695312 78.636719 151.402344 76.128906 151.402344 C 73.113281 151.402344 70.667969 148.957031 70.667969 145.9375 C 70.667969 145.492188 70.722656 145.050781 70.832031 144.617188 L 78.828125 112.535156 C 78.929688 112.128906 79.140625 111.761719 79.433594 111.464844 L 93.898438 97.003906 L 93.898438 66.445312 C 93.898438 65.417969 94.445312 64.472656 95.332031 63.957031 L 102.753906 59.671875 C 104.535156 58.648438 106.726562 58.648438 108.503906 59.671875 L 126.8125 70.242188 C 128.589844 71.269531 129.6875 73.167969 129.6875 75.222656 L 129.6875 95.34375 C 129.6875 97.726562 127.757812 99.65625 125.375 99.65625 C 122.992188 99.65625 121.0625 97.726562 121.0625 95.34375 L 121.0625 78.210938 C 121.0625 77.390625 120.625 76.628906 119.914062 76.21875 L 112.148438 71.738281 L 112.148438 95.863281 C 112.148438 96.625 111.847656 97.355469 111.308594 97.894531 L 88.351562 120.851562 C 88.058594 121.144531 87.847656 121.515625 87.746094 121.917969 Z M 81.429688 147.261719 "/>
<path style=" stroke:none;fill-rule:nonzero;fill:rgb(0%,0%,0%);fill-opacity:1;" d="M 110.550781 102.71875 L 102.554688 110.714844 L 124.46875 148.671875 C 125.445312 150.359375 127.246094 151.402344 129.199219 151.402344 C 132.214844 151.402344 134.660156 148.957031 134.660156 145.9375 C 134.660156 144.980469 134.40625 144.039062 133.929688 143.207031 Z M 110.550781 102.71875 "/>
<path style=" stroke:none;fill-rule:nonzero;fill:rgb(0%,0%,0%);fill-opacity:1;" d="M 91.023438 90.804688 L 91.023438 78.609375 L 74.605469 95.027344 C 73.796875 95.835938 73.34375 96.933594 73.34375 98.074219 C 73.34375 100.457031 75.273438 102.386719 77.65625 102.386719 C 78.796875 102.386719 79.894531 101.933594 80.703125 101.125 Z M 91.023438 90.804688 "/>
<path style=" stroke:none;fill-rule:nonzero;fill:rgb(0%,0%,0%);fill-opacity:1;" d="M 87.78125 51.34375 C 87.78125 55.875 91 59.90625 95.0625 59.90625 C 99.53125 59.90625 107.25 55.375 107.25 48.90625 C 107.25 44.28125 103.40625 40.90625 99.125 40.90625 C 92.3125 40.90625 87.78125 46.125 87.78125 51.34375 Z M 87.78125 51.34375 "/>
</g>
</svg>
