<?xml version="1.0" encoding="UTF-8"?>
<svg xmlns="http://www.w3.org/2000/svg" xmlns:xlink="http://www.w3.org/1999/xlink" width="200px" height="px" viewBox="0 0 199 176" version="1.1">
<g id="surface1">
<path style=" stroke:none;fill-rule:nonzero;fill:rgb(100%,100%,100%);fill-opacity:1;" d="M 0 165.3125 C 0 171.269531 4.808594 176.101562 10.738281 176.101562 L 188.289062 176.101562 C 194.21875 176.101562 199.027344 171.269531 199.027344 165.3125 C 199.027344 163.417969 198.53125 161.554688 197.589844 159.917969 L 108.8125 5.394531 C 106.894531 2.054688 103.351562 0 99.515625 0 C 95.675781 0 92.132812 2.054688 90.214844 5.394531 L 1.4375 159.917969 C 0.496094 161.554688 0 163.417969 0 165.3125 Z M 0 165.3125 "/>
<path style="fill:none;stroke-width:2;stroke-linecap:butt;stroke-linejoin:miter;stroke:rgb(0%,0%,0%);stroke-opacity:1;stroke-miterlimit:4;" d="M 0.998626 689.428267 C 0.998626 713.717907 20.692839 733.429821 45.003651 733.429821 L 789.110945 733.429821 C 813.421757 733.429821 833.11597 713.717907 833.11597 689.428267 C 833.11597 681.70641 831.085977 674.114879 827.22244 667.419345 L 455.160608 23.002663 C 447.302568 9.383523 432.781564 0.993741 417.065484 0.993741 C 401.333032 0.993741 386.812029 9.383523 378.953989 23.002663 L 6.892156 667.419345 C 3.02862 674.114879 0.998626 681.70641 0.998626 689.428267 Z M 0.998626 689.428267 " transform="matrix(0.238609,0,0,0.239782,0,0)"/>
<path style=" stroke:none;fill-rule:nonzero;fill:rgb(100%,0%,0%);fill-opacity:1;" d="M 2.386719 165.3125 C 2.386719 169.945312 6.125 173.703125 10.738281 173.703125 L 188.289062 173.703125 C 192.902344 173.703125 196.640625 169.945312 196.640625 165.3125 C 196.640625 163.839844 196.253906 162.390625 195.523438 161.113281 L 106.746094 6.59375 C 105.253906 3.996094 102.496094 2.398438 99.515625 2.398438 C 96.53125 2.398438 93.773438 3.996094 92.28125 6.59375 L 3.503906 161.113281 C 2.773438 162.390625 2.386719 163.839844 2.386719 165.3125 Z M 22.34375 157.195312 C 22.34375 156.773438 22.453125 156.359375 22.660156 155.996094 L 97.449219 25.824219 C 97.875 25.082031 98.660156 24.625 99.515625 24.625 C 100.367188 24.625 101.152344 25.082031 101.582031 25.824219 L 176.367188 155.996094 C 176.574219 156.359375 176.6875 156.773438 176.6875 157.195312 C 176.6875 158.519531 175.617188 159.59375 174.300781 159.59375 L 24.726562 159.59375 C 23.410156 159.59375 22.34375 158.519531 22.34375 157.195312 Z M 22.34375 157.195312 "/>
<path style=" stroke:none;fill-rule:nonzero;fill:rgb(0%,0%,0%);fill-opacity:1;" d="M 80.347656 156.839844 L 80.347656 119.007812 C 80.347656 117.488281 81.574219 116.253906 83.085938 116.253906 C 83.566406 116.253906 84.039062 116.382812 84.453125 116.625 L 98.144531 124.566406 C 101.058594 126.257812 104.363281 127.148438 107.726562 127.148438 C 118.3125 127.148438 126.894531 118.523438 126.894531 107.886719 L 126.894531 74.292969 L 110.464844 74.292969 L 110.464844 107.886719 C 110.464844 109.40625 109.242188 110.636719 107.730469 110.636719 C 107.25 110.636719 106.777344 110.511719 106.359375 110.269531 L 92.667969 102.324219 C 89.753906 100.636719 86.449219 99.746094 83.085938 99.746094 C 72.5 99.746094 63.917969 108.367188 63.917969 119.007812 L 63.917969 156.839844 Z M 80.347656 156.839844 "/>
</g>
</svg>
