<?xml version="1.0" encoding="UTF-8"?>
<svg xmlns="http://www.w3.org/2000/svg" xmlns:xlink="http://www.w3.org/1999/xlink" width="200px" height="px" viewBox="0 0 200 200" version="1.1">
<g id="surface1">
<path style=" stroke:none;fill-rule:nonzero;fill:rgb(100%,100%,100%);fill-opacity:1;" d="M 200 100 C 200 155.226562 155.226562 200 100 200 C 44.773438 200 0 155.226562 0 100 C 0 44.773438 44.773438 0 100 0 C 155.226562 0 200 44.773438 200 100 Z M 200 100 "/>
<path style="fill:none;stroke-width:0.170718;stroke-linecap:butt;stroke-linejoin:miter;stroke:rgb(0%,0%,0%);stroke-opacity:1;stroke-miterlimit:4;" d="M -65.613324 432.259967 C -65.613324 448.532825 -75.511585 461.725723 -87.720655 461.725723 C -99.929724 461.725723 -109.827985 448.532825 -109.827985 432.259967 C -109.827985 415.98711 -99.929724 402.794211 -87.720655 402.794211 C -75.511585 402.794211 -65.613324 415.98711 -65.613324 432.259967 Z M -65.613324 432.259967 " transform="matrix(4.508367,0,0,3.382502,495.476933,-1362.12006)"/>
<path style=" stroke:none;fill-rule:nonzero;fill:rgb(100%,0%,0%);fill-opacity:1;" d="M 100 6.667969 C 48.453125 6.667969 6.667969 48.453125 6.667969 100 C 6.667969 151.546875 48.453125 193.332031 100 193.332031 C 151.546875 193.332031 193.332031 151.546875 193.332031 100 C 193.332031 48.453125 151.546875 6.667969 100 6.667969 Z M 34.355469 80.644531 L 165.644531 80.644531 C 167.433594 80.644531 168.875 82.089844 168.875 83.875 L 168.875 116.125 C 168.875 117.910156 167.433594 119.355469 165.644531 119.355469 L 34.355469 119.355469 C 32.566406 119.355469 31.125 117.910156 31.125 116.125 L 31.125 83.875 C 31.125 82.089844 32.566406 80.644531 34.355469 80.644531 Z M 34.355469 80.644531 "/>
</g>
</svg>
