<svg width="100%" height="100%" viewBox="0 0 45 50" fill="none" xmlns="http://www.w3.org/2000/svg">
<mask id="path-1-inside-1_15_1184" fill="white">
<path fill-rule="evenodd" clip-rule="evenodd" d="M35 0H0V4.0164C0.165262 4.00552 0.331986 4 0.5 4C4.64214 4 8 7.35786 8 11.5C8 15.6421 4.64214 19 0.5 19C0.331986 19 0.165262 18.9945 0 18.9836V29H0.5H8C8 29.9849 7.80601 30.9602 7.4291 31.8701C7.05219 32.7801 6.49974 33.6069 5.8033 34.3033C5.10686 34.9997 4.28007 35.5522 3.37013 35.9291C3.31121 35.9535 3.25203 35.9771 3.19258 36C3.25203 36.0229 3.31121 36.0465 3.37013 36.0709C4.28007 36.4478 5.10686 37.0003 5.8033 37.6967C6.49974 38.3931 7.05219 39.2199 7.4291 40.1299C7.80601 41.0398 8 42.0151 8 43H0.5H0V50H35V44.5L44.3848 35.1924L35 26V18.9836C38.909 18.7263 42 15.4741 42 11.5C42 7.52588 38.909 4.2737 35 4.0164V0Z"/>
</mask>
<path d="M35 0H37V-2H35V0ZM0 0V-2H-2V0H0ZM0 4.0164H-2V6.15237L0.131357 6.01208L0 4.0164ZM0 18.9836L0.131357 16.9879L-2 16.8476V18.9836H0ZM0 29H-2V31H0V29ZM8 29H10V27H8V29ZM7.4291 31.8701L5.58134 31.1048L5.58134 31.1048L7.4291 31.8701ZM5.8033 34.3033L4.38909 32.8891L4.38909 32.8891L5.8033 34.3033ZM3.37013 35.9291L4.13549 37.7769L4.13549 37.7769L3.37013 35.9291ZM3.19258 36L2.47458 34.1333L-2.37801 35.9998L2.47447 37.8666L3.19258 36ZM3.37013 36.0709L4.13549 34.2231L4.13549 34.2231L3.37013 36.0709ZM5.8033 37.6967L4.38908 39.1109L4.38909 39.1109L5.8033 37.6967ZM8 43V45H10V43H8ZM0 43V41H-2V43H0ZM0 50H-2V52H0V50ZM35 50V52H37V50H35ZM35 44.5L33.5916 43.08L33 43.6667V44.5H35ZM44.3848 35.1924L45.7931 36.6124L47.2339 35.1835L45.7843 33.7636L44.3848 35.1924ZM35 26H33V26.8406L33.6005 27.4288L35 26ZM35 18.9836L34.8686 16.9879L33 17.1109V18.9836H35ZM35 4.0164H33V5.88909L34.8686 6.01208L35 4.0164ZM35 -2H0V2H35V-2ZM-2 0V4.0164H2V0H-2ZM0.131357 6.01208C0.252926 6.00408 0.375841 6 0.5 6V2C0.28813 2 0.0775974 2.00697 -0.131357 2.02072L0.131357 6.01208ZM0.5 6C3.53757 6 6 8.46243 6 11.5H10C10 6.25329 5.74671 2 0.5 2V6ZM6 11.5C6 14.5376 3.53757 17 0.5 17V21C5.74671 21 10 16.7467 10 11.5H6ZM0.5 17C0.375849 17 0.252934 16.9959 0.131357 16.9879L-0.131357 20.9793C0.0775898 20.993 0.288123 21 0.5 21V17ZM-2 18.9836V29H2V18.9836H-2ZM0 31H0.5V27H0V31ZM0.5 31H8V27H0.5V31ZM6 29C6 29.7223 5.85774 30.4375 5.58134 31.1048L9.27685 32.6355C9.75427 31.4829 10 30.2476 10 29H6ZM5.58134 31.1048C5.30494 31.7721 4.89981 32.3784 4.38909 32.8891L7.21751 35.7175C8.09967 34.8354 8.79944 33.7881 9.27686 32.6355L5.58134 31.1048ZM4.38909 32.8891C3.87836 33.3998 3.27205 33.8049 2.60476 34.0813L4.13549 37.7769C5.28808 37.2994 6.33536 36.5997 7.21752 35.7175L4.38909 32.8891ZM2.60476 34.0813C2.56155 34.0992 2.51816 34.1166 2.47458 34.1333L3.91058 37.8667C3.9859 37.8377 4.06087 37.8078 4.13549 37.7769L2.60476 34.0813ZM2.47447 37.8666C2.51819 37.8835 2.56162 37.9008 2.60476 37.9187L4.13549 34.2231C4.0608 34.1922 3.98586 34.1623 3.91069 34.1334L2.47447 37.8666ZM2.60476 37.9187C3.27205 38.1951 3.87837 38.6002 4.38908 39.1109L7.21752 36.2825C6.33536 35.4003 5.28809 34.7006 4.13549 34.2231L2.60476 37.9187ZM4.38909 39.1109C4.89981 39.6216 5.30494 40.228 5.58134 40.8952L9.27686 39.3645C8.79944 38.2119 8.09967 37.1646 7.21751 36.2825L4.38909 39.1109ZM5.58134 40.8952C5.85774 41.5625 6 42.2777 6 43H10C10 41.7524 9.75428 40.5171 9.27686 39.3645L5.58134 40.8952ZM8 41H0.5V45H8V41ZM0.5 41H0V45H0.5V41ZM-2 43V50H2V43H-2ZM0 52H35V48H0V52ZM37 50V44.5H33V50H37ZM36.4084 45.92L45.7931 36.6124L42.9764 33.7724L33.5916 43.08L36.4084 45.92ZM45.7843 33.7636L36.3995 24.5712L33.6005 27.4288L42.9853 36.6212L45.7843 33.7636ZM37 26V18.9836H33V26H37ZM35.1314 20.9793C40.0847 20.6532 44 16.5347 44 11.5H40C40 14.4136 37.7333 16.7994 34.8686 16.9879L35.1314 20.9793ZM44 11.5C44 6.46532 40.0847 2.34675 35.1314 2.02072L34.8686 6.01208C37.7333 6.20064 40 8.58644 40 11.5H44ZM37 4.0164V0H33V4.0164H37Z" fill="black" mask="url(#path-1-inside-1_15_1184)"/>
</svg>
