<?xml version="1.0" encoding="UTF-8"?>
<svg width="100%" height="100%" version="1.1" viewBox="0 0 12.513 13.864" xmlns="http://www.w3.org/2000/svg">
<g transform="translate(-51.633 -135.28)" stroke="#000">
<path d="m61.211 135.59h0.26458v-0.26459h-0.26458zm-9.2604 0v-0.26459h-0.26458v0.26459zm0 1.0627h-0.26458v0.28257l0.28196-0.0186zm0 3.9601 0.01738-0.264-0.28196-0.0186v0.28257zm0 2.6502h-0.26458v0.26459h0.26458zm2.1167 0h0.26458v-0.26458h-0.26458zm-0.15105 0.75938-0.24444-0.10125zm-0.43016 0.64379-0.18709-0.18709h-3e-6zm-0.64378 0.43016 0.10125 0.24445zm-0.04698 0.0188-0.09499-0.24694-0.64196 0.24691 0.64194 0.24696zm0.04698 0.0188 0.10125-0.24445zm0.64378 0.43016-0.18709 0.18708h3e-6zm0.58121 1.4032v0.26458h0.26458v-0.26458zm-2.1167 0v-0.26458h-0.26458v0.26458zm0 1.8521h-0.26458v0.26459h0.26458zm9.2604 0v0.26459h0.26458v-0.26459zm0-1.4552-0.18632-0.18786-0.07826 0.0776v0.11023zm2.4831-2.4626 0.18632 0.18785 0.19058-0.18901-0.19177-0.18786zm-2.4831-2.4322h-0.26458v0.11121l0.07945 0.0778zm0-1.8564-0.01738-0.264-0.2472 0.0163v0.24773zm0-3.9601h-0.26458v0.24774l0.2472 0.0163zm0-1.3273h-9.2604v0.52917h9.2604zm-9.525 0.26459v1.0627h0.52917v-1.0627zm0.28196 1.3267c0.03794-2e-3 0.07626-4e-3 0.11491-4e-3v-0.52916c-0.05025 0-0.10016 2e-3 -0.14967 5e-3zm0.11491-4e-3c0.94981 0 1.7198 0.76998 1.7198 1.7198h0.52917c0-1.2421-1.0069-2.249-2.249-2.249zm1.7198 1.7198c0 0.94982-0.76998 1.7198-1.7198 1.7198v0.52916c1.2421 0 2.249-1.0069 2.249-2.249zm-1.7198 1.7198c-0.03865 0-0.07697-1e-3 -0.11491-4e-3l-0.03476 0.528c0.04951 3e-3 0.09941 5e-3 0.14967 5e-3zm-0.39688 0.26024v2.6502h0.52917v-2.6502zm0.26458 2.9148h0.13229v-0.52917h-0.13229zm0.13229 0h1.9844v-0.52917h-1.9844zm1.7198-0.26459c0 0.22585-0.04448 0.44948-0.13091 0.65813l0.48889 0.20251c0.11302-0.27286 0.17119-0.56531 0.17119-0.86064zm-0.13091 0.65813c-0.08643 0.20868-0.21311 0.39825-0.3728 0.55795l0.37418 0.37418c0.20884-0.20884 0.37449-0.45675 0.48751-0.72962zm-0.37281 0.55795c-0.1597 0.15971-0.34928 0.28639-0.55794 0.3728l0.2025 0.4889c0.27286-0.11303 0.52078-0.27869 0.72962-0.48752zm-0.55794 0.3728c-0.01352 6e-3 -0.02708 0.011-0.04071 0.0163l0.18997 0.49387c0.01783-7e-3 0.03558-0.0139 0.05324-0.0212zm-0.04072 0.51014c0.01365 5e-3 0.02722 0.0107 0.04072 0.0163l0.2025-0.4889c-0.01767-7e-3 -0.03542-0.0144-0.05323-0.0213zm0.04072 0.0163c0.20866 0.0864 0.39824 0.21309 0.55794 0.37279l0.37418-0.37417c-0.20884-0.20884-0.45676-0.37449-0.72962-0.48752zm0.55794 0.37279c0.1597 0.15971 0.28637 0.34928 0.3728 0.55796l0.48889-0.20252c-0.11302-0.27286-0.27868-0.52077-0.48751-0.72961zm0.3728 0.55796c0.08643 0.20865 0.13091 0.43227 0.13091 0.65812h0.52917c0-0.29533-0.05817-0.58777-0.17119-0.86064zm0.39549 0.39354h-1.9844v0.52916h1.9844zm-1.9844 0h-0.13229v0.52916h0.13229zm-0.39688 0.26458v1.8521h0.52917v-1.8521zm0.26458 2.1167h9.2604v-0.52917h-9.2604zm9.525-0.26459v-1.4552h-0.52917v1.4552zm-0.07826-1.2674 2.4831-2.4626-0.37264-0.3757-2.4831 2.4626zm2.4819-2.8395-2.4831-2.4322-0.37026 0.37803 2.483 2.4322zm-2.4036-2.2431v-1.8564h-0.52917v1.8564zm-0.2472-1.5924c1.1724-0.0772 2.0993-1.0522 2.0993-2.244h-0.52917c0 0.91117-0.70877 1.657-1.6049 1.716zm2.0993-2.244c0-1.1918-0.92686-2.1669-2.0993-2.244l-0.03477 0.52802c0.89612 0.059 1.6049 0.80484 1.6049 1.716zm-1.8521-1.98v-1.0627h-0.52917v1.0627z" stroke-width=".10583"/>
<path d="m52.197 147.95v-0.55237h2.2767l-0.11158-0.58636c-0.12353-0.6492-0.47237-1.3906-0.72742-1.546-0.10041-0.0612-0.0065-0.2868 0.23897-0.57447 0.22238-0.26055 0.4053-0.59257 0.40651-0.73781 0.0011-0.14523 0.04562-0.42386 0.09871-0.61916 0.09347-0.34389 0.0606-0.35508-1.0427-0.35508h-1.1392l5.29e-4 -0.98637 5.29e-4 -0.98635 0.71536-0.29004c1.5541-0.63009 1.9542-2.6513 0.74998-3.7888-0.2527-0.23869-0.66335-0.48774-0.91255-0.55345-0.2492-0.0657-0.4818-0.20437-0.51688-0.30814-0.04845-0.1433 0.99783-0.18866 4.3516-0.18866h4.4154v0.55236c0 0.48304 0.04991 0.55236 0.39766 0.55236 0.21871 0 0.6174 0.1953 0.88597 0.434 1.0066 0.89466 0.66798 2.3536-0.63568 2.7387l-0.64796 0.1914v2.2463l2.4016 2.3519-1.2008 1.1908c-1.0636 1.0548-1.2008 1.2581-1.2008 1.7792v0.58833h-8.8041z" fill="#98bf40" stroke-linecap="round" stroke-linejoin="round" stroke-width=".211"/>
</g>
</svg>
