<?xml version="1.0" encoding="UTF-8"?>
<svg width="100%" height="100%" version="1.1" viewBox="0 0 12.187 13.758" xmlns="http://www.w3.org/2000/svg">
<g transform="translate(-85.775 -122.74)">
<g transform="matrix(.26458 0 0 .26458 119.39 116.06)" stroke-width=".62362">
<path d="m-86.317 66.763-5.1766 1.4446" fill="#98bf40"/>
<path d="m-126.04 70.773-0.7042-0.71-0.2958 0.2934v0.4166zm9.3848-9.3076 0.7042 0.71 0.7203-0.7144-0.7248-0.71zm-9.3848 14.808h-1v1h1zm35 0v1h1v-1zm0-6.1476-0.7042-0.7101-0.2958 0.2934v0.4167zm8.6348-8.5638 0.7042 0.71 0.7203-0.7145-0.7248-0.7099zm-8.6348-8.4578h-1v0.4203l0.3003 0.2941zm0-12.331v-1h-1v1zm7 0v1h1v-1zm-0.5709-2.8701-0.9239 0.3827zm-1.6258-2.4332 0.7071-0.70711zm-2.4332-1.6258 0.3827-0.92388zm-2.3701-0.55421h-1v0.93541l0.9333 0.06236zm0-7.0167h1v-1h-1zm-35 0v-1h-1v1zm0 4.0164h-1v0.93635l0.9343 0.06149zm0 14.967-0.0657-0.9978-0.9343 0.0615v0.9363zm0 7.0164h-1v0.4203l0.3003 0.2941zm0.7042 19.21 9.3848-9.3076-1.4084-1.42-9.3848 9.3076zm0.2958 4.79v-5.5h-2v5.5zm34-1h-35v2h35zm-1-5.1476v6.1476h2v-6.1476zm8.9306-9.2738-8.6348 8.5637 1.4084 1.4201 8.6348-8.5638zm-8.6303-7.0334 8.6347 8.4578 1.3995-1.4288-8.6348-8.4578zm-0.3003-13.045v12.331h2v-12.331zm8-1h-7v2h7zm-1.4948-1.4874c0.3267 0.7886 0.4948 1.6338 0.4948 2.4874h2c0-1.1162-0.2199-2.2215-0.647-3.2528zm-1.409-2.1088c0.6036 0.6036 1.0824 1.3201 1.409 2.1088l1.8478-0.7654c-0.4272-1.0313-1.0533-1.9683-1.8426-2.7576zm-2.1088-1.409c0.7887 0.32666 1.5052 0.80542 2.1088 1.409l1.4142-1.4142c-0.7893-0.7893-1.7263-1.4154-2.7576-1.8426zm-2.0541-0.48032c0.7054 0.04713 1.3993 0.20907 2.0541 0.48032l0.7654-1.8478c-0.8564-0.35472-1.7638-0.56648-2.6861-0.62811zm-0.9333-8.0145v7.0167h2v-7.0167zm-34 1h35v-2h-35zm1 3.0164v-4.0164h-2v4.0164zm7 7.4836c0-4.5044-3.5031-8.1898-7.9343-8.4814l-0.1314 1.9957c3.3869 0.22293 6.0657 3.0419 6.0657 6.4858zm-7.9343 8.4814c4.4312-0.2916 7.9343-3.977 7.9343-8.4814h-2c0 3.4438-2.6788 6.2628-6.0657 6.4858zm0.9343 6.0186v-7.0164h-2v7.0164zm9.0845 8.478-9.3848-9.1924-1.3994 1.4288 9.3847 9.1924z" stroke-width=".62362"/>
<path d="m-124.88 73.288v-1.9623l9.875-9.8503-9.875-9.664v-5.494l1.4769-0.53852c1.9419-0.70806 3.7733-2.4272 4.6908-4.4035 0.58964-1.27 0.69643-1.8259 0.69643-3.625 0-1.7755-0.10936-2.3602-0.66486-3.5551-1.0427-2.2429-3.1122-3.9642-5.7618-4.7925-0.30825-0.09636-0.4375-0.39758-0.4375-1.0196v-0.88285h32.75v3.3483c0 3.6304 0.0059 3.6453 1.4579 3.6572 1.6292 0.01341 3.8422 1.6327 4.8017 3.5134 0.88624 1.7372 0.89642 1.7311-2.8847 1.7311h-3.375v13.881l8.0002 7.9885-8.0002 8.0112v5.6195h-32.75z" fill="#459dd7" stroke="#000" stroke-linecap="round" stroke-linejoin="round" stroke-width=".62362"/>
</g>
</g>
</svg>
