<?xml version="1.0" encoding="UTF-8"?>
<svg width="100%" height="100%" version="1.1" viewBox="0 0 11.642 13.758" xmlns="http://www.w3.org/2000/svg">
<g transform="translate(-139.38 -195.15)">
<g transform="matrix(.26458 0 0 .26458 121.94 177.36)" stroke-width=".8">
<path d="m66.884 68.222v-1h-1v1zm0 7.0167h-1v0.93542l0.9333 0.06236zm35-7.0167h1v-1h-1zm0 7.0167h-1v0.93541l0.933 0.06236zm2.37 0.55421 0.383-0.92388zm2.433 1.6258 0.707-0.70711zm1.626 2.4332-0.924 0.3827zm0.571 2.8701v1h1v-1zm-7 0v-1h-1v1zm0 13.5h-1v1h1zm7 0h1v-1h-1zm0 15v1h1v-1zm-7 0v-1h-1v1zm0 7v1h1v-1zm-35 0h-1v1h1zm0-6.1476-0.7042-0.7101-0.2958 0.2934v0.4167zm8.6348-8.5638 0.7042 0.71 0.7203-0.7145-0.7248-0.7099zm-8.6348-8.4578h-1v0.4203l0.3003 0.2941zm0-12.331v-1h-1v1zm7 0v1h1v-1zm-0.5709-2.8701-0.9239 0.3827zm-1.6258-2.4332 0.7071-0.70711zm-2.4332-1.6258-0.3827 0.92388zm-3.3701-7.5709v7.0167h2v-7.0167zm36-1h-35v2h35zm1 8.0167v-7.0167h-2v7.0167zm1.753-0.36967c-0.857-0.35472-1.764-0.56648-2.686-0.62811l-0.134 1.9956c0.706 0.04713 1.4 0.20907 2.054 0.48032zm2.757 1.8426c-0.789-0.7893-1.726-1.4154-2.757-1.8426l-0.766 1.8478c0.789 0.32666 1.506 0.80542 2.109 1.409zm1.843 2.7576c-0.427-1.0313-1.053-1.9683-1.843-2.7576l-1.414 1.4142c0.604 0.6036 1.083 1.3201 1.409 2.1088zm0.647 3.2528c0-1.1162-0.22-2.2215-0.647-3.2528l-1.848 0.7654c0.327 0.7886 0.495 1.6338 0.495 2.4874zm-8 1h7v-2h-7zm1 12.5v-13.5h-2v13.5zm6-1h-7v2h7zm1 16v-15h-2v15zm-8 1h7v-2h-7zm1 6v-7h-2v7zm-36 1h35v-2h-35zm-1-7.1476v6.1476h2v-6.1476zm8.9306-9.2738-8.6348 8.5637 1.4084 1.4201 8.6348-8.5638zm-8.6303-7.0334 8.6347 8.4578 1.3995-1.4288-8.6348-8.4578zm-0.3003-13.045v12.331h2v-12.331zm8-1h-7v2h7zm-1.4948-1.4874c0.3267 0.7886 0.4948 1.6338 0.4948 2.4874h2c0-1.1162-0.2199-2.2215-0.647-3.2528zm-1.409-2.1088c0.6036 0.6036 1.0824 1.3201 1.409 2.1088l1.8478-0.7654c-0.4272-1.0313-1.0533-1.9683-1.8426-2.7576zm-2.1088-1.409c0.7887 0.32666 1.5052 0.80542 2.1088 1.409l1.4142-1.4142c-0.7893-0.7893-1.7263-1.4154-2.7576-1.8426zm-2.0541-0.48032c0.7054 0.04713 1.3993 0.20907 2.0541 0.48032l0.7654-1.8478c-0.8564-0.35472-1.7638-0.56648-2.6861-0.62811z"/>
<path d="m68.08 114.81v-2.139l9.0792-9.0979-9.0792-9.0979v-10.451h6.8594v-1.4178c0-3.391-2.0223-6.4665-5.1316-7.8041l-1.7278-0.74327v-4.7825h32.582v7.2024h1.0066c1.4124 0 2.7738 0.5746 3.9114 1.6509 0.98611 0.93301 1.9415 2.475 1.9415 3.1336 0 0.22736-1.2637 0.36-3.4297 0.36h-3.4297v15.777h7.2024v12.69h-7.2024v6.8594h-32.582z" fill="#ed6644" stroke="#000" stroke-linecap="round" stroke-linejoin="round"/>
</g>
</g>
</svg>

