<svg width="100%" height="100%" viewBox="0 0 42 50" fill="none" xmlns="http://www.w3.org/2000/svg">
<mask id="path-1-inside-1_15_1124" fill="white">
<path fill-rule="evenodd" clip-rule="evenodd" d="M0 50H35V43H42V28H35V19.9833C36.2703 19.8984 37.5074 19.4908 38.5894 18.787C40.1256 17.7878 41.2428 16.2608 41.73 14.4942L35 12.6379V12.3912L41.8285 10.9051C41.4388 9.11446 40.407 7.52847 38.9279 6.44658C37.774 5.60256 36.4102 5.11089 35 5.01667V0H0V7.01668C0.813831 7.07106 1.61451 7.25791 2.37012 7.5709C3.28007 7.94781 4.10686 8.50026 4.8033 9.1967C5.49974 9.89314 6.05219 10.7199 6.4291 11.6299C6.80601 12.5398 7 13.5151 7 14.5L0 14.5V28H7V43H0V50Z"/>
</mask>
<path d="M0 50H-2V52H0V50ZM35 50V52H37V50H35ZM35 43V41H33V43H35ZM42 43V45H44V43H42ZM42 28H44V26H42V28ZM35 28H33V30H35V28ZM35 19.9833L34.8666 17.9878L33 18.1125V19.9833H35ZM38.5894 18.787L37.4989 17.1105L37.4989 17.1105L38.5894 18.787ZM41.73 14.4942L43.658 15.026L44.1898 13.098L42.2618 12.5662L41.73 14.4942ZM35 12.6379H33V14.1609L34.4682 14.5659L35 12.6379ZM35 12.3912L34.5747 10.4369L33 10.7796V12.3912H35ZM41.8285 10.9051L42.2538 12.8593L44.208 12.434L43.7827 10.4798L41.8285 10.9051ZM38.9279 6.44658L37.7471 8.06082L37.7471 8.06082L38.9279 6.44658ZM35 5.01667H33V6.88749L34.8667 7.01222L35 5.01667ZM35 0H37V-2H35V0ZM0 0V-2H-2V0H0ZM0 7.01668H-2V8.88751L-0.133333 9.01224L0 7.01668ZM2.37012 7.5709L1.60475 9.41866L1.60476 9.41866L2.37012 7.5709ZM4.8033 9.1967L6.21752 7.78249L6.21751 7.78248L4.8033 9.1967ZM6.4291 11.6299L4.58134 12.3952L4.58134 12.3952L6.4291 11.6299ZM7 14.5L7 16.5L9 16.5V14.5H7ZM0 14.5L2.72478e-07 12.5L-2 12.5V14.5H0ZM0 28H-2V30H0V28ZM7 28H9V26H7V28ZM7 43V45H9V43H7ZM0 43V41H-2V43H0ZM0 52H35V48H0V52ZM37 50V43H33V50H37ZM35 45H42V41H35V45ZM44 43V28H40V43H44ZM42 26H35V30H42V26ZM37 28V19.9833H33V28H37ZM35.1334 21.9789C36.7423 21.8714 38.3093 21.3551 39.6799 20.4636L37.4989 17.1105C36.7055 17.6266 35.7983 17.9255 34.8666 17.9878L35.1334 21.9789ZM39.6799 20.4636C41.6257 19.1979 43.0408 17.2636 43.658 15.026L39.802 13.9624C39.4447 15.2579 38.6254 16.3777 37.4989 17.1105L39.6799 20.4636ZM42.2618 12.5662L35.5318 10.7099L34.4682 14.5659L41.1982 16.4222L42.2618 12.5662ZM37 12.6379V12.3912H33V12.6379H37ZM35.4253 14.3454L42.2538 12.8593L41.4031 8.95082L34.5747 10.4369L35.4253 14.3454ZM43.7827 10.4798C43.2891 8.21165 41.9821 6.20273 40.1086 4.83233L37.7471 8.06082C38.8318 8.85421 39.5884 10.0173 39.8742 11.3304L43.7827 10.4798ZM40.1086 4.83233C38.647 3.76321 36.9195 3.14047 35.1333 3.02112L34.8667 7.01222C35.9009 7.08132 36.901 7.44191 37.7471 8.06082L40.1086 4.83233ZM37 5.01667V0H33V5.01667H37ZM35 -2H0V2H35V-2ZM-2 0V7.01668H2V0H-2ZM-0.133333 9.01224C0.463478 9.05211 1.05064 9.18914 1.60475 9.41866L3.13549 5.72315C2.17837 5.32669 1.16418 5.09001 0.133333 5.02113L-0.133333 9.01224ZM1.60476 9.41866C2.27205 9.69506 2.87837 10.1002 3.38909 10.6109L6.21751 7.78248C5.33536 6.90033 4.28809 6.20056 3.13549 5.72314L1.60476 9.41866ZM3.38909 10.6109C3.89981 11.1216 4.30493 11.7279 4.58134 12.3952L8.27685 10.8645C7.79944 9.71192 7.09967 8.66464 6.21752 7.78249L3.38909 10.6109ZM4.58134 12.3952C4.85774 13.0625 5 13.7777 5 14.5H9C9 13.2524 8.75428 12.0171 8.27685 10.8645L4.58134 12.3952ZM7 12.5L2.72478e-07 12.5L-2.72478e-07 16.5L7 16.5L7 12.5ZM-2 14.5V28H2V14.5H-2ZM0 30H7V26H0V30ZM5 28V43H9V28H5ZM7 41H0V45H7V41ZM-2 43V50H2V43H-2Z" fill="black" mask="url(#path-1-inside-1_15_1124)"/>
</svg>
