<?xml version="1.0" encoding="UTF-8"?>
<svg width="100%" height="100%" version="1.1" viewBox="0 0 11.646 13.758" xmlns="http://www.w3.org/2000/svg">
<g transform="translate(-104.92 -140.36)">
<g transform="matrix(.26458 0 0 .26458 63.089 151.27)" stroke-width=".8">
<path d="m166.13-2.4077-6.26-17.576" fill="#f50041"/>
<path d="m159.11 9.7662h-1v1h1zm35 0v1h1v-1zm0-7v-1h-1v1zm7 0v1h1v-1zm0-15h1v-1h-1zm-7 0h-1v1h1zm0-8.0167-0.067-0.9977-0.933 0.0623v0.9354zm3.589-1.1963-0.545-0.8383zm3.141-4.2928 0.964 0.2659 0.266-0.964-0.964-0.2659zm-6.73-1.8563h-1v0.7615l0.734 0.2025zm0-0.2467-0.213-0.9771-0.787 0.1713v0.8058zm6.828-1.4861 0.213 0.9771 0.977-0.2127-0.212-0.9771zm-2.9-4.4585-0.591 0.80712zm-3.928-1.4299h-1v0.93541l0.933 0.06236zm0-5.0167h1v-1h-1zm-35 0v-1h-1v1zm0 7.0167h-1v0.93542l0.933 0.06236zm2.37 0.55422-0.383 0.92388zm2.433 1.6258 0.707-0.70711zm1.626 2.4332-0.924 0.3827zm0.571 2.8701v1h1v-1zm-7 0v-1h-1v1zm0 13.5h-1v1h1zm7 0h1v-1h-1zm0 15v1h1v-1zm-7 0v-1h-1v1zm0 8h35v-2h-35zm36-1v-7h-2v7zm-1-6h7v-2h-7zm8-1v-15h-2v15zm-1-16h-7v2h7zm-6 1v-8.0167h-2v8.0167zm-0.933-7.0189c1.439-0.0962 2.841-0.5582 4.068-1.3558l-1.091-1.6766c-0.938 0.61-2.01 0.9633-3.111 1.0369zm4.068-1.3558c1.741-1.1324 3.007-2.8631 3.559-4.8652l-1.928-0.5318c-0.422 1.531-1.39 2.8545-2.722 3.7204zm2.861-6.0951-6.73-1.8563-0.532 1.928 6.73 1.8563zm-5.996-0.8923v-0.2467h-2v0.2467zm-0.787 0.7304 6.828-1.4861-0.425-1.9543-6.829 1.4862zm7.593-2.6759c-0.442-2.0294-1.611-3.8268-3.288-5.053l-1.181 1.6142c1.282 0.93764 2.177 2.3122 2.514 3.864zm-3.288-5.053c-1.307-0.95657-2.853-1.5138-4.451-1.6206l-0.134 1.9956c1.223 0.08167 2.404 0.50779 3.404 1.2393zm-3.518-0.62278v-5.0167h-2v5.0167zm-1-6.0167h-35v2h35zm-36 1v7.0167h2v-7.0167zm0.933 8.0145c0.706 0.04713 1.4 0.20907 2.054 0.48032l0.766-1.8478c-0.857-0.35472-1.764-0.56648-2.686-0.62811zm2.054 0.48032c0.789 0.32666 1.506 0.80542 2.109 1.409l1.414-1.4142c-0.789-0.7893-1.726-1.4154-2.757-1.8426zm2.109 1.409c0.604 0.6036 1.083 1.3201 1.409 2.1088l1.848-0.7654c-0.427-1.0313-1.053-1.9683-1.843-2.7576zm1.409 2.1088c0.327 0.7886 0.495 1.6338 0.495 2.4874h2c0-1.1162-0.22-2.2215-0.647-3.2528zm1.495 1.4874h-7v2h7zm-8 1v13.5h2v-13.5zm1 14.5h7v-2h-7zm6-1v15h2v-15zm1 14h-7v2h7zm-8 1v7h2v-7z" stroke-width=".8"/>
<path d="m160.12 6.2747v-2.4651h7.1711v-17.255h-7.1711v-11.205h7.1711v-0.77331c0-3.8723-2.5903-7.4819-6.1147-8.521l-0.94433-0.27842-0.0634-2.4968-0.0634-2.4968h32.957v5.1542h0.98886c1.3905 0 3.592 1.1755 4.5474 2.4281 0.40618 0.53253 0.7385 1.0931 0.7385 1.2458 0 0.17538-1.1345 0.51963-3.0813 0.93499l-3.0813 0.6574-0.0671 1.0341-0.0671 1.0341 3.1484 0.86588c1.7316 0.47623 3.1484 0.9295 3.1484 1.0073 0 0.07776-0.42474 0.62392-0.94387 1.2137-1.0572 1.2011-2.6546 2.0498-4.2664 2.2667l-1.0645 0.14328v10.027h6.947v12.774h-6.947v7.1711h-32.942z" fill="#f5ba41" stroke="#000" stroke-linecap="round" stroke-linejoin="round" stroke-width=".8"/>
</g>
</g>
</svg>
