<?xml version="1.0" encoding="UTF-8"?>
<svg width="100%" height="100%" version="1.1" viewBox="0 0 11.697 13.758" xmlns="http://www.w3.org/2000/svg">
<g transform="translate(-45.749 -129.04)">
<g transform="matrix(.26458 0 0 .26458 63.653 138.47)" stroke-width=".8">
<path d="m-66.459 15.329h-1v1h1zm35 0v1h1v-1zm0-7v-1h-1v1zm7 0v1h1v-1zm0-15h1v-1h-1zm-7 0h-1v1h1zm0-8.0164-0.0657-0.9978-0.9343 0.0615v0.9363zm0-14.967h-1v0.93635l0.9343 0.06149zm0-5.0164h1v-1h-1zm-35 0v-1h-1v1zm0 6.0167h-1v1.069l1.0667-0.07126zm2.5674 0.27389-0.27565 0.96125zm3.8474 2.598 0.61486 0.78864 0.78864-0.6149-0.61486-0.78859zm-5.9148 4.6114-0.61486-0.7886-1.0947 0.8534 1.1562 0.7681zm6.2471 4.1502 0.83294 0.5534 0.55339-0.833-0.83297-0.5533zm-3.6396 2.8819-0.34766-0.9376zm-3.1075 0.4512 0.06666-0.9978-1.0667-0.0712v1.069zm0 7.0167h-1v1h1zm7 0h1v-1h-1zm0 15v1h1v-1zm-7 0v-1h-1v1zm0 8h35v-2h-35zm36-1v-7h-2v7zm-1-6h7v-2h-7zm8-1v-15h-2v15zm-1-16h-7v2h7zm-6 1v-8.0164h-2v8.0164zm-0.9343-7.0186c4.4312-0.2916 7.9343-3.977 7.9343-8.4814h-2c0 3.4438-2.6788 6.2628-6.0657 6.4858zm7.9343-8.4814c0-4.5044-3.5031-8.1898-7.9343-8.4814l-0.1314 1.9957c3.3869 0.22293 6.0657 3.042 6.0657 6.4858zm-7-7.4836v-5.0164h-2v5.0164zm-1-6.0164h-35v2h35zm-36 1v6.0167h2v-6.0167zm1.0667 7.0145c0.74532-0.04979 1.4982 0.02893 2.2251 0.23736l0.5513-1.9225c-0.9505-0.27257-1.9351-0.37551-2.9097-0.3104zm2.2251 0.23736c1.3216 0.379 2.489 1.1673 3.3344 2.2516l1.5773-1.2297c-1.1055-1.4179-2.6321-2.4488-4.3604-2.9444zm3.5082 0.84811-5.9148 4.6115 1.2297 1.5772 5.9148-4.6114zm-5.8533 6.233 6.2471 4.1502 1.1067-1.6658-6.2471-4.1502zm5.9675 2.7639c-0.76081 1.1452-1.8652 2.0197-3.1543 2.4977l0.69533 1.8753c1.6858-0.6251 3.1299-1.7687 4.1248-3.2662zm-3.1543 2.4977c-0.86481 0.3207-1.7829 0.4519-2.6932 0.391l-0.13332 1.9956c1.1903 0.0795 2.3909-0.092 3.5218-0.5113zm-3.7598 1.3888v7.0167h2v-7.0167zm1 8.0167h7v-2h-7zm6-1v15h2v-15zm1 14h-7v2h7zm-8 1v7h2v-7z"/>
<path d="m-65.396 11.71v-2.342h7.2062v-17.295h-7.2062v-2.342c0-2.1862 0.05393-2.3425 0.81069-2.3499 1.4043-0.01371 3.6427-1.2648 5.0443-2.8193 0.74314-0.82422 1.3512-1.631 1.3512-1.7929 0-0.16186-1.216-1.0771-2.7023-2.0338s-2.7023-1.8574-2.7023-2.0014 1.135-1.1248 2.5222-2.1794c1.3872-1.0546 2.5222-2.0729 2.5222-2.2629 0-0.8382-2.9823-3.111-4.8579-3.7022l-1.988-0.62665v-3.4715h32.788v2.5222c0 2.4321 0.03132 2.5222 0.87732 2.5222 1.9948 0 4.3784 1.6043 5.4603 3.6753 0.65311 1.2502 0.65311 4.0101 0 5.2603-1.0819 2.0709-3.4654 3.6753-5.4603 3.6753h-0.87732v10.449h6.8459v12.611h-6.8459v6.8459h-32.788z" fill="#ed6644" stroke="#000" stroke-linecap="round" stroke-linejoin="round"/>
</g>
</g>
</svg>