<svg width="100%" height="100%" viewBox="0 0 42 50" fill="none" xmlns="http://www.w3.org/2000/svg">
<mask id="path-1-inside-1_15_1099" fill="white">
<path fill-rule="evenodd" clip-rule="evenodd" d="M0 50H35V43H42V28H35V19.9836C38.909 19.7263 42 16.4741 42 12.5C42 8.52588 38.909 5.2737 35 5.0164V0H0V6.01668C0.859959 5.95923 1.7287 6.05007 2.56738 6.29057C4.09234 6.72786 5.43936 7.63745 6.41478 8.88856L0.5 13.5L6.74707 17.6502C5.86921 18.9716 4.59495 19.9806 3.10749 20.5321C2.10963 20.9021 1.0503 21.0535 0 20.9833V28H7V43H0V50Z"/>
</mask>
<path d="M0 50H-2V52H0V50ZM35 50V52H37V50H35ZM35 43V41H33V43H35ZM42 43V45H44V43H42ZM42 28H44V26H42V28ZM35 28H33V30H35V28ZM35 19.9836L34.8686 17.9879L33 18.1109V19.9836H35ZM35 5.0164H33V6.88909L34.8686 7.01208L35 5.0164ZM35 0H37V-2H35V0ZM0 0V-2H-2V0H0ZM0 6.01668H-2V8.15476L0.133323 8.01224L0 6.01668ZM2.56738 6.29057L2.01608 8.21308L2.01608 8.21308L2.56738 6.29057ZM6.41478 8.88856L7.6445 10.4658L9.22177 9.23612L7.99206 7.65885L6.41478 8.88856ZM0.5 13.5L-0.729716 11.9227L-2.9191 13.6297L-0.60672 15.1659L0.5 13.5ZM6.74707 17.6502L8.41295 18.7569L9.51967 17.091L7.85379 15.9843L6.74707 17.6502ZM3.10749 20.5321L2.41216 18.6569L2.41216 18.6569L3.10749 20.5321ZM0 20.9833L0.133313 18.9878L-2 18.8453L-2 20.9833H0ZM0 28H-2V30H0V28ZM7 28H9V26H7V28ZM7 43V45H9V43H7ZM0 43V41H-2V43H0ZM0 52H35V48H0V52ZM37 50V43H33V50H37ZM35 45H42V41H35V45ZM44 43V28H40V43H44ZM42 26H35V30H42V26ZM37 28V19.9836H33V28H37ZM35.1314 21.9793C40.0847 21.6532 44 17.5347 44 12.5H40C40 15.4136 37.7333 17.7994 34.8686 17.9879L35.1314 21.9793ZM44 12.5C44 7.46532 40.0847 3.34675 35.1314 3.02072L34.8686 7.01208C37.7333 7.20064 40 9.58644 40 12.5H44ZM37 5.0164V0H33V5.0164H37ZM35 -2H0V2H35V-2ZM-2 0V6.01668H2V0H-2ZM0.133323 8.01224C0.764006 7.9701 1.40105 8.03672 2.01608 8.21308L3.11869 4.36805C2.05635 4.06342 0.955912 3.94836 -0.133323 4.02113L0.133323 8.01224ZM2.01608 8.21308C3.13439 8.53377 4.1222 9.2008 4.83751 10.1183L7.99206 7.65885C6.75652 6.07411 5.0503 4.92196 3.11868 4.36805L2.01608 8.21308ZM5.18507 7.31129L-0.729716 11.9227L1.72972 15.0773L7.6445 10.4658L5.18507 7.31129ZM-0.60672 15.1659L5.64035 19.3161L7.85379 15.9843L1.60672 11.8341L-0.60672 15.1659ZM5.08118 16.5435C4.43742 17.5125 3.50296 18.2524 2.41216 18.6569L3.80282 22.4074C5.68693 21.7088 7.30099 20.4307 8.41295 18.7569L5.08118 16.5435ZM2.41216 18.6569C1.68042 18.9282 0.903592 19.0392 0.133313 18.9878L-0.133313 22.9789C1.19702 23.0677 2.53885 22.8761 3.80282 22.4074L2.41216 18.6569ZM-2 20.9833V28H2V20.9833H-2ZM0 30H7V26H0V30ZM5 28V43H9V28H5ZM7 41H0V45H7V41ZM-2 43V50H2V43H-2Z" fill="black" mask="url(#path-1-inside-1_15_1099)"/>
</svg>
