<?xml version="1.0" encoding="UTF-8"?>
<svg width="100%" height="100%" version="1.1" viewBox="0 0 12.187 13.758" xmlns="http://www.w3.org/2000/svg">
<g transform="translate(-116.42 -134.74)">
<g transform="matrix(.26458 0 0 .26458 110.46 153.58)" stroke-width=".8">
<path d="m23.55-65.19h-1v0.93635l0.9343 0.06149zm0-5.0164v-1h-1v1zm0 19.984-0.0657-0.9978-0.9343 0.0615v0.9363zm0 8.0164h-1v1h1zm7 0h1v-1h-1zm0 15v1h1v-1zm-7 0v-1h-1v1zm0 7h-1v1h1zm35 0v1h1v-1zm0-6.1476-0.7042-0.7101-0.2958 0.2934v0.4167zm8.6348-8.5638 0.7042 0.71 0.7203-0.7145-0.7248-0.7099zm-8.6348-8.4578h-1v0.4203l0.3003 0.2941zm0-12.331v-1h-1v1zm7 0v1h1v-1zm-0.5709-2.8701-0.9239 0.3827zm-1.6258-2.4332 0.7071-0.70711zm-2.4332-1.6258-0.3827 0.92388zm-2.3701-0.55422h-1v0.93542l0.9333 0.06236zm0-7.0167h1v-1h-1zm-34 5.0164v-5.0164h-2v5.0164zm7 7.4836c0-4.5044-3.5031-8.1898-7.9343-8.4814l-0.1314 1.9957c3.3869 0.22293 6.0657 3.042 6.0657 6.4858zm-7.9343 8.4814c4.4312-0.2916 7.9343-3.977 7.9343-8.4814h-2c0 3.4438-2.6788 6.2628-6.0657 6.4858zm0.9343 7.0186v-8.0164h-2v8.0164zm6-1h-7v2h7zm1 16v-15h-2v15zm-8 1h7v-2h-7zm1 6v-7h-2v7zm34-1h-35v2h35zm-1-5.1476v6.1476h2v-6.1476zm8.9306-9.2738-8.6348 8.5637 1.4084 1.4201 8.6348-8.5638zm-8.6303-7.0334 8.6347 8.4578 1.3995-1.4288-8.6348-8.4578zm-0.3003-13.045v12.331h2v-12.331zm8-1h-7v2h7zm-1.4948-1.4874c0.3267 0.7886 0.4948 1.6338 0.4948 2.4874h2c0-1.1162-0.2199-2.2215-0.647-3.2528zm-1.409-2.1088c0.6036 0.6036 1.0824 1.3201 1.409 2.1088l1.8478-0.7654c-0.4272-1.0313-1.0533-1.9683-1.8426-2.7576zm-2.1088-1.409c0.7887 0.32666 1.5052 0.80542 2.1088 1.409l1.4142-1.4142c-0.7893-0.7893-1.7263-1.4154-2.7576-1.8426zm-2.0541-0.48032c0.7054 0.04713 1.3993 0.20907 2.0541 0.48032l0.7654-1.8478c-0.8564-0.35472-1.7638-0.56648-2.6861-0.62811zm-0.9333-8.0145v7.0167h2v-7.0167zm-34 1h35v-2h-35z"/>
<path d="m24.79-23.735v-2.3735h6.8569v-17.142h-6.8569v-3.0329c0-2.2491 0.08519-3.0335 0.32966-3.0354 0.71664-0.0056 3.0205-1.2971 3.9598-2.2198 0.54609-0.53643 1.3164-1.591 1.7118-2.3434 0.62776-1.1946 0.71904-1.669 0.72-3.7416 8.65e-4 -1.8752-0.11827-2.6324-0.56746-3.6066-0.8797-1.9079-2.5043-3.492-4.4514-4.3402l-1.7025-0.74167v-2.7836h32.687l0.14718 6.983 1.2866 0.18369c2.3624 0.33728 4.6284 2.3185 5.3016 4.6352l0.17242 0.59339h-6.8925v13.839l8.0437 8.0623-8.0437 7.6805v5.7571h-32.702z" fill="#f5ba41" stroke="#000" stroke-linecap="round" stroke-linejoin="round"/>
</g>
</g>
</svg>
