<svg width="100%" height="100%" viewBox="0 0 44 50" fill="none" xmlns="http://www.w3.org/2000/svg">
<mask id="path-1-inside-1_15_1068" fill="white">
<path fill-rule="evenodd" clip-rule="evenodd" d="M0 0V5.0164C3.90902 5.2737 7 8.52588 7 12.5C7 16.4741 3.90902 19.7263 0 19.9836V28H7V43H0V50H35V43.8524L43.6348 35.2886L35 26.8308V14.5L42 14.5C42 13.5151 41.806 12.5398 41.4291 11.6299C41.0522 10.7199 40.4997 9.89314 39.8033 9.1967C39.1069 8.50026 38.2801 7.94781 37.3701 7.5709C36.6145 7.25791 35.8138 7.07106 35 7.01668V0H0Z"/>
</mask>
<path d="M0 5.0164H-2V6.88909L-0.131357 7.01208L0 5.0164ZM0 0V-2H-2V0H0ZM0 19.9836L-0.131357 17.9879L-2 18.1109V19.9836H0ZM0 28H-2V30H0V28ZM7 28H9V26H7V28ZM7 43V45H9V43H7ZM0 43V41H-2V43H0ZM0 50H-2V52H0V50ZM35 50V52H37V50H35ZM35 43.8524L33.5916 42.4323L33 43.0191V43.8524H35ZM43.6348 35.2886L45.0431 36.7086L46.4839 35.2797L45.0343 33.8598L43.6348 35.2886ZM35 26.8308H33V27.6714L33.6005 28.2596L35 26.8308ZM35 14.5L35 12.5L33 12.5V14.5H35ZM42 14.5L42 16.5L44 16.5V14.5H42ZM41.4291 11.6299L39.5813 12.3952L39.5813 12.3952L41.4291 11.6299ZM39.8033 9.1967L41.2175 7.78249L41.2175 7.78248L39.8033 9.1967ZM37.3701 7.5709L36.6048 9.41866L36.6048 9.41866L37.3701 7.5709ZM35 7.01668H33V8.88751L34.8667 9.01224L35 7.01668ZM35 0H37V-2H35V0ZM2 5.0164V0H-2V5.0164H2ZM9 12.5C9 7.46532 5.0847 3.34675 0.131357 3.02072L-0.131357 7.01208C2.73334 7.20064 5 9.58644 5 12.5H9ZM0.131357 21.9793C5.08469 21.6532 9 17.5347 9 12.5H5C5 15.4136 2.73334 17.7994 -0.131357 17.9879L0.131357 21.9793ZM2 28V19.9836H-2V28H2ZM7 26H0V30H7V26ZM9 43V28H5V43H9ZM0 45H7V41H0V45ZM2 50V43H-2V50H2ZM35 48H0V52H35V48ZM33 43.8524V50H37V43.8524H33ZM42.2264 33.8685L33.5916 42.4323L36.4084 45.2724L45.0431 36.7086L42.2264 33.8685ZM33.6005 28.2596L42.2353 36.7174L45.0343 33.8598L36.3995 25.402L33.6005 28.2596ZM33 14.5V26.8308H37V14.5H33ZM42 12.5L35 12.5L35 16.5L42 16.5L42 12.5ZM39.5813 12.3952C39.8577 13.0625 40 13.7777 40 14.5H44C44 13.2524 43.7543 12.0171 43.2769 10.8645L39.5813 12.3952ZM38.3891 10.6109C38.8998 11.1216 39.3049 11.7279 39.5813 12.3952L43.2769 10.8645C42.7994 9.71192 42.0997 8.66464 41.2175 7.78249L38.3891 10.6109ZM36.6048 9.41866C37.272 9.69506 37.8784 10.1002 38.3891 10.6109L41.2175 7.78248C40.3354 6.90033 39.2881 6.20056 38.1355 5.72314L36.6048 9.41866ZM34.8667 9.01224C35.4635 9.05211 36.0506 9.18914 36.6048 9.41866L38.1355 5.72315C37.1784 5.32669 36.1642 5.09001 35.1333 5.02113L34.8667 9.01224ZM33 0V7.01668H37V0H33ZM0 2H35V-2H0V2Z" fill="black" mask="url(#path-1-inside-1_15_1068)"/>
</svg>
