<svg width="100%" height="100%" viewBox="0 0 42 50" fill="none" xmlns="http://www.w3.org/2000/svg">
<mask id="path-1-inside-1_15_1047" fill="white">
<path fill-rule="evenodd" clip-rule="evenodd" d="M0 0V7.01668C0.813831 7.07106 1.61451 7.25791 2.37012 7.5709C3.28007 7.94781 4.10686 8.50026 4.8033 9.1967C5.49974 9.89314 6.05219 10.7199 6.4291 11.6299C6.80601 12.5398 7 13.5151 7 14.5L0 14.5V26.8308L8.63478 35.2886L0 43.8524V50H35V41.5676H38.9084L41.6329 33.1824L35 28.3633V14.5L42 14.5C42 13.5151 41.806 12.5398 41.4291 11.6299C41.0522 10.7199 40.4997 9.89314 39.8033 9.1967C39.1069 8.50026 38.2801 7.94781 37.3701 7.5709C36.6145 7.25791 35.8138 7.07106 35 7.01668V0H0Z"/>
</mask>
<path d="M0 7.01668H-2V8.88751L-0.133333 9.01224L0 7.01668ZM0 0V-2H-2V0H0ZM2.37012 7.5709L1.60475 9.41866L1.60476 9.41866L2.37012 7.5709ZM4.8033 9.1967L6.21752 7.78249L6.21751 7.78248L4.8033 9.1967ZM6.4291 11.6299L4.58134 12.3952L4.58134 12.3952L6.4291 11.6299ZM7 14.5L7 16.5L9 16.5V14.5H7ZM0 14.5L2.72478e-07 12.5L-2 12.5V14.5H0ZM0 26.8308H-2V27.6714L-1.39949 28.2596L0 26.8308ZM8.63478 35.2886L10.0431 36.7086L11.4839 35.2797L10.0343 33.8598L8.63478 35.2886ZM0 43.8524L-1.40836 42.4323L-2 43.0191V43.8524H0ZM0 50H-2V52H0V50ZM35 50V52H37V50H35ZM35 41.5676V39.5676H33V41.5676H35ZM38.9084 41.5676V43.5676H40.3615L40.8105 42.1857L38.9084 41.5676ZM41.6329 33.1824L43.535 33.8004L43.9841 32.4184L42.8085 31.5643L41.6329 33.1824ZM35 28.3633H33V29.3823L33.8244 29.9813L35 28.3633ZM35 14.5L35 12.5L33 12.5V14.5H35ZM42 14.5L42 16.5L44 16.5V14.5H42ZM41.4291 11.6299L39.5813 12.3952L39.5813 12.3952L41.4291 11.6299ZM39.8033 9.1967L41.2175 7.78249L41.2175 7.78248L39.8033 9.1967ZM37.3701 7.5709L36.6048 9.41866L36.6048 9.41866L37.3701 7.5709ZM35 7.01668H33V8.88751L34.8667 9.01224L35 7.01668ZM35 0H37V-2H35V0ZM2 7.01668V0H-2V7.01668H2ZM3.13549 5.72315C2.17837 5.32669 1.16418 5.09001 0.133333 5.02113L-0.133333 9.01224C0.463478 9.05211 1.05064 9.18914 1.60475 9.41866L3.13549 5.72315ZM6.21751 7.78248C5.33536 6.90033 4.28809 6.20056 3.13549 5.72314L1.60476 9.41866C2.27205 9.69506 2.87837 10.1002 3.38909 10.6109L6.21751 7.78248ZM8.27685 10.8645C7.79944 9.71192 7.09967 8.66464 6.21752 7.78249L3.38909 10.6109C3.89981 11.1216 4.30493 11.7279 4.58134 12.3952L8.27685 10.8645ZM9 14.5C9 13.2524 8.75428 12.0171 8.27685 10.8645L4.58134 12.3952C4.85774 13.0625 5 13.7777 5 14.5H9ZM-2.72478e-07 16.5L7 16.5L7 12.5L2.72478e-07 12.5L-2.72478e-07 16.5ZM2 26.8308V14.5H-2V26.8308H2ZM10.0343 33.8598L1.39949 25.402L-1.39949 28.2596L7.23528 36.7174L10.0343 33.8598ZM1.40836 45.2724L10.0431 36.7086L7.22641 33.8685L-1.40836 42.4323L1.40836 45.2724ZM2 50V43.8524H-2V50H2ZM35 48H0V52H35V48ZM33 41.5676V50H37V41.5676H33ZM38.9084 39.5676H35V43.5676H38.9084V39.5676ZM39.7308 32.5643L37.0063 40.9496L40.8105 42.1857L43.535 33.8004L39.7308 32.5643ZM33.8244 29.9813L40.4574 34.8004L42.8085 31.5643L36.1756 26.7452L33.8244 29.9813ZM33 14.5V28.3633H37V14.5H33ZM42 12.5L35 12.5L35 16.5L42 16.5L42 12.5ZM39.5813 12.3952C39.8577 13.0625 40 13.7777 40 14.5H44C44 13.2524 43.7543 12.0171 43.2769 10.8645L39.5813 12.3952ZM38.3891 10.6109C38.8998 11.1216 39.3049 11.7279 39.5813 12.3952L43.2769 10.8645C42.7994 9.71192 42.0997 8.66464 41.2175 7.78249L38.3891 10.6109ZM36.6048 9.41866C37.272 9.69506 37.8784 10.1002 38.3891 10.6109L41.2175 7.78248C40.3354 6.90033 39.2881 6.20056 38.1355 5.72314L36.6048 9.41866ZM34.8667 9.01224C35.4635 9.05211 36.0506 9.18914 36.6048 9.41866L38.1355 5.72315C37.1784 5.32669 36.1642 5.09001 35.1333 5.02113L34.8667 9.01224ZM33 0V7.01668H37V0H33ZM0 2H35V-2H0V2Z" fill="black" mask="url(#path-1-inside-1_15_1047)"/>
</svg>
