<?xml version="1.0" encoding="UTF-8"?>
<svg width="100%" height="100%" version="1.1" viewBox="0 0 11.642 13.758" xmlns="http://www.w3.org/2000/svg">
<g transform="translate(-135.13 -152.95)">
<g transform="matrix(.26458 0 0 .26458 152.28 160.2)" stroke-width=".8">
<path d="m-63.82-19.411h-1v0.93542l0.9333 0.06236zm0-7.0167v-1h-1v1zm2.3701 7.5709-0.3827 0.92388zm2.4332 1.6258 0.7071-0.70711zm1.6258 2.4332-0.9239 0.3827zm0.5709 2.8701v1h1v-1zm-7 0v-1h-1v1zm0 12.331h-1v0.4203l0.3003 0.2941zm8.6348 8.4578 0.7042 0.71 0.7203-0.7145-0.7248-0.7099zm-8.6348 8.5638-0.7042-0.7101-0.2958 0.2934v0.4167zm0 6.1476h-1v1h1zm35 0v1h1v-1zm0-8.4324v-1h-1v1zm3.908 0v1h0.727l0.224-0.691zm2.725-8.3852 0.951 0.309 0.224-0.691-0.587-0.427zm-6.633-4.8191h-1v0.5095l0.412 0.2995zm0-13.863v-1h-1v1zm7 0v1h1v-1zm-0.571-2.8701-0.924 0.3827zm-1.626-2.4332 0.707-0.70711zm-2.433-1.6258-0.383 0.92388zm-2.37-0.55422h-1v0.93542l0.933 0.06236zm0-7.0167h1v-1h-1zm-34 7.0167v-7.0167h-2v7.0167zm1.7528-0.36966c-0.8564-0.35472-1.7638-0.56648-2.6861-0.62811l-0.1334 1.9956c0.7054 0.04713 1.3993 0.20907 2.0541 0.48032zm2.7576 1.8426c-0.7893-0.7893-1.7263-1.4154-2.7576-1.8426l-0.7654 1.8478c0.7887 0.32666 1.5052 0.80542 2.1088 1.409zm1.8426 2.7576c-0.4272-1.0313-1.0533-1.9683-1.8426-2.7576l-1.4142 1.4142c0.6036 0.6036 1.0824 1.3201 1.409 2.1088zm0.647 3.2528c0-1.1162-0.2199-2.2215-0.647-3.2528l-1.8478 0.7654c0.3267 0.7886 0.4948 1.6338 0.4948 2.4874zm-8 1h7v-2h-7zm1 11.331v-12.331h-2v12.331zm8.3345 7.7434-8.6348-8.4578-1.3994 1.4288 8.6347 8.4578zm-8.6303 9.9882 8.6348-8.5638-1.4084-1.42-8.6348 8.5637zm0.2958 5.4376v-6.1476h-2v6.1476zm34-1h-35v2h35zm-1-7.4324v8.4324h2v-8.4324zm4.908-1h-3.908v2h3.908zm1.774-7.6942-2.725 8.3852 1.902 0.618 2.725-8.3852zm-6.27-3.7011 6.633 4.8191 1.176-1.618-6.633-4.8191zm-0.412-14.672v13.863h2v-13.863zm8-1h-7v2h7zm-1.495-1.4874c0.327 0.7886 0.495 1.6338 0.495 2.4874h2c0-1.1162-0.22-2.2215-0.647-3.2528zm-1.409-2.1088c0.604 0.6036 1.083 1.3201 1.409 2.1088l1.848-0.7654c-0.427-1.0313-1.053-1.9683-1.843-2.7576zm-2.109-1.409c0.789 0.32666 1.506 0.80542 2.109 1.409l1.414-1.4142c-0.789-0.7893-1.726-1.4154-2.757-1.8426zm-2.054-0.48032c0.706 0.04713 1.4 0.20907 2.054 0.48032l0.766-1.8478c-0.857-0.35472-1.764-0.56648-2.686-0.62811zm-0.933-8.0145v7.0167h2v-7.0167zm-34 1h35v-2h-35z"/>
<path d="m-62.767 20.244v-2.1731l9.2746-9.2854-9.2746-8.9076v-10.691h7.1969l-0.16072-1.7212c-0.20151-2.1579-0.87803-3.7062-2.2875-5.2353-1.0955-1.1885-3.3673-2.5377-4.273-2.5377-0.42503 0-0.47567-0.26673-0.47567-2.5054v-2.5054h32.702v3.4002c0 3.6851 0.01176 3.7136 1.538 3.7262 1.8454 0.01519 4.6245 2.3076 5.2438 4.3255l0.28948 0.94322h-7.0713l0.0033 7.714 0.0033 7.714 6.5052 4.6548-2.1604 6.8125-4.3515 0.0048v8.4393h-32.702v-2.1731z" fill="#98bf40" stroke="#000" stroke-linecap="round" stroke-linejoin="round"/>
</g>
</g>
</svg>
