<svg width="100%" height="100%" viewBox="0 0 44 50" fill="none" xmlns="http://www.w3.org/2000/svg">
<mask id="path-1-inside-1_15_1018" fill="white">
<path fill-rule="evenodd" clip-rule="evenodd" d="M0 7.01668V0H35V5H44L36.5 10L44 12L36.5 15L44 20H35V28.3633L41.6329 33.1824L38.9084 41.5676H35V50H0V41.5676H3.90839L6.63292 33.1824L0 28.3633V14.5L7 14.5C7 13.5151 6.80601 12.5398 6.4291 11.6299C6.05219 10.7199 5.49974 9.89314 4.8033 9.1967C4.10686 8.50026 3.28007 7.94781 2.37012 7.5709C1.61451 7.25791 0.813831 7.07106 0 7.01668Z"/>
</mask>
<path d="M0 0V-2H-2V0H0ZM0 7.01668H-2V8.88751L-0.133333 9.01224L0 7.01668ZM35 0H37V-2H35V0ZM35 5H33V7H35V5ZM44 5L45.1094 6.6641L50.6056 3H44V5ZM36.5 10L35.3906 8.3359L31.7069 10.7917L35.9847 11.9325L36.5 10ZM44 12L44.7428 13.857L50.3359 11.6197L44.5153 10.0675L44 12ZM36.5 15L35.7572 13.143L32.2271 14.5551L35.3906 16.6641L36.5 15ZM44 20V22H50.6056L45.1094 18.3359L44 20ZM35 20V18H33V20H35ZM35 28.3633H33V29.3823L33.8244 29.9813L35 28.3633ZM41.6329 33.1824L43.535 33.8004L43.9841 32.4184L42.8085 31.5643L41.6329 33.1824ZM38.9084 41.5676V43.5676H40.3615L40.8105 42.1857L38.9084 41.5676ZM35 41.5676V39.5676H33V41.5676H35ZM35 50V52H37V50H35ZM0 50H-2V52H0V50ZM0 41.5676V39.5676H-2V41.5676H0ZM3.90839 41.5676V43.5676H5.36148L5.8105 42.1857L3.90839 41.5676ZM6.63292 33.1824L8.53504 33.8004L8.98406 32.4184L7.80849 31.5643L6.63292 33.1824ZM0 28.3633H-2V29.3823L-1.17557 29.9813L0 28.3633ZM0 14.5L2.72478e-07 12.5L-2 12.5V14.5H0ZM7 14.5L7 16.5L9 16.5V14.5H7ZM6.4291 11.6299L4.58134 12.3952L4.58134 12.3952L6.4291 11.6299ZM4.8033 9.1967L6.21752 7.78249L6.21751 7.78248L4.8033 9.1967ZM2.37012 7.5709L1.60475 9.41866L1.60476 9.41866L2.37012 7.5709ZM-2 0V7.01668H2V0H-2ZM35 -2H0V2H35V-2ZM37 5V0H33V5H37ZM35 7H44V3H35V7ZM42.8906 3.3359L35.3906 8.3359L37.6094 11.6641L45.1094 6.6641L42.8906 3.3359ZM35.9847 11.9325L43.4847 13.9325L44.5153 10.0675L37.0153 8.06753L35.9847 11.9325ZM43.2572 10.143L35.7572 13.143L37.2428 16.857L44.7428 13.857L43.2572 10.143ZM35.3906 16.6641L42.8906 21.6641L45.1094 18.3359L37.6094 13.3359L35.3906 16.6641ZM44 18H35V22H44V18ZM37 28.3633V20H33V28.3633H37ZM42.8085 31.5643L36.1756 26.7452L33.8244 29.9813L40.4574 34.8004L42.8085 31.5643ZM40.8105 42.1857L43.535 33.8004L39.7308 32.5643L37.0063 40.9496L40.8105 42.1857ZM35 43.5676H38.9084V39.5676H35V43.5676ZM37 50V41.5676H33V50H37ZM0 52H35V48H0V52ZM-2 41.5676V50H2V41.5676H-2ZM3.90839 39.5676H0V43.5676H3.90839V39.5676ZM4.73081 32.5643L2.00628 40.9496L5.8105 42.1857L8.53504 33.8004L4.73081 32.5643ZM-1.17557 29.9813L5.45735 34.8004L7.80849 31.5643L1.17557 26.7452L-1.17557 29.9813ZM-2 14.5V28.3633H2V14.5H-2ZM7 12.5L2.72478e-07 12.5L-2.72478e-07 16.5L7 16.5L7 12.5ZM4.58134 12.3952C4.85774 13.0625 5 13.7777 5 14.5H9C9 13.2524 8.75428 12.0171 8.27685 10.8645L4.58134 12.3952ZM3.38909 10.6109C3.89981 11.1216 4.30493 11.7279 4.58134 12.3952L8.27685 10.8645C7.79944 9.71192 7.09967 8.66464 6.21752 7.78249L3.38909 10.6109ZM1.60476 9.41866C2.27205 9.69506 2.87837 10.1002 3.38909 10.6109L6.21751 7.78248C5.33536 6.90033 4.28809 6.20056 3.13549 5.72314L1.60476 9.41866ZM-0.133333 9.01224C0.463478 9.05211 1.05064 9.18914 1.60475 9.41866L3.13549 5.72315C2.17837 5.32669 1.16418 5.09001 0.133333 5.02113L-0.133333 9.01224Z" fill="black" mask="url(#path-1-inside-1_15_1018)"/>
</svg>
