<?xml version="1.0" encoding="UTF-8"?>
<svg width="100%" height="100%" version="1.1" viewBox="0 0 12.78 13.758" xmlns="http://www.w3.org/2000/svg">
<g transform="translate(-135.82 -141.62)">
<g transform="matrix(.26458 0 0 .26458 95.84 157.53)" stroke-width=".8">
<path d="m152.1-59.13v-1h-1v1zm0 7.0167h-1v0.93542l0.933 0.06236zm35-7.0167h1v-1h-1zm0 5h-1v1h1zm9 0 0.555 0.83205 2.748-1.832h-3.303zm-7.5 5-0.555-0.8321-1.842 1.228 2.139 0.5703zm7.5 2 0.371 0.9285 2.797-1.1187-2.91-0.776zm-7.5 3-0.371-0.9285-1.765 0.706 1.581 1.0546zm7.5 5v1h3.303l-2.748-1.8321zm-9 0v-1h-1v1zm0 8.3633h-1v0.5095l0.412 0.2995zm6.633 4.8191 0.951 0.309 0.224-0.691-0.587-0.427zm-2.725 8.3852v1h0.727l0.224-0.691zm-3.908 0v-1h-1v1zm0 8.4324v1h1v-1zm-35 0h-1v1h1zm0-8.4324v-1h-1v1zm3.908 0v1h0.727l0.224-0.691zm2.725-8.3852 0.951 0.309 0.224-0.691-0.587-0.427zm-6.633-4.8191h-1v0.5095l0.412 0.2995zm0-13.863v-1h-1v1zm7 0v1h1v-1zm-0.571-2.8701-0.924 0.3827zm-1.626-2.4332 0.707-0.70711zm-2.433-1.6258-0.383 0.92388zm-3.37-7.5709v7.0167h2v-7.0167zm36-1h-35v2h35zm1 6v-5h-2v5zm-1 1h9v-2h-9zm8.445-1.832-7.5 5 1.11 1.6642 7.5-5zm-7.203 6.7982 7.5 2 0.516-1.9324-7.5-2zm7.387 0.1053-7.5 3 0.742 1.857 7.5-3zm-7.684 4.7606 7.5 5 1.11-1.6642-7.5-5zm8.055 3.1679h-9v2h9zm-8 9.3633v-8.3633h-2v8.3633zm6.221 4.0101-6.633-4.8191-1.176 1.618 6.633 4.8191zm-2.362 9.5032 2.725-8.3852-1.902-0.618-2.725 8.3852zm-4.859 0.691h3.908v-2h-3.908zm1 7.4324v-8.4324h-2v8.4324zm-36 1h35v-2h-35zm-1-9.4324v8.4324h2v-8.4324zm4.908-1h-3.908v2h3.908zm1.774-7.6942-2.725 8.3852 1.902 0.618 2.725-8.3852zm-6.27-3.7011 6.633 4.8191 1.176-1.618-6.633-4.8191zm-0.412-14.672v13.863h2v-13.863zm8-1h-7v2h7zm-1.495-1.4874c0.327 0.7886 0.495 1.6338 0.495 2.4874h2c0-1.1162-0.22-2.2215-0.647-3.2528zm-1.409-2.1088c0.604 0.6036 1.083 1.3201 1.409 2.1088l1.848-0.7654c-0.427-1.0313-1.053-1.9683-1.843-2.7576zm-2.109-1.409c0.789 0.32666 1.506 0.80542 2.109 1.409l1.414-1.4142c-0.789-0.7893-1.726-1.4154-2.757-1.8426zm-2.054-0.48032c0.706 0.04713 1.4 0.20907 2.054 0.48032l0.766-1.8478c-0.857-0.35472-1.764-0.56648-2.686-0.62811z"/>
<path d="m153.23-13.318v-3.0329h3.5825l1.6583-5.0545c1.3058-3.9801 1.5837-5.0984 1.3075-5.2612-0.19291-0.11372-1.7155-1.2015-3.3836-2.4172l-3.0329-2.2105-0.0708-6.1103-0.0708-6.1103h7.1566l-0.16615-1.6483c-0.21804-2.1631-1.4118-4.6519-2.8022-5.8419-1.1186-0.95749-3.0926-2.004-3.7801-2.004-0.32751 0-0.39847-0.44616-0.39847-2.5054v-2.5054h32.702v4.9941l6.1976 0.1486-2.9669 1.9381c-1.6318 1.0659-2.9669 2.032-2.9669 2.1469 0 0.11483 0.97909 0.46646 2.1758 0.7814 1.1967 0.31494 2.5817 0.69987 3.0779 0.8554l0.9022 0.28279-2.9574 1.1834c-1.6266 0.65086-2.9224 1.2884-2.8796 1.4167 0.0428 0.12831 1.3236 1.0631 2.8464 2.0774l2.7686 1.8441-6.1976 9.52e-4v10.189l3.0578 2.2013c1.6818 1.2107 3.1045 2.3301 3.1615 2.4876 0.0571 0.15746-0.34563 1.7104-0.89485 3.451l-0.9986 3.1647-4.3259 0.1532v8.4179h-32.702z" fill="#459dd7" stroke="#000" stroke-linecap="round" stroke-linejoin="round"/>
</g>
</g>
</svg>