<?xml version="1.0" encoding="UTF-8"?>
<svg width="100%" height="100%" version="1.1" viewBox="0 0 12.571 14.098" xmlns="http://www.w3.org/2000/svg">
<g transform="translate(-74.257 -176.69)">
<path d="m74.559 189.86v-0.63364l1.3504-1.2601c0.74274-0.69306 1.3504-1.3185 1.3504-1.3898 0-0.0713-0.6077-0.66061-1.3504-1.3095l-1.3504-1.1798v-3.0437h2.1461l-0.07649-0.60901c-0.04689-0.37334-0.1931-0.77391-0.37785-1.0351-0.31063-0.43926-1.0053-0.93829-1.4056-1.0097-0.19124-0.0341-0.23296-0.14964-0.26237-0.72628l-0.03496-0.68569h9.8753v1.949l0.47411 0.0595c0.55043 0.0691 1.2112 0.50187 1.4636 0.95864 0.09681 0.17519 0.17602 0.3457 0.17602 0.37893 0 0.0332-0.47559 0.0604-1.0569 0.0604h-1.0569v4.5054h2.1137v3.6263h-2.1137v1.978h-9.8641z" fill="#459dd7" stroke="#000" stroke-linecap="round" stroke-linejoin="round" stroke-width=".58208"/>
</g>
</svg>
