<svg width="100%" height="100%" viewBox="0 0 42 50" fill="none" xmlns="http://www.w3.org/2000/svg">
<mask id="path-1-inside-1_15_998" fill="white">
<path fill-rule="evenodd" clip-rule="evenodd" d="M0 7.01668V0H35V7.01669C35.8138 7.07106 36.6145 7.25792 37.3701 7.5709C38.2801 7.94781 39.1069 8.50026 39.8033 9.1967C40.4997 9.89314 41.0522 10.7199 41.4291 11.6299C41.806 12.5398 42 13.5151 42 14.5H35V28H42V43H35V50H0V43.8524L8.63478 35.2886L0 26.8308V14.5L7 14.5C7 13.5151 6.80601 12.5398 6.4291 11.6299C6.05219 10.7199 5.49974 9.89314 4.8033 9.1967C4.10686 8.50026 3.28007 7.94781 2.37012 7.5709C1.61451 7.25791 0.813831 7.07106 0 7.01668Z"/>
</mask>
<path d="M0 0V-2H-2V0H0ZM0 7.01668H-2V8.88751L-0.133333 9.01224L0 7.01668ZM35 0H37V-2H35V0ZM35 7.01669H33V8.88751L34.8667 9.01224L35 7.01669ZM37.3701 7.5709L38.1355 5.72314L38.1355 5.72314L37.3701 7.5709ZM39.8033 9.1967L41.2175 7.78249L41.2175 7.78248L39.8033 9.1967ZM41.4291 11.6299L39.5813 12.3952L39.5813 12.3952L41.4291 11.6299ZM42 14.5V16.5H44V14.5H42ZM35 14.5V12.5H33V14.5H35ZM35 28H33V30H35V28ZM42 28H44V26H42V28ZM42 43V45H44V43H42ZM35 43V41H33V43H35ZM35 50V52H37V50H35ZM0 50H-2V52H0V50ZM0 43.8524L-1.40836 42.4323L-2 43.0191V43.8524H0ZM8.63478 35.2886L10.0431 36.7086L11.4839 35.2797L10.0343 33.8598L8.63478 35.2886ZM0 26.8308H-2V27.6714L-1.39949 28.2596L0 26.8308ZM0 14.5L2.72478e-07 12.5L-2 12.5V14.5H0ZM7 14.5L7 16.5L9 16.5V14.5H7ZM6.4291 11.6299L4.58134 12.3952L4.58134 12.3952L6.4291 11.6299ZM4.8033 9.1967L6.21752 7.78249L6.21751 7.78248L4.8033 9.1967ZM2.37012 7.5709L1.60475 9.41866L1.60476 9.41866L2.37012 7.5709ZM-2 0V7.01668H2V0H-2ZM35 -2H0V2H35V-2ZM37 7.01669V0H33V7.01669H37ZM38.1355 5.72314C37.1784 5.32669 36.1642 5.09001 35.1333 5.02113L34.8667 9.01224C35.4635 9.05211 36.0506 9.18914 36.6048 9.41866L38.1355 5.72314ZM41.2175 7.78248C40.3354 6.90033 39.2881 6.20056 38.1355 5.72314L36.6048 9.41866C37.272 9.69506 37.8784 10.1002 38.3891 10.6109L41.2175 7.78248ZM43.2769 10.8645C42.7994 9.71192 42.0997 8.66464 41.2175 7.78249L38.3891 10.6109C38.8998 11.1216 39.3049 11.7279 39.5813 12.3952L43.2769 10.8645ZM44 14.5C44 13.2524 43.7543 12.0171 43.2769 10.8645L39.5813 12.3952C39.8577 13.0625 40 13.7777 40 14.5H44ZM35 16.5H42V12.5H35V16.5ZM37 28V14.5H33V28H37ZM42 26H35V30H42V26ZM44 43V28H40V43H44ZM35 45H42V41H35V45ZM37 50V43H33V50H37ZM0 52H35V48H0V52ZM-2 43.8524V50H2V43.8524H-2ZM7.22641 33.8685L-1.40836 42.4323L1.40836 45.2724L10.0431 36.7086L7.22641 33.8685ZM-1.39949 28.2596L7.23528 36.7174L10.0343 33.8598L1.39949 25.402L-1.39949 28.2596ZM-2 14.5V26.8308H2V14.5H-2ZM7 12.5L2.72478e-07 12.5L-2.72478e-07 16.5L7 16.5L7 12.5ZM4.58134 12.3952C4.85774 13.0625 5 13.7777 5 14.5H9C9 13.2524 8.75428 12.0171 8.27685 10.8645L4.58134 12.3952ZM3.38909 10.6109C3.89981 11.1216 4.30493 11.7279 4.58134 12.3952L8.27685 10.8645C7.79944 9.71192 7.09967 8.66464 6.21752 7.78249L3.38909 10.6109ZM1.60476 9.41866C2.27205 9.69506 2.87837 10.1002 3.38909 10.6109L6.21751 7.78248C5.33536 6.90033 4.28809 6.20056 3.13549 5.72314L1.60476 9.41866ZM-0.133333 9.01224C0.463478 9.05211 1.05064 9.18914 1.60475 9.41866L3.13549 5.72315C2.17837 5.32669 1.16418 5.09001 0.133333 5.02113L-0.133333 9.01224Z" fill="black" mask="url(#path-1-inside-1_15_998)"/>
</svg>
