<?xml version="1.0" encoding="UTF-8"?>
<svg width="100%" height="100%" version="1.1" viewBox="0 0 11.646 13.758" xmlns="http://www.w3.org/2000/svg">
<g transform="translate(-81.012 -115.19)">
<g transform="matrix(.26458 0 0 .26458 69.104 134.92)">
<g stroke-width=".8">
<path d="m46.005-23.554h-1v1h1zm35 0v1h1v-1zm0-7v-1h-1v1zm7 0v1h1v-1zm0-15h1v-1h-1zm-7 0h-1v1h1zm0-8.0167-0.0667-0.9977-0.9333 0.0623v0.9354zm3.5894-1.1963-0.5452-0.8383zm3.1406-4.2928 0.964 0.2659 0.2659-0.964-0.964-0.2659zm-6.73-1.8563h-1v0.7615l0.7341 0.2025zm0-0.2467-0.2127-0.9771-0.7873 0.1713v0.8058zm6.8285-1.4861 0.2126 0.9771 0.9771-0.2127-0.2126-0.9771zm-2.9006-4.4585-0.5904 0.80712zm-3.9279-1.4299h-1v0.93541l0.9333 0.06236zm0-5.0167h1v-1h-1zm-35 0v-1h-1v1zm0 7.0167h-1v0.93542l0.9333 0.06236zm2.3701 0.55422-0.3827 0.92388zm2.4332 1.6258 0.7071-0.70711zm1.6258 2.4332-0.9239 0.3827zm0.5709 2.8701v1h1v-1zm-7 0v-1h-1v1zm0 13.5h-1v1h1zm7 0h1v-1h-1zm0 15v1h1v-1zm-7 0v-1h-1v1zm0 8h35v-2h-35zm36-1v-7h-2v7zm-1-6h7v-2h-7zm8-1v-15h-2v15zm-1-16h-7v2h7zm-6 1v-8.0167h-2v8.0167zm-0.9333-7.0189c1.4396-0.0962 2.8417-0.5582 4.068-1.3558l-1.0905-1.6766c-0.9378 0.61-2.0099 0.9633-3.1109 1.0369zm4.068-1.3558c1.741-1.1324 3.0071-2.8631 3.5593-4.8652l-1.928-0.5318c-0.4223 1.531-1.3905 2.8545-2.7218 3.7204zm2.8612-6.0951-6.73-1.8563-0.5318 1.928 6.73 1.8563zm-5.9959-0.8923v-0.2467h-2v0.2467zm-0.7873 0.7304 6.8284-1.4861-0.4253-1.9543-6.8285 1.4862zm7.5929-2.6759c-0.4417-2.0294-1.611-3.8268-3.2873-5.053l-1.1808 1.6142c1.2819 0.93764 2.1761 2.3122 2.5138 3.864zm-3.2873-5.053c-1.3078-0.95657-2.8534-1.5138-4.4516-1.6206l-0.1334 1.9956c1.2222 0.08167 2.4042 0.50779 3.4042 1.2393zm-3.5183-0.62278v-5.0167h-2v5.0167zm-1-6.0167h-35v2h35zm-36 1v7.0167h2v-7.0167zm0.9333 8.0145c0.7054 0.04713 1.3993 0.20907 2.0541 0.48032l0.7654-1.8478c-0.8564-0.35472-1.7638-0.56648-2.6861-0.62811zm2.0541 0.48032c0.7887 0.32666 1.5052 0.80542 2.1088 1.409l1.4142-1.4142c-0.7893-0.7893-1.7263-1.4154-2.7576-1.8426zm2.1088 1.409c0.6036 0.6036 1.0824 1.3201 1.409 2.1088l1.8478-0.7654c-0.4272-1.0313-1.0533-1.9683-1.8426-2.7576zm1.409 2.1088c0.3267 0.7886 0.4948 1.6338 0.4948 2.4874h2c0-1.1162-0.2199-2.2215-0.647-3.2528zm1.4948 1.4874h-7v2h7zm-8 1v13.5h2v-13.5zm1 14.5h7v-2h-7zm6-1v15h2v-15zm1 14h-7v2h7zm-8 1v7h2v-7z"/>
<path d="m47.121-27.111v-2.2592h7.1004v-17.428h-7.1004v-10.973h7.1004v-1.071c0-1.5798-0.8326-4.1064-1.7735-5.3817-0.97307-1.3189-3.185-2.8793-4.4394-3.1317-0.87186-0.17545-0.88755-0.22069-0.88755-2.5589v-2.3802h32.597v4.8412h0.90487c1.9676 0 6.2101 2.9952 5.3979 3.8108-0.12239 0.12291-1.5543 0.51524-3.182 0.87183-2.9254 0.6409-2.9606 0.66007-3.0585 1.6662-0.1089 1.1193-0.56884 0.89213 4.9402 2.4398l1.6137 0.45336-1.4524 1.472c-1.1937 1.2098-1.7829 1.5405-3.3081 1.8568l-1.8558 0.38478v9.9593h7.1004v12.91h-7.1004v6.7776h-32.597z" fill="#98bf40" stroke="#000" stroke-linecap="round" stroke-linejoin="round"/>
</g>
</g>
</g>
</svg>