<svg width="100%" height="100%" viewBox="0 0 42 50" fill="none" xmlns="http://www.w3.org/2000/svg">
<mask id="path-1-inside-1_15_941" fill="white">
<path fill-rule="evenodd" clip-rule="evenodd" d="M0 5.01667V0H35V5.01667C36.4102 5.11089 37.774 5.60256 38.9279 6.44658C40.407 7.52847 41.4388 9.11446 41.8285 10.9051L35 12.3912V12.6379L41.73 14.4942C41.2428 16.2608 40.1256 17.7878 38.5894 18.787C37.5074 19.4908 36.2703 19.8984 35 19.9833V28.0164C38.909 28.2737 42 31.5259 42 35.5C42 39.4741 38.909 42.7263 35 42.9836V50H0V43H7V28H0V19.9833C1.27028 19.8984 2.50741 19.4908 3.58942 18.787C5.12558 17.7878 6.24276 16.2608 6.73002 14.4942L0 12.6379V12.3912L6.82845 10.9051C6.43875 9.11446 5.40696 7.52847 3.92787 6.44658C2.774 5.60256 1.4102 5.11089 0 5.01667Z"/>
</mask>
<path d="M0 0V-2H-2V0H0ZM0 5.01667H-2V6.88749L-0.133338 7.01222L0 5.01667ZM35 0H37V-2H35V0ZM35 5.01667H33V6.88749L34.8667 7.01222L35 5.01667ZM38.9279 6.44658L37.7471 8.06082L37.7471 8.06082L38.9279 6.44658ZM41.8285 10.9051L42.2538 12.8593L44.208 12.434L43.7827 10.4798L41.8285 10.9051ZM35 12.3912L34.5747 10.4369L33 10.7796V12.3912H35ZM35 12.6379H33V14.1609L34.4682 14.5659L35 12.6379ZM41.73 14.4942L43.658 15.026L44.1898 13.098L42.2618 12.5662L41.73 14.4942ZM38.5894 18.787L37.4989 17.1105L37.4989 17.1105L38.5894 18.787ZM35 19.9833L34.8666 17.9878L33 18.1125V19.9833H35ZM35 28.0164H33V29.8891L34.8686 30.0121L35 28.0164ZM35 42.9836L34.8686 40.9879L33 41.1109V42.9836H35ZM35 50V52H37V50H35ZM0 50H-2V52H0V50ZM0 43V41H-2V43H0ZM7 43V45H9V43H7ZM7 28H9V26H7V28ZM0 28H-2V30H0V28ZM0 19.9833L-0.133365 17.9878L-2 18.1125V19.9833H0ZM3.58942 18.787L2.49891 17.1105L2.49891 17.1105L3.58942 18.787ZM6.73002 14.4942L8.65802 15.026L9.18981 13.098L7.26181 12.5662L6.73002 14.4942ZM0 12.6379H-2V14.1609L-0.531787 14.5659L0 12.6379ZM0 12.3912L-0.425313 10.4369L-2 10.7796V12.3912H0ZM6.82845 10.9051L7.25377 12.8593L9.20802 12.434L8.78271 10.4798L6.82845 10.9051ZM3.92787 6.44658L2.74711 8.06082L2.74711 8.06082L3.92787 6.44658ZM-2 0V5.01667H2V0H-2ZM35 -2H0V2H35V-2ZM37 5.01667V0H33V5.01667H37ZM40.1086 4.83233C38.647 3.76321 36.9195 3.14047 35.1333 3.02112L34.8667 7.01222C35.9009 7.08132 36.901 7.44191 37.7471 8.06082L40.1086 4.83233ZM43.7827 10.4798C43.2891 8.21165 41.9821 6.20273 40.1086 4.83233L37.7471 8.06082C38.8318 8.85421 39.5884 10.0173 39.8742 11.3304L43.7827 10.4798ZM35.4253 14.3454L42.2538 12.8593L41.4031 8.95082L34.5747 10.4369L35.4253 14.3454ZM37 12.6379V12.3912H33V12.6379H37ZM42.2618 12.5662L35.5318 10.7099L34.4682 14.5659L41.1982 16.4222L42.2618 12.5662ZM39.6799 20.4636C41.6257 19.1979 43.0408 17.2636 43.658 15.026L39.802 13.9624C39.4447 15.2579 38.6254 16.3777 37.4989 17.1105L39.6799 20.4636ZM35.1334 21.9789C36.7423 21.8714 38.3093 21.3551 39.6799 20.4636L37.4989 17.1105C36.7055 17.6266 35.7983 17.9255 34.8666 17.9878L35.1334 21.9789ZM37 28.0164V19.9833H33V28.0164H37ZM34.8686 30.0121C37.7333 30.2006 40 32.5864 40 35.5H44C44 30.4653 40.0847 26.3468 35.1314 26.0207L34.8686 30.0121ZM40 35.5C40 38.4136 37.7333 40.7994 34.8686 40.9879L35.1314 44.9793C40.0847 44.6532 44 40.5347 44 35.5H40ZM37 50V42.9836H33V50H37ZM0 52H35V48H0V52ZM-2 43V50H2V43H-2ZM7 41H0V45H7V41ZM5 28V43H9V28H5ZM0 30H7V26H0V30ZM-2 19.9833V28H2V19.9833H-2ZM2.49891 17.1105C1.70548 17.6266 0.798269 17.9255 -0.133365 17.9878L0.133365 21.9789C1.74228 21.8714 3.30935 21.3551 4.67994 20.4636L2.49891 17.1105ZM4.80201 13.9624C4.44469 15.2579 3.62543 16.3777 2.49891 17.1105L4.67994 20.4636C6.62574 19.1979 8.04083 17.2636 8.65802 15.026L4.80201 13.9624ZM-0.531787 14.5659L6.19823 16.4222L7.26181 12.5662L0.531787 10.7099L-0.531787 14.5659ZM-2 12.3912V12.6379H2V12.3912H-2ZM6.40314 8.95082L-0.425313 10.4369L0.425313 14.3454L7.25377 12.8593L6.40314 8.95082ZM2.74711 8.06082C3.83177 8.85421 4.58842 10.0173 4.8742 11.3304L8.78271 10.4798C8.28908 8.21165 6.98214 6.20273 5.10864 4.83233L2.74711 8.06082ZM-0.133338 7.01222C0.900861 7.08132 1.90098 7.44191 2.74711 8.06082L5.10864 4.83233C3.64702 3.76321 1.91954 3.14047 0.133338 3.02112L-0.133338 7.01222Z" fill="black" mask="url(#path-1-inside-1_15_941)"/>
</svg>
