<?xml version="1.0" encoding="UTF-8"?>
<svg width="100%" height="100%" version="1.1" viewBox="0 0 11.646 13.758" xmlns="http://www.w3.org/2000/svg">
<g transform="translate(-111.21 -125.26)">
<g transform="matrix(.26458 0 0 .26458 89.928 141.45)">
<path d="m114-27.087-6.0193 5.0562" fill="#98bf40"/>
<path d="m81.456-60.187v-1h-1v1zm0 5.0167h-1v0.93541l0.9333 0.06236zm35-5.0167h1v-1h-1zm0 5.0167h-1v0.93541l0.933 0.06236zm3.928 1.4299-0.591 0.80712zm2.9 4.4585 0.213 0.9771 0.977-0.2127-0.212-0.9771zm-6.828 1.4861-0.213-0.9771-0.787 0.1713v0.8058zm0 0.2467h-1v0.7615l0.734 0.2025zm6.73 1.8563 0.964 0.2659 0.266-0.964-0.964-0.2659zm-3.141 4.2928-0.545-0.8383zm-3.589 1.1963-0.067-0.9977-0.933 0.0623v0.9354zm0 8.0331h-1v0.9363l0.934 0.0615zm0 14.967-0.066-0.9978-0.934 0.0615v0.9363zm0 7.0164v1h1v-1zm-35 0h-1v1h1zm0-7v-1h-1v1zm7 0v1h1v-1zm0-15h1v-1h-1zm-7 0h-1v1h1zm0-8.0167-0.0667-0.9977-0.9333 0.0623v0.9354zm3.5894-1.1963-0.5452-0.8383zm3.1406-4.2928 0.964 0.2659 0.2659-0.964-0.964-0.2659zm-6.73-1.8563h-1v0.7615l0.7341 0.2025zm0-0.2467-0.2127-0.9771-0.7873 0.1713v0.8058zm6.8285-1.4861 0.2126 0.9771 0.9771-0.2127-0.2126-0.9771zm-2.9006-4.4585-0.5904 0.80712zm-4.9279-6.4466v5.0167h2v-5.0167zm36-1h-35v2h35zm1 6.0167v-5.0167h-2v5.0167zm3.518 0.62278c-1.307-0.95657-2.853-1.5138-4.451-1.6206l-0.134 1.9956c1.223 0.08167 2.404 0.50779 3.404 1.2393zm3.288 5.053c-0.442-2.0294-1.611-3.8268-3.288-5.053l-1.181 1.6142c1.282 0.93764 2.177 2.3122 2.514 3.864zm-7.593 2.6759 6.828-1.4861-0.425-1.9543-6.829 1.4862zm0.787-0.7304v-0.2467h-2v0.2467zm5.996 0.8923-6.73-1.8563-0.532 1.928 6.73 1.8563zm-2.861 6.0951c1.741-1.1324 3.007-2.8631 3.559-4.8652l-1.928-0.5318c-0.422 1.531-1.39 2.8545-2.722 3.7204zm-4.068 1.3558c1.439-0.0962 2.841-0.5582 4.068-1.3558l-1.091-1.6766c-0.938 0.61-2.01 0.9633-3.111 1.0369zm0.933 7.0353v-8.0331h-2v8.0331zm-1.066 0.9978c3.387 0.223 6.066 3.042 6.066 6.4858h2c0-4.5044-3.503-8.1898-7.934-8.4814zm6.066 6.4858c0 3.4438-2.679 6.2628-6.066 6.4858l0.132 1.9956c4.431-0.2916 7.934-3.977 7.934-8.4814zm-5 14.5v-7.0164h-2v7.0164zm-36 1h35v-2h-35zm-1-8v7h2v-7zm8-1h-7v2h7zm-1-14v15h2v-15zm-6 1h7v-2h-7zm-1-9.0167v8.0167h2v-8.0167zm4.0442-2.0346c-0.9378 0.61-2.0099 0.9633-3.1109 1.0369l0.1334 1.9955c1.4396-0.0962 2.8417-0.5582 4.068-1.3558zm2.7218-3.7204c-0.4223 1.531-1.3905 2.8545-2.7218 3.7204l1.0905 1.6766c1.741-1.1324 3.0071-2.8631 3.5593-4.8652zm-6.0319-0.6264 6.73 1.8563 0.5318-1.928-6.73-1.8563zm-0.7341-1.2107v0.2467h2v-0.2467zm7.6158-2.4633-6.8285 1.4862 0.4254 1.9542 6.8284-1.4861zm-3.2783-2.6742c1.2819 0.93764 2.1761 2.3122 2.5138 3.864l1.9543-0.4253c-0.4417-2.0294-1.611-3.8268-3.2873-5.053zm-3.4042-1.2393c1.2222 0.08167 2.4042 0.50779 3.4042 1.2393l1.1808-1.6142c-1.3078-0.95657-2.8534-1.5138-4.4516-1.6206z"/>
<path d="m82.487-13.554v-2.3236h6.9707v-17.427h-6.9707v-5.7488l1.406-0.46403c1.8668-0.61611 4.1088-2.6901 4.9682-4.596 0.87985-1.9512 0.61173-2.6347-1.1642-2.9678-1.5151-0.28424-1.1637-0.92204 0.51418-0.9333 3.1865-0.02139-0.40256-6.6666-4.2181-7.8097-1.3596-0.40734-1.5062-0.57724-1.5062-1.7454v-1.2941h32.88l0.1153 2.4152 0.11529 2.4152 1.3893 0.22442c1.5729 0.25408 3.635 1.5861 4.2582 2.7505 0.22982 0.42942 0.36016 0.82339 0.28966 0.8755-0.0705 0.05211-1.1738 0.31098-2.4518 0.57529-3.657 0.75634-3.679 0.76789-3.679 1.9393 0 1.1372 0.0852 1.1811 4.5496 2.3462 1.5979 0.417 1.6286 0.45462 1.0684 1.3095-0.74781 1.1413-3.3128 2.5757-4.6058 2.5757h-1.0122v10.357l1.5538 0.24847c3.4232 0.54739 6.012 4.4694 5.0562 7.6598-0.79172 2.6426-2.4705 4.0814-5.545 4.7526l-1.065 0.23248v6.9559h-32.917z" fill="#ed6644" stroke="#000" stroke-linecap="round" stroke-linejoin="round" stroke-width=".85197"/>
</g>
</g>
</svg>
