<?xml version="1.0" encoding="UTF-8"?>
<svg width="100%" height="100%" version="1.1" viewBox="0 0 11.906 13.758" xmlns="http://www.w3.org/2000/svg">
<g transform="translate(-118.64 -173.08)">
<g transform="matrix(.26458 0 0 .26458 137.99 190.08)" stroke-width=".8">
<path d="m-72.155-13.226h-1v1h1zm35 0v1h1v-1zm-35-7.0164-0.066-0.9978-0.934 0.0615v0.9363zm0-14.967h-1v0.9363l0.934 0.0615zm0-8.0331-0.067-0.9977-0.933 0.0623v0.9354zm3.589-1.1963-0.545-0.8383zm3.141-4.2928 0.964 0.2659 0.266-0.964-0.964-0.2659zm-6.73-1.8563h-1v0.7615l0.734 0.2025zm0-0.2467-0.213-0.9771-0.787 0.1713v0.8058zm6.828-1.4861 0.213 0.9771 0.977-0.2127-0.212-0.9771zm-2.9-4.4585-0.591 0.80712zm-3.928-1.4299h-1v0.93541l0.933 0.06236zm0-5.0167v-1h-1v1zm35 0h1v-1h-1zm0 7.0167h-1v1.069l1.067-0.07127zm3.37 0.55422-0.383 0.92388zm2.928 2.1712-0.773 0.6343zm1.558 3.2947-0.981 0.1951zm-0.179 3.6403 0.957 0.2903zm-1.874 3.1262-0.707 0.7071 0.707 0.7071 0.707-0.7071zm-5.303-5.3033 0.707-0.7071-0.293-0.2929h-0.414zm-0.5 0v-1h-1v1zm0 13.863h-1v0.5095l0.412 0.2995zm6.633 4.8191 0.951 0.309 0.224-0.691-0.587-0.427zm-2.725 8.3852v1h0.727l0.224-0.691zm-3.908 0v-1h-1v1zm-35 9.4324h35v-2h-35zm-1-8.0164v7.0164h2v-7.0164zm7-7.4836c0 3.4438-2.679 6.2628-6.066 6.4858l0.132 1.9956c4.431-0.2916 7.934-3.977 7.934-8.4814zm-6.066-6.4858c3.387 0.223 6.066 3.042 6.066 6.4858h2c0-4.5044-3.503-8.1898-7.934-8.4814zm-0.934-9.0309v8.0331h2v-8.0331zm4.044-2.0346c-0.938 0.61-2.01 0.9633-3.111 1.0369l0.134 1.9955c1.439-0.0962 2.841-0.5582 4.068-1.3558zm2.722-3.7204c-0.422 1.531-1.39 2.8545-2.722 3.7204l1.091 1.6766c1.741-1.1324 3.007-2.8631 3.559-4.8652zm-6.032-0.6264 6.73 1.8563 0.532-1.928-6.73-1.8563zm-0.734-1.2107v0.2467h2v-0.2467zm7.616-2.4633-6.829 1.4862 0.426 1.9542 6.828-1.4861zm-3.279-2.6742c1.282 0.93764 2.177 2.3122 2.514 3.864l1.955-0.4253c-0.442-2.0294-1.611-3.8268-3.288-5.053zm-3.404-1.2393c1.223 0.08167 2.404 0.50779 3.404 1.2393l1.181-1.6142c-1.307-0.95657-2.853-1.5138-4.451-1.6206zm-0.933-6.0144v5.0167h2v-5.0167zm36-1h-35v2h35zm1 8.0167v-7.0167h-2v7.0167zm-0.933 0.99778c0.996-0.0666 1.996 0.09737 2.92 0.48032l0.766-1.8478c-1.209-0.50078-2.516-0.7152-3.82-0.62811zm2.92 0.48032c0.988 0.40907 1.859 1.0553 2.538 1.8816l1.546-1.2687c-0.887-1.0806-2.027-1.9258-3.318-2.4607zm2.538 1.8816c0.678 0.8263 1.142 1.8071 1.35 2.8555l1.962-0.3902c-0.273-1.3709-0.88-2.6535-1.766-3.734zm1.35 2.8555c0.209 1.0484 0.155 2.132-0.155 3.155l1.914 0.5805c0.406-1.3376 0.475-2.7547 0.203-4.1257zm-0.155 3.155c-0.31 1.0229-0.868 1.9534-1.624 2.7093l1.414 1.4142c0.989-0.9884 1.718-2.2053 2.124-3.543zm-0.21 2.7093-5.303-5.3033-1.414 1.4142 5.303 5.3033zm-6.01-5.5962h-0.5v2h0.5zm0.5 14.863v-13.863h-2v13.863zm6.221 4.0101-6.633-4.8191-1.176 1.618 6.633 4.8191zm-2.362 9.5032 2.725-8.3852-1.902-0.618-2.725 8.3852zm-4.859 0.691h3.908v-2h-3.908zm1 7.4324v-8.4324h-2v8.4324z"/>
<path d="m-71.004-16.904c0-2.3382 0.01569-2.3834 0.88755-2.5589 0.48815-0.09823 1.5009-0.59125 2.2506-1.0956 3.5907-2.4156 4.8129-6.8344 3.0173-10.909-0.7438-1.688-3.1663-3.8864-4.833-4.3858l-1.3225-0.39623v-5.9278l1.3395-0.40133c1.9331-0.57918 4.6129-3.3496 5.2098-5.3861l0.46208-1.5765-3.6226-1.034 1.8494-0.42047c1.7491-0.39767 1.8396-0.4659 1.6689-1.2581-0.09926-0.46069-0.57167-1.6364-1.0498-2.6127-0.92334-1.8854-3.1658-3.7381-4.9584-4.0966-0.81903-0.16381-0.89893-0.30528-0.89893-1.5918v-1.412h32.597v6.9598l1.7028 0.02461c2.6716 0.03862 4.8007 1.5123 5.8646 4.0592 0.64251 1.5381 0.63428 2.8116-0.02889 4.469l-0.53012 1.3249-2.4624-2.448c-2.0466-2.0346-2.6383-2.448-3.5042-2.448h-1.0418v15.753l3.2453 2.3331c2.3423 1.6839 3.1919 2.4723 3.0534 2.8333-0.10556 0.27509-0.57521 1.7805-1.0436 3.3454l-0.85172 2.8453h-4.4034v8.3914h-32.597z" fill="#f5ba41" stroke="#000" stroke-linecap="round" stroke-linejoin="round"/>
</g>
</g>
</svg>
