<svg width="100%" height="100%" viewBox="0 0 43 50" fill="none" xmlns="http://www.w3.org/2000/svg">
<mask id="path-1-inside-1_15_899" fill="white">
<path fill-rule="evenodd" clip-rule="evenodd" d="M35 50H0V42.9836C3.90902 42.7263 7 39.4741 7 35.5C7 31.5259 3.90902 28.2737 0 28.0164V19.9833C1.27028 19.8984 2.50741 19.4908 3.58942 18.787C5.12558 17.7878 6.24276 16.2608 6.73002 14.4942L0 12.6379V12.3912L6.82845 10.9051C6.43875 9.11446 5.40696 7.52847 3.92787 6.44658C2.774 5.60256 1.4102 5.11089 0 5.01667V0H35V7.01668C36.15 6.93984 37.3034 7.12903 38.3701 7.5709C39.5096 8.0429 40.5151 8.78863 41.2976 9.74205C42.08 10.6955 42.6153 11.8271 42.8559 13.0368C43.0965 14.2465 43.0351 15.4969 42.6771 16.6771C42.319 17.8574 41.6754 18.9312 40.8033 19.8033L35.5 14.5H35V28.3633L41.6329 33.1824L38.9084 41.5676H35V50Z"/>
</mask>
<path d="M0 50H-2V52H0V50ZM35 50V52H37V50H35ZM0 42.9836L-0.131357 40.9879L-2 41.1109V42.9836H0ZM0 28.0164H-2V29.8891L-0.131357 30.0121L0 28.0164ZM0 19.9833L-0.133365 17.9878L-2 18.1125V19.9833H0ZM3.58942 18.787L2.49891 17.1105L2.49891 17.1105L3.58942 18.787ZM6.73002 14.4942L8.65802 15.026L9.18981 13.098L7.26181 12.5662L6.73002 14.4942ZM0 12.6379H-2V14.1609L-0.531787 14.5659L0 12.6379ZM0 12.3912L-0.425313 10.4369L-2 10.7796V12.3912H0ZM6.82845 10.9051L7.25377 12.8593L9.20802 12.434L8.78271 10.4798L6.82845 10.9051ZM3.92787 6.44658L2.74711 8.06082L2.74711 8.06082L3.92787 6.44658ZM0 5.01667H-2V6.88749L-0.133338 7.01222L0 5.01667ZM0 0V-2H-2V0H0ZM35 0H37V-2H35V0ZM35 7.01668H33V9.15478L35.1333 9.01223L35 7.01668ZM38.3701 7.5709L37.6048 9.41866L37.6048 9.41866L38.3701 7.5709ZM41.2976 9.74205L39.7516 11.0108L39.7516 11.0108L41.2976 9.74205ZM42.8559 13.0368L40.8943 13.427L40.8943 13.427L42.8559 13.0368ZM42.6771 16.6771L44.5909 17.2577L44.5909 17.2577L42.6771 16.6771ZM40.8033 19.8033L39.3891 21.2175L40.8033 22.6317L42.2175 21.2175L40.8033 19.8033ZM35.5 14.5L36.9142 13.0858L36.3284 12.5H35.5V14.5ZM35 14.5V12.5H33V14.5H35ZM35 28.3633H33V29.3823L33.8244 29.9813L35 28.3633ZM41.6329 33.1824L43.535 33.8004L43.9841 32.4184L42.8085 31.5643L41.6329 33.1824ZM38.9084 41.5676V43.5676H40.3615L40.8105 42.1857L38.9084 41.5676ZM35 41.5676V39.5676H33V41.5676H35ZM0 52H35V48H0V52ZM-2 42.9836V50H2V42.9836H-2ZM5 35.5C5 38.4136 2.73334 40.7994 -0.131357 40.9879L0.131357 44.9793C5.08469 44.6532 9 40.5347 9 35.5H5ZM-0.131357 30.0121C2.73334 30.2006 5 32.5864 5 35.5H9C9 30.4653 5.08469 26.3468 0.131357 26.0207L-0.131357 30.0121ZM-2 19.9833V28.0164H2V19.9833H-2ZM2.49891 17.1105C1.70548 17.6266 0.798269 17.9255 -0.133365 17.9878L0.133365 21.9789C1.74228 21.8714 3.30935 21.3551 4.67994 20.4636L2.49891 17.1105ZM4.80201 13.9624C4.44469 15.2579 3.62543 16.3777 2.49891 17.1105L4.67994 20.4636C6.62574 19.1979 8.04083 17.2636 8.65802 15.026L4.80201 13.9624ZM-0.531787 14.5659L6.19823 16.4222L7.26181 12.5662L0.531787 10.7099L-0.531787 14.5659ZM-2 12.3912V12.6379H2V12.3912H-2ZM6.40314 8.95082L-0.425313 10.4369L0.425313 14.3454L7.25377 12.8593L6.40314 8.95082ZM2.74711 8.06082C3.83177 8.85421 4.58842 10.0173 4.8742 11.3304L8.78271 10.4798C8.28908 8.21165 6.98214 6.20273 5.10864 4.83233L2.74711 8.06082ZM-0.133338 7.01222C0.900861 7.08132 1.90098 7.44191 2.74711 8.06082L5.10864 4.83233C3.64702 3.76321 1.91954 3.14047 0.133338 3.02112L-0.133338 7.01222ZM-2 0V5.01667H2V0H-2ZM35 -2H0V2H35V-2ZM37 7.01668V0H33V7.01668H37ZM35.1333 9.01223C35.9767 8.95589 36.8225 9.09463 37.6048 9.41866L39.1355 5.72314C37.7842 5.16344 36.3233 4.9238 34.8667 5.02113L35.1333 9.01223ZM37.6048 9.41866C38.4404 9.76479 39.1778 10.3117 39.7516 11.0108L42.8436 8.47327C41.8525 7.2656 40.5789 6.321 39.1355 5.72314L37.6048 9.41866ZM39.7516 11.0108C40.3254 11.71 40.7179 12.5399 40.8943 13.427L44.8175 12.6466C44.5127 11.1144 43.8347 9.68093 42.8436 8.47326L39.7516 11.0108ZM40.8943 13.427C41.0708 14.3141 41.0257 15.231 40.7632 16.0966L44.5909 17.2577C45.0444 15.7627 45.1222 14.1789 44.8175 12.6466L40.8943 13.427ZM40.7632 16.0966C40.5006 16.9621 40.0287 17.7495 39.3891 18.3891L42.2175 21.2175C43.3222 20.1128 44.1374 18.7527 44.5909 17.2577L40.7632 16.0966ZM42.2175 18.3891L36.9142 13.0858L34.0858 15.9142L39.3891 21.2175L42.2175 18.3891ZM35.5 12.5H35V16.5H35.5V12.5ZM37 28.3633V14.5H33V28.3633H37ZM42.8085 31.5643L36.1756 26.7452L33.8244 29.9813L40.4574 34.8004L42.8085 31.5643ZM40.8105 42.1857L43.535 33.8004L39.7308 32.5643L37.0063 40.9496L40.8105 42.1857ZM35 43.5676H38.9084V39.5676H35V43.5676ZM37 50V41.5676H33V50H37Z" fill="black" mask="url(#path-1-inside-1_15_899)"/>
</svg>
