<?xml version="1.0" encoding="UTF-8"?>
<svg width="100%" height="100%" version="1.1" viewBox="0 0 12.187 13.758" xmlns="http://www.w3.org/2000/svg">
<g transform="translate(-35.436 -161.76)">
<g transform="matrix(.26458 0 0 .26458 49.227 156.94)" stroke-width=".8">
<path d="m-51.12 63.717-0.70418-0.71-0.29582 0.2934v0.4166zm9.3848-9.3076 0.7042 0.71 0.7203-0.7144-0.7248-0.71zm-9.3848 14.808h-1v1h1zm35 0v1h1v-1zm0-6.1476-0.7042-0.7101-0.2958 0.2934v0.4167zm8.6348-8.5638 0.7042 0.71 0.7203-0.7145-0.7248-0.7099zm-8.6348-8.4578h-1v0.4203l0.3003 0.2941zm0-12.331v-1h-1v1zm7 0v1h1v-1zm-0.5709-2.8701-0.9239 0.3827zm-1.6258-2.4332 0.7071-0.70711zm-2.4332-1.6258 0.3827-0.92388zm-2.3701-0.55421h-1v0.93541l0.9333 0.06236zm0-7.0167h1v-1h-1zm-35 0v-1h-1v1zm0 4.0164h-1v0.93635l0.93432 0.06149zm0 14.967-0.06568-0.9978-0.93432 0.0615v0.9363zm0 7.0164h-1v0.4203l0.30025 0.2941zm0.70418 19.21 9.3848-9.3076-1.4084-1.42-9.3848 9.3076zm0.29582 4.79v-5.5h-2v5.5zm34-1h-35v2h35zm-1-5.1476v6.1476h2v-6.1476zm8.9306-9.2738-8.6348 8.5637 1.4084 1.4201 8.6348-8.5638zm-8.6303-7.0334 8.6347 8.4578 1.3995-1.4288-8.6348-8.4578zm-0.3003-13.045v12.331h2v-12.331zm8-1h-7v2h7zm-1.4948-1.4874c0.3267 0.7886 0.4948 1.6338 0.4948 2.4874h2c0-1.1162-0.2199-2.2215-0.647-3.2528zm-1.409-2.1088c0.6036 0.6036 1.0824 1.3201 1.409 2.1088l1.8478-0.7654c-0.4272-1.0313-1.0533-1.9683-1.8426-2.7576zm-2.1088-1.409c0.7887 0.32666 1.5052 0.80542 2.1088 1.409l1.4142-1.4142c-0.7893-0.7893-1.7263-1.4154-2.7576-1.8426zm-2.0541-0.48032c0.7054 0.04713 1.3993 0.20907 2.0541 0.48032l0.7654-1.8478c-0.8564-0.35472-1.7638-0.56648-2.6861-0.62811zm-0.9333-8.0145v7.0167h2v-7.0167zm-34 1h35v-2h-35zm1 3.0164v-4.0164h-2v4.0164zm7 7.4836c0-4.5044-3.5031-8.1898-7.9343-8.4814l-0.13136 1.9957c3.3869 0.22293 6.0657 3.0419 6.0657 6.4858zm-7.9343 8.4814c4.4312-0.2916 7.9343-3.977 7.9343-8.4814h-2c0 3.4438-2.6788 6.2628-6.0657 6.4858zm0.93432 6.0186v-7.0164h-2v7.0164zm9.0845 8.478-9.3848-9.1924-1.3995 1.4288 9.3848 9.1924z"/>
<path d="m-49.97 66.057v-2.0028l9.8998-9.5525-9.8998-9.8173v-5.4204l1.1293-0.3848c3.5342-1.2042 5.7372-4.3244 5.7465-8.1386 0.0082-3.4156-1.6842-6.2205-4.6464-7.7008-0.85312-0.42631-1.7037-0.7751-1.8902-0.7751-0.22695 0-0.3391-0.33473-0.3391-1.012v-1.012h32.638v7.0138l1.2478 0.14778c2.1772 0.25785 4.1816 1.6683 5.1757 3.6421 0.79595 1.5803 0.77026 1.5939-3.0078 1.5939h-3.4157v13.795l8.0965 8.0847-8.0965 8.1077v5.4342h-32.638z" fill="#ed6644" stroke="#000" stroke-linecap="round" stroke-linejoin="round"/>
</g>
</g>
</svg>
