<?xml version="1.0" encoding="UTF-8"?>
<svg width="100%" height="100%" version="1.1" viewBox="0 0 11.672 14.246" xmlns="http://www.w3.org/2000/svg">
<g transform="translate(-73.448 -153.96)">
<path d="m73.753 167.26c0-0.62767 0.02253-0.66215 1.2774-1.9545l1.2774-1.3156-2.5547-2.4601v-3.0824h1.8423v-0.51884c0-0.81388-0.50316-1.646-1.2261-2.0277-0.60594-0.31995-0.61617-0.33625-0.61617-0.98221v-0.65687h9.08v1.0127c0 0.96 0.0154 1.0127 0.29608 1.0132 0.4372 7.4e-4 1.1094 0.4696 1.3458 0.93867l0.20716 0.41104h-1.8559l0.03633 2.0454 0.03632 2.0454 0.82706 0.23214c0.45488 0.12768 0.84657 0.25534 0.87043 0.28369 0.02384 0.0283 0.08305 0.37053 0.13153 0.76041l0.08816 0.70885h-0.7283c-0.40057 0-0.7283 0.0273-0.7283 0.0608 0 0.0334 0.23244 0.61063 0.51654 1.2827l0.51654 1.222h-1.5594v1.6202h-9.08z" fill="#459dd7" stroke="#000" stroke-linecap="round" stroke-linejoin="round" stroke-width=".60854"/>
</g>
</svg>
