<svg width="100%" height="100%" viewBox="0 0 43 50" fill="none" xmlns="http://www.w3.org/2000/svg">
<mask id="path-1-inside-1_15_834" fill="white">
<path fill-rule="evenodd" clip-rule="evenodd" d="M0 7.01668V0H35V4H42V19H35V26.2931L41.5 28L42.5 35.2886H37.5L41.5 44.5962H35V50H0V44.5962H6.5L2.5 35.2886H7.5L6.5 28L0 26.2931V14.5L7 14.5C7 13.5151 6.80601 12.5398 6.4291 11.6299C6.05219 10.7199 5.49974 9.89314 4.8033 9.1967C4.10686 8.50026 3.28007 7.94781 2.37012 7.5709C1.61451 7.25791 0.813831 7.07106 0 7.01668Z"/>
</mask>
<path d="M0 0V-2H-2V0H0ZM0 7.01668H-2V8.88751L-0.133333 9.01224L0 7.01668ZM35 0H37V-2H35V0ZM35 4H33V6H35V4ZM42 4H44V2H42V4ZM42 19V21H44V19H42ZM35 19V17H33V19H35ZM35 26.2931H33V27.8358L34.492 28.2276L35 26.2931ZM41.5 28L43.4814 27.7281L43.2999 26.4048L42.008 26.0656L41.5 28ZM42.5 35.2886V37.2886H44.7931L44.4814 35.0167L42.5 35.2886ZM37.5 35.2886V33.2886H34.4636L35.6625 36.0783L37.5 35.2886ZM41.5 44.5962V46.5962H44.5364L43.3375 43.8065L41.5 44.5962ZM35 44.5962V42.5962H33V44.5962H35ZM35 50V52H37V50H35ZM0 50H-2V52H0V50ZM0 44.5962V42.5962H-2V44.5962H0ZM6.5 44.5962V46.5962H9.53638L8.3375 43.8065L6.5 44.5962ZM2.5 35.2886V33.2886H-0.536381L0.662499 36.0783L2.5 35.2886ZM7.5 35.2886V37.2886H9.79314L9.48144 35.0167L7.5 35.2886ZM6.5 28L8.48144 27.7281L8.29988 26.4048L7.00797 26.0656L6.5 28ZM0 26.2931H-2V27.8358L-0.507967 28.2276L0 26.2931ZM0 14.5L2.72478e-07 12.5L-2 12.5V14.5H0ZM7 14.5L7 16.5L9 16.5V14.5H7ZM6.4291 11.6299L4.58134 12.3952L4.58134 12.3952L6.4291 11.6299ZM4.8033 9.1967L6.21752 7.78249L6.21751 7.78248L4.8033 9.1967ZM2.37012 7.5709L1.60475 9.41866L1.60476 9.41866L2.37012 7.5709ZM-2 0V7.01668H2V0H-2ZM35 -2H0V2H35V-2ZM37 4V0H33V4H37ZM35 6H42V2H35V6ZM40 4V19H44V4H40ZM42 17H35V21H42V17ZM37 26.2931V19H33V26.2931H37ZM42.008 26.0656L35.508 24.3587L34.492 28.2276L40.992 29.9344L42.008 26.0656ZM44.4814 35.0167L43.4814 27.7281L39.5186 28.2719L40.5186 35.5604L44.4814 35.0167ZM37.5 37.2886H42.5V33.2886H37.5V37.2886ZM43.3375 43.8065L39.3375 34.4989L35.6625 36.0783L39.6625 45.3859L43.3375 43.8065ZM35 46.5962H41.5V42.5962H35V46.5962ZM37 50V44.5962H33V50H37ZM0 52H35V48H0V52ZM-2 44.5962V50H2V44.5962H-2ZM6.5 42.5962H0V46.5962H6.5V42.5962ZM0.662499 36.0783L4.6625 45.3859L8.3375 43.8065L4.3375 34.4989L0.662499 36.0783ZM7.5 33.2886H2.5V37.2886H7.5V33.2886ZM4.51856 28.2719L5.51856 35.5604L9.48144 35.0167L8.48144 27.7281L4.51856 28.2719ZM-0.507967 28.2276L5.99203 29.9344L7.00797 26.0656L0.507967 24.3587L-0.507967 28.2276ZM-2 14.5V26.2931H2V14.5H-2ZM7 12.5L2.72478e-07 12.5L-2.72478e-07 16.5L7 16.5L7 12.5ZM4.58134 12.3952C4.85774 13.0625 5 13.7777 5 14.5H9C9 13.2524 8.75428 12.0171 8.27685 10.8645L4.58134 12.3952ZM3.38909 10.6109C3.89981 11.1216 4.30493 11.7279 4.58134 12.3952L8.27685 10.8645C7.79944 9.71192 7.09967 8.66464 6.21752 7.78249L3.38909 10.6109ZM1.60476 9.41866C2.27205 9.69506 2.87837 10.1002 3.38909 10.6109L6.21751 7.78248C5.33536 6.90033 4.28809 6.20056 3.13549 5.72314L1.60476 9.41866ZM-0.133333 9.01224C0.463478 9.05211 1.05064 9.18914 1.60475 9.41866L3.13549 5.72315C2.17837 5.32669 1.16418 5.09001 0.133333 5.02113L-0.133333 9.01224Z" fill="black" mask="url(#path-1-inside-1_15_834)"/>
</svg>
