<?xml version="1.0" encoding="UTF-8"?>
<svg width="100%" height="100%" version="1.1" viewBox="0 0 11.813 13.758" xmlns="http://www.w3.org/2000/svg">
<g transform="translate(-108.61 -135.33)">
<g transform="matrix(.26458 0 0 .26458 89.84 151)" stroke-width=".8">
<path d="m71.961-58.221v-1h-1v1zm0 7.0167h-1v0.93542l0.9333 0.06236zm35-7.0167h1v-1h-1zm0 4h-1v1h1zm7 0h1v-1h-1zm0 15v1h1v-1zm-7 0v-1h-1v1zm0 7.2931h-1v0.7713l0.746 0.1959zm6.5 1.7069 0.991-0.1359-0.091-0.6617-0.646-0.1696zm1 7.2886v1h1.147l-0.156-1.1359zm-5 0v-1h-1.518l0.599 1.3948zm4 9.3076v1h1.518l-0.599-1.3948zm-6.5 0v-1h-1v1zm0 5.4038v1h1v-1zm-35 0h-1v1h1zm0-5.4038v-1h-1v1zm6.5 0v1h1.5182l-0.5994-1.3948zm-4-9.3076v-1h-1.5182l0.5994 1.3948zm5 0v1h1.1466l-0.1559-1.1359zm-1-7.2886 0.9907-0.1359-0.0908-0.6617-0.6459-0.1696zm-6.5-1.7069h-1v0.7713l0.746 0.1959zm0-11.793v-1h-1v1zm7 0v1h1v-1zm-0.5709-2.8701-0.9239 0.3827zm-1.6258-2.4332 0.7071-0.70711zm-2.4332-1.6258-0.3827 0.92388zm-3.3701-7.5709v7.0167h2v-7.0167zm36-1h-35v2h35zm1 5v-4h-2v4zm-1 1h7v-2h-7zm6-1v15h2v-15zm1 14h-7v2h7zm-6 8.2931v-7.2931h-2v7.2931zm5.754 0.7397-6.5-1.7069-0.508 1.9344 6.5 1.7069zm1.737 8.1199-1-7.2886-1.982 0.2718 1 7.2886zm-5.991 1.1359h5v-2h-5zm4.919 7.9128-4-9.3077-1.838 0.7897 4 9.3076zm-7.419 1.3948h6.5v-2h-6.5zm1 4.4038v-5.4038h-2v5.4038zm-36 1h35v-2h-35zm-1-6.4038v5.4038h2v-5.4038zm7.5-1h-6.5v2h6.5zm-4.9188-7.9128 4 9.3076 1.8376-0.7896-4-9.3077zm5.9188-1.3948h-5v2h5zm-1.9907-6.1527 1 7.2886 1.9814-0.2718-1-7.2886zm-5.7633-0.8756 6.5 1.7069 0.508-1.9344-6.5-1.7069zm-0.746-12.76v11.793h2v-11.793zm8-1h-7v2h7zm-1.4948-1.4874c0.3267 0.7886 0.4948 1.6338 0.4948 2.4874h2c0-1.1162-0.2199-2.2215-0.647-3.2528zm-1.409-2.1088c0.6036 0.6036 1.0824 1.3201 1.409 2.1088l1.8478-0.7654c-0.4272-1.0313-1.0533-1.9683-1.8426-2.7576zm-2.1088-1.409c0.7887 0.32666 1.5052 0.80542 2.1088 1.409l1.4142-1.4142c-0.7893-0.7893-1.7263-1.4154-2.7576-1.8426zm-2.0541-0.48032c0.7054 0.04713 1.3993 0.20907 2.0541 0.48032l0.7654-1.8478c-0.8564-0.35472-1.7638-0.56648-2.6861-0.62811z"/>
<path d="m73.142-10.988v-1.6272l6.9338-0.11962-3.8228-8.9251 4.525-0.12374-0.12187-0.70003c-0.06703-0.38501-0.35876-2.4538-0.64828-4.5973-0.28953-2.1435-0.62706-3.9595-0.75008-4.0355-0.12301-0.07603-1.5494-0.47635-3.1697-0.8896l-2.946-0.75137v-9.909h7.0291l-0.12391-1.478c-0.30415-3.6279-2.4478-6.5361-5.6474-7.6618l-1.1489-0.4042-0.1231-4.8233h32.667v3.9183h6.9659v12.843h-6.9746l0.0588 4.6141 0.0587 4.6141 6.5709 1.7078 0.27132 2.0966c0.14922 1.1531 0.32381 2.366 0.38798 2.6952l0.11668 0.59864h-5.4596l1.9407 4.5055c1.0674 2.478 1.9407 4.5351 1.9407 4.5714 0 0.03627-1.3224 0.06594-2.9388 0.06594h-2.9388v5.4421h-32.653z" fill="#f5ba41" stroke="#000" stroke-linecap="round" stroke-linejoin="round"/>
</g>
</g>
</svg>

