<?xml version="1.0" encoding="UTF-8"?>
<svg width="100%" height="100%" version="1.1" viewBox="0 0 12.176 13.758" xmlns="http://www.w3.org/2000/svg">
<g transform="translate(-107.17 -159.24)">
<g transform="matrix(.26458 0 0 .26458 64.29 158.62)" stroke-width=".8">
<path d="m163.08 53.359h-1v1h1zm35 0v1h1v-1zm-35-5.4038v-1h-1v1zm6.5 0v1h1.518l-0.599-1.3948zm-4-9.3076v-1h-1.518l0.599 1.3948zm5 0v1h1.147l-0.156-1.1359zm-1-7.2886 0.991-0.1359-0.091-0.6617-0.646-0.1696zm-6.5-1.7069h-1v0.7713l0.746 0.1959zm0-7.2931v-1h-1v1zm7 0v1h1v-1zm0-15h1v-1h-1zm-7 0h-1v1h1zm0-4v-1h-1v1zm35 0h1v-1h-1zm0 4h-1v1h1zm7 0h1v-1h-1zm0 15v1h1v-1zm-7 0v-1h-1v1zm0 9.1515h-1v1.2247l1.2-0.2449zm0.8-0.1188-0.093-0.9956zm8.028 5.8724 0.213 0.9771 0.977-0.2127-0.212-0.9771zm-7.328 1.5949-0.213-0.9771-0.053 1.9411zm7.23 1.9942 0.964 0.2659 0.266-0.964-0.964-0.2659zm-3.141 4.2928-0.545-0.8383zm-5.197 1.1307-0.148 0.989zm-0.392-0.0692 0.2-0.9798-1.2-0.2449v1.2247zm-35 8.1515h35v-2h-35zm-1-6.4038v5.4038h2v-5.4038zm7.5-1h-6.5v2h6.5zm-4.919-7.9128 4 9.3076 1.838-0.7896-4-9.3077zm5.919-1.3948h-5v2h5zm-1.991-6.1527 1 7.2886 1.982-0.2718-1-7.2886zm-5.763-0.8756 6.5 1.7069 0.508-1.9344-6.5-1.7069zm-0.746-8.2603v7.2931h2v-7.2931zm8-1h-7v2h7zm-1-14v15h2v-15zm-6 1h7v-2h-7zm-1-5v4h2v-4zm36-1h-35v2h35zm1 5v-4h-2v4zm6-1h-7v2h7zm1 16v-15h-2v15zm-8 1h7v-2h-7zm1 8.1515v-9.1515h-2v9.1515zm-0.8 0.9798c0.228-0.0466 0.46-0.081 0.694-0.1029l-0.187-1.9913c-0.306 0.0286-0.609 0.0737-0.907 0.1346zm0.694-0.1029c1.581-0.1482 3.162 0.2877 4.443 1.2253l1.181-1.6142c-1.676-1.2262-3.743-1.7962-5.811-1.6024zm4.443 1.2253c1.282 0.9376 2.177 2.3122 2.514 3.864l1.955-0.4253c-0.442-2.0294-1.611-3.8268-3.288-5.0529zm3.279 2.6742-7.329 1.595 0.426 1.9542 7.328-1.5949zm-7.382 3.5361 7.23 1.9942 0.532-1.928-7.23-1.9942zm6.532 0.7643c-0.422 1.531-1.39 2.8545-2.722 3.7204l1.091 1.6766c1.741-1.1324 3.007-2.8631 3.559-4.8652zm-2.722 3.7204c-1.331 0.866-2.933 1.2146-4.504 0.98l-0.296 1.978c2.054 0.3069 4.15-0.149 5.891-1.2814zm-4.504 0.98c-0.114-0.0171-0.228-0.0371-0.34-0.06l-0.4 1.9596c0.147 0.03 0.295 0.0562 0.444 0.0784zm0.46 8.0713v-7.1515h-2v7.1515z"/>
<path d="m164.13 50.612v-1.6326h3.483c1.9156 0 3.483-0.077 3.483-0.1711 0-0.09411-0.83265-2.1089-1.8503-4.4774-1.0177-2.3684-1.8503-4.3486-1.8503-4.4003 0-0.05172 0.97958-0.09403 2.1768-0.09403 2.0883 0 2.1769-0.0192 2.1769-0.47219 0-0.55968-1.119-8.7459-1.2102-8.8536-0.0346-0.0408-1.4662-0.44253-3.1814-0.89273l-3.1186-0.81855-0.1222-5.2893h6.9793v-17.197h-6.9659v-1.9592h32.871v4.136h6.9659v12.843h-6.9659v5.792c0 4.7585 0.0522 5.7719 0.2924 5.6798 0.16082-0.06171 0.83609-0.18014 1.5006-0.26316 2.1424-0.26768 4.5443 0.76927 5.8953 2.5452 0.97669 1.2839 0.97604 1.2844-2.355 2.0148l-3.0476 0.66822v2.1692l2.1769 0.60589c1.1973 0.33324 2.5447 0.70587 2.9943 0.82807 0.80554 0.21895 0.81293 0.23075 0.50836 0.81213-1.1602 2.2146-4.38 3.4686-7.2577 2.8267l-0.70747-0.15782v7.3904h-32.871z" fill="#98bf40" stroke="#000" stroke-linecap="round" stroke-linejoin="round"/>
</g>
</g>
</svg>
