<svg width="100%" height="100%" viewBox="0 0 44 50" fill="none" xmlns="http://www.w3.org/2000/svg">
<mask id="path-1-inside-1_15_795" fill="white">
<path fill-rule="evenodd" clip-rule="evenodd" d="M35 50H0V44.5962H6.5L2.5 35.2886H7.5L6.5 28L0 26.2931V19H7V4H0V0H35V4H42V19H35V28.1515C35.2633 28.0978 35.5304 28.058 35.8002 28.0327C37.6248 27.8617 39.4488 28.3647 40.9279 29.4466C42.407 30.5285 43.4388 32.1145 43.8285 33.9051L36.5 35.5L43.73 37.4942C43.2428 39.2608 42.1256 40.7878 40.5894 41.787C39.0533 42.7862 37.2044 43.1884 35.392 42.9177C35.2604 42.8981 35.1297 42.875 35 42.8485V50Z"/>
</mask>
<path d="M0 50H-2V52H0V50ZM35 50V52H37V50H35ZM0 44.5962V42.5962H-2V44.5962H0ZM6.5 44.5962V46.5962H9.53638L8.3375 43.8065L6.5 44.5962ZM2.5 35.2886V33.2886H-0.536381L0.662499 36.0783L2.5 35.2886ZM7.5 35.2886V37.2886H9.79314L9.48144 35.0167L7.5 35.2886ZM6.5 28L8.48144 27.7281L8.29988 26.4048L7.00797 26.0656L6.5 28ZM0 26.2931H-2V27.8358L-0.507967 28.2276L0 26.2931ZM0 19V17H-2V19H0ZM7 19V21H9V19H7ZM7 4H9V2H7V4ZM0 4H-2V6H0V4ZM0 0V-2H-2V0H0ZM35 0H37V-2H35V0ZM35 4H33V6H35V4ZM42 4H44V2H42V4ZM42 19V21H44V19H42ZM35 19V17H33V19H35ZM35 28.1515H33V30.601L35.4 30.1111L35 28.1515ZM35.8002 28.0327L35.6136 26.0414L35.6136 26.0414L35.8002 28.0327ZM43.8285 33.9051L44.2538 35.8593L46.208 35.434L45.7827 33.4798L43.8285 33.9051ZM36.5 35.5L36.0747 33.5457L35.9682 37.428L36.5 35.5ZM43.73 37.4942L45.658 38.026L46.1898 36.098L44.2618 35.5662L43.73 37.4942ZM40.5894 41.787L39.4989 40.1105L39.4989 40.1105L40.5894 41.787ZM35.392 42.9177L35.0965 44.8958L35.0965 44.8958L35.392 42.9177ZM35 42.8485L35.3999 40.8889L33 40.3991V42.8485H35ZM0 52H35V48H0V52ZM-2 44.5962V50H2V44.5962H-2ZM6.5 42.5962H0V46.5962H6.5V42.5962ZM0.662499 36.0783L4.6625 45.3859L8.3375 43.8065L4.3375 34.4989L0.662499 36.0783ZM7.5 33.2886H2.5V37.2886H7.5V33.2886ZM4.51856 28.2719L5.51856 35.5604L9.48144 35.0167L8.48144 27.7281L4.51856 28.2719ZM-0.507967 28.2276L5.99203 29.9344L7.00797 26.0656L0.507967 24.3587L-0.507967 28.2276ZM-2 19V26.2931H2V19H-2ZM7 17H0V21H7V17ZM5 4V19H9V4H5ZM0 6H7V2H0V6ZM-2 0V4H2V0H-2ZM35 -2H0V2H35V-2ZM37 4V0H33V4H37ZM42 2H35V6H42V2ZM44 19V4H40V19H44ZM35 21H42V17H35V21ZM37 28.1515V19H33V28.1515H37ZM35.4 30.1111C35.593 30.0717 35.7889 30.0425 35.9868 30.024L35.6136 26.0414C35.2719 26.0735 34.9336 26.1238 34.6 26.1919L35.4 30.1111ZM35.9868 30.024C37.3248 29.8986 38.6624 30.2674 39.7471 31.0608L42.1086 27.8323C40.2351 26.4619 37.9247 25.8249 35.6136 26.0414L35.9868 30.024ZM39.7471 31.0608C40.8318 31.8542 41.5884 33.0173 41.8742 34.3304L45.7827 33.4798C45.2891 31.2116 43.9821 29.2027 42.1086 27.8323L39.7471 31.0608ZM43.4031 31.9508L36.0747 33.5457L36.9253 37.4543L44.2538 35.8593L43.4031 31.9508ZM35.9682 37.428L43.1982 39.4222L44.2618 35.5662L37.0318 33.572L35.9682 37.428ZM41.802 36.9624C41.4447 38.2579 40.6254 39.3777 39.4989 40.1105L41.6799 43.4636C43.6257 42.1979 45.0408 40.2636 45.658 38.026L41.802 36.9624ZM39.4989 40.1105C38.3724 40.8432 37.0166 41.1382 35.6875 40.9397L35.0965 44.8958C37.3923 45.2387 39.7341 44.7292 41.6799 43.4636L39.4989 40.1105ZM35.6875 40.9397C35.591 40.9252 35.4951 40.9083 35.3999 40.8889L34.6001 44.8081C34.7644 44.8416 34.9299 44.8709 35.0965 44.8958L35.6875 40.9397ZM37 50V42.8485H33V50H37Z" fill="black" mask="url(#path-1-inside-1_15_795)"/>
</svg>
