<?xml version="1.0" encoding="UTF-8"?>
<svg width="100%" height="100%" version="1.1" viewBox="0 0 3.7456 3.767" xmlns="http://www.w3.org/2000/svg">
<g transform="translate(-88.209 -136.96)">
<g transform="matrix(.26458 0 0 .26458 94.227 134.91)" fill="#ed6644">
<rect x="-12.26" y="11.389" width="3.4096" height="6.6741" stroke="#000" stroke-linecap="round" stroke-linejoin="round" stroke-width=".526"/>
<rect x="-22.481" y="8.0197" width="11.558" height="13.711" stroke="#000" stroke-linecap="round" stroke-linejoin="round" stroke-width=".526"/>
<path d="m-11.454 13.279c0.05904 0.0064 0.16302 0.01499 0.22032 0.02614 0.0224 0.0044 0.0359 0.0084 0.04339 0.01127 0.0064 0.0024 0.0058 0.0029 0.0018 1.02e-4 -0.01004-0.0071-0.01983-0.01454-0.02934-0.02233-0.0288-0.0236-0.04656-0.04946-0.05593-0.06705-0.0056-0.01051-0.0073-0.01601-0.0074-0.01619-4.1e-5 -1.21e-4 6.29e-4 0.0019 0.0018 0.0064 0.0034 0.01369 0.0068 0.03172 0.01379 0.07369 0.0049 0.0297 0.01329 0.08263 0.02552 0.13629 0.02866 0.14478 0.06086 0.25282 0.08542 0.3262a0.51393 0.51393 90 0 0 0.97469-0.32629c-0.0134-0.04001-0.0339-0.10742-0.05306-0.20581-0.0014-0.0069-0.0028-0.01387-0.0045-0.02075-0.0036-0.0151-0.0069-0.03413-0.01401-0.07739-0.0066-0.04009-0.01595-0.09636-0.03081-0.15568-0.0065-0.02589-0.01412-0.05285-0.02331-0.08054-0.01395-0.04201-0.03328-0.09118-0.06082-0.14292-0.04371-0.08213-0.1073-0.16912-0.1999-0.245-0.0095-0.0078-0.0193-0.01524-0.02934-0.02233-0.07753-0.05474-0.15659-0.09372-0.23152-0.12202-0.0768-0.029-0.14942-0.0468-0.21018-0.05862-0.16624-0.03234-0.26148-0.03423-0.30504-0.03898a0.51393 0.51393 90 0 0-0.11157 1.0218z"/>
<path d="m-11.658 13.295c9e-3 0.09697 0.0044 0.30263-0.01298 0.61667-0.01276 0.22982-0.0241 0.52013 0.04221 0.82294 4.12e-4 0.0019 8.28e-4 0.0038 0.0012 0.0057 0.01329 0.05988 0.0297 0.1202 0.06295 0.17173 0.03326 0.05154 0.08146 0.09133 0.13054 0.12812 0.0036 0.0027 0.0074 0.0062 0.01195 0.01304 0.0045 0.0068 0.01139 0.01919 0.01842 0.04143 0.01413 0.04468 0.02327 0.1127 0.01904 0.20377-0.0053 0.10196-0.02675 0.20486-0.04999 0.35984-0.01283 0.08551-0.02299 0.16937-0.02741 0.25626-0.0062 0.12215 4.99e-4 0.22266 0.01266 0.30708a0.51393 0.51393 90 0 0 1.0174-0.14655c-3e-3 -0.02076-0.0062-0.05465-0.0035-0.1082 0.0021-0.04101 0.0073-0.08878 0.01737-0.1561 0.01266-0.08439 0.05125-0.29074 0.06012-0.46181 0.0082-0.17503-0.0046-0.37133-0.06566-0.5643-0.03329-0.10524-0.07997-0.20635-0.14209-0.29992-0.02501-0.03767-0.05167-0.07284-0.07969-0.10561-0.01128-0.1191-0.0081-0.2518 7.45e-4 -0.4104 0.0159-0.28634 0.02573-0.60123 0.01015-0.76878a0.51393 0.51393 90 0 0-1.0234 0.09514z"/>
<path d="m-11.579 13.029c0.09845-0.0092 0.39366-0.01125 0.64762 0.0065 0.04647 0.0032 0.09445 0.0068 0.13452 0.0098 0.21597 0.01611 0.5194 0.03143 0.6312 0.03162a0.51393 0.51393 90 0 0 0.0017-1.0279c-0.08626-1.45e-4 -0.33924-0.01256-0.55645-0.02877-0.03984-3e-3 -0.09018-0.0067-0.13946-0.01016-0.27138-0.01894-0.669-0.01808-0.81443-0.0045a0.51393 0.51393 90 0 0 0.09527 1.0234z"/>
<path d="m-12.002 17.482c0.16397 0.01801 0.60445 0.0308 0.93629 0.01538 0.10152-0.0047 0.22057-0.01137 0.28969-0.01512 0.22184-0.01205 0.45815-0.01971 0.54515-0.02004a0.51393 0.51393 90 0 0-0.0038-1.0278c-0.10324 3.86e-4 -0.37265 0.0094-0.59704 0.02154-0.07218 0.0039-0.18536 0.01024-0.28166 0.01472-0.37817 0.01757-0.59318 0.0098-0.77636-0.01035a0.51393 0.51393 90 0 0-0.11223 1.0217z"/>
<path d="m-12.768 18.204 2.0329-1.0964"/>
<path d="m-12.075 17.583c0.1126 0.02931 0.23354 0.04192 0.38757 0.03652 0.09719-0.0034 0.18237-0.01163 0.23622-0.01284 0.0044-9.8e-5 0.0088-2.52e-4 0.01315-4.63e-4 0.17553-0.0084 0.33647-0.02326 0.47055-0.03131 0.05347-0.0032 0.10123-0.0054 0.14614-0.0067 0.08371-0.0024 0.16636-0.0017 0.24679 0.0047l-0.04955-0.0064c0.03289 0.0059 0.0081 0.0018-0.01122-0.0036-0.0168-0.0048-0.03937-0.01245-0.06508-0.02485-0.03776-0.01821-0.0691-0.04018-0.09401-0.06144a0.51393 0.51393 90 0 0 0.66721-0.78187c-0.03218-0.02746-0.074-0.05709-0.12671-0.08251-0.03641-0.01756-0.07094-0.0297-0.10152-0.03835-0.05224-0.01478-0.08534-0.01873-0.08778-0.01916-0.0164-0.0029-0.03294-0.0051-0.04955-0.0064-0.12893-0.01029-0.25085-0.0106-0.35785-0.0076-0.05813 0.0017-0.11699 0.0045-0.1785 0.0082-0.1522 0.0091-0.30935 0.02331-0.45213 0.03035-0.10837 0.0027-0.18954 0.0112-0.24217 0.01304-0.07468 0.0026-0.08902-0.0031-0.09261-4e-3a0.51393 0.51393 90 0 0-0.25896 0.9947z"/>
<path d="m-11.858 12.707c0.11283-0.01439 0.25886-0.01873 0.51557 0.01243 0.04116 5e-3 0.08518 0.01084 0.13653 0.01807 0.27056 0.03807 0.69686 0.08751 0.85787 0.08784a0.51393 0.51393 90 0 0 0.0021-1.0279c-0.10268-2.1e-4 -0.42261-0.03642-0.71675-0.07781-0.05584-0.0079-0.10657-0.01461-0.15588-0.0206-0.25452-0.0309-0.63003-0.02945-0.76949-0.01166a0.51393 0.51393 90 0 0 0.13005 1.0196z"/>
<path d="m-11.421 17.668h1.2106a0.51393 0.51393 90 0 0 0-1.0279h-1.2106a0.51393 0.51393 90 0 0 0 1.0279z"/>
<path d="m-11.535 12.037h0.98218-0.98218z"/>
<path d="m-10.34 12.84c-2.14e-4 -0.0017-0.0025-0.01687-3.17e-4 -0.05561 4.61e-4 -0.0081 0.0011-0.01721 2e-3 -0.02779 0.0023-0.02671 0.0044-0.04548 0.0099-0.09673 0.0044-0.04123 0.01254-0.11571 0.01438-0.19297 0.0017-0.07155-0.0012-0.1616-0.02062-0.26079-0.0013-0.0065-0.0027-0.01291-0.0042-0.01932-0.01305-0.05526-0.033-0.11383-0.0626-0.17218-0.04302-0.08482-0.09374-0.14413-0.1323-0.18234a0.51393 0.51393 90 0 0-0.72349 0.73011c-0.02028-0.02009-0.04314-0.04781-0.06088-0.08279-0.01157-0.0228-0.01772-0.04236-0.02107-0.05655-0.0015-0.0064-0.0029-0.01286-0.0042-0.01932 7.22e-4 0.0037 0.0023 0.01476 0.0017 0.03875-6.79e-4 0.02853-4e-3 0.06281-0.0088 0.1073-0.0049 0.04557-0.0087 0.07874-0.01219 0.1201-0.0016 0.01848-0.0029 0.03711-4e-3 0.05599-0.0061 0.10708-5.79e-4 0.18585 7e-3 0.24496a0.51393 0.51393 90 0 0 1.0195-0.1308z"/>
<path d="m-11.442 16.726c-0.01272-0.03211-0.02215-0.07015-0.02355-0.11066-9.15e-4 -0.02642 2e-3 -0.04458 0.0031-0.05049 0.0018-0.0096-0.0059 0.01603-0.02419 0.08564-8.73e-4 0.0032-0.0033 0.01151-0.0085 0.0281-0.0045 0.01451-0.0203 0.064-0.03186 0.11229-9e-3 0.03754-0.01963 0.09046-0.02368 0.15234-0.0038 0.05877-0.0019 0.12976 0.01433 0.20665 0.0013 0.0062 0.0027 0.01241 0.0043 0.01857 0.01194 0.04768 0.0288 0.08942 0.04698 0.12497 0.01765 0.03451 0.03619 0.06249 0.05156 0.0835 0.03073 0.04202 0.04989 0.06089 0.05133 0.06252 0.0014 0.0016-0.01584-0.01489-0.04069-0.05837-0.02426-0.04246-0.0477-0.10092-0.05534-0.17173-5.39e-4 -8e-3 6.3e-5 -0.0096 6.4e-5 -0.0094a0.51393 0.51393 90 0 0 1.0279-0.0017c-7e-6 -0.0048 4.67e-4 -0.04554-0.0056-0.09579-0.0094-0.09295-0.04-0.17091-0.07452-0.23132-0.03337-0.05841-0.07094-0.10031-0.08102-0.11174-0.0203-0.02301-0.0039-5e-3 0.0076 0.01079 0.0087 0.01192 0.02127 0.03054 0.03388 0.05521 0.01307 0.02555 0.02584 0.05686 0.035 0.09345 0.0015 0.0062 3e-3 0.01235 0.0043 0.01857 0.0065 0.03094 0.0067 0.05715 0.0057 0.07288-0.0011 0.01694-3e-3 0.02251-0.0024 0.01994 8.76e-4 -0.0037 0.0065-0.02305 0.01427-0.04807 0.0051-0.01654 0.01276-0.04133 0.01993-0.06806 0.0039-0.01482 0.02492-0.07412 0.04102-0.16009 0.0097-0.05155 0.01608-0.11017 0.01386-0.17424-0.0032-0.09319-0.02384-0.17114-0.04813-0.23242a0.51393 0.51393 90 0 0-0.95556 0.37868z"/>
<path d="m-9.8217 16.697-0.82228 0.54819"/>
<path d="m-11.158 17.04v0.18273a0.51393 0.51393 90 0 0 1.0279 0v-0.18273a0.51393 0.51393 90 0 0-1.0279 0z"/>
<path d="m-12.354 17.627c0.02066 0.0056 0.07539 0.02029 0.13958 0.03621 0.15706 0.03895 0.70786 0.11891 0.86335 0.11858a0.51393 0.51393 90 0 0-0.0022-1.0279c-0.09444 2.02e-4 -0.48313-0.05597-0.61376-0.08836-0.05386-0.01336-0.10055-0.0259-0.11924-0.03094a0.51393 0.51393 90 0 0-0.26774 0.99237z"/>
<path d="m-11.466 12.608 0.50251-0.54819"/>
<path d="m-10.535 12.297c0.01107 0.02659 0.02194 0.06193 0.02553 0.10319 0.0024 0.02778 8.3e-4 0.05053-0.0014 0.06644-0.0033 0.02307-0.0085 0.03208 6.57e-4 0.0075 0.0012-0.0032 0.0023-0.0063 0.0034-0.0095 0.0068-0.01944 0.01645-0.04657 0.02569-0.07861 0.0016-0.0055 0.0032-0.01126 0.0048-0.01727 0.01934-0.07235 0.02631-0.13582 0.02651-0.19213a0.51393 0.51393 90 0 0-1.0278-0.0036c6.9e-5 -0.01952 0.0058-0.06032 0.0083-0.06967 0.0012-0.0043 5.9e-5 -4.02e-4 -0.0063 0.01797-0.01487 0.04029-0.0404 0.11342-0.05277 0.19997-0.0075 0.05283-0.01014 0.10915-5e-3 0.16797 0.0074 0.08517 0.02909 0.15368 0.04959 0.20291a0.51393 0.51393 90 0 0 0.94887-0.39514z"/>
<path d="m-9.4106 12.928-1.1877-0.86797"/>
<path d="m-10.108 12.446c-0.0028-0.05669-0.02815-0.1895-0.038-0.23065-0.0098-0.04115-0.0071-0.03237-7e-3 -0.01849a0.51393 0.51393 90 0 0-1.0279 0.0017c9.9e-5 0.06066 0.02347 0.20674 0.03525 0.25599 0.01528 0.06387 0.0117 0.05547 0.01107 0.04306a0.51393 0.51393 90 0 0 1.0266-0.05161z"/>
<path d="m-11.992 12.974 0.7766-0.84513"/>
<path d="m-10.724 12.471v-0.29694a0.51393 0.51393 90 0 0-1.0279 0v0.29694a0.51393 0.51393 90 0 0 1.0279 0z"/>
<path d="m-10.164 13.591-0.84513 3.6089"/>
<path d="m-11.499 16.632c-0.0039 0.04769-0.0074 0.11494-0.0048 0.20544 0.0015 0.05284 0.0047 0.10626 0.01007 0.17427 0.0097 0.12312 0.01592 0.22344 0.01588 0.25573a0.51393 0.51393 90 0 0 1.0279 0.0014c9.1e-5 -0.06653-0.01062-0.23094-0.01906-0.33793-0.0046-0.05778-0.0065-0.09273-0.0073-0.12242-0.0013-0.04794 5.38e-4 -0.07699 0.0018-0.09194a0.51393 0.51393 90 0 0-1.0244-0.08456z"/>
<path d="m-10.05 17.291-1.2563-0.04568"/>
<path d="m-11.718 16.587c-0.02481 0.02512-0.06231 0.06717-0.09619 0.12859-0.02434 0.04413-0.04467 0.09463-0.05748 0.15093-0.02097 0.09219-0.0169 0.17789-0.0024 0.2494 7.09e-4 0.0035 0.0015 7e-3 0.0022 0.01051 0.01289 0.05838 0.03344 0.11145 0.05777 0.15878 0.01925 0.03746 0.03991 0.06947 0.05846 0.09538l-0.01735-0.02587c-0.01833-0.02921-0.02526-0.06393-0.0247-0.09585a0.51393 0.51393 90 0 0 1.0277 0.01807c0.0021-0.11694-0.02069-0.29065-0.13243-0.46867-0.0055-0.0088-0.01131-0.01742-0.01735-0.02587 0.0041 0.0057 0.01153 0.01673 0.01988 0.03298 0.0108 0.02102 0.02324 0.05105 0.03171 0.0894 5.08e-4 0.0023 9.98e-4 0.0046 0.0015 0.0069 0.0097 0.04761 0.01361 0.11106-0.0027 0.1828-0.01 0.04376-0.02581 0.08316-0.04474 0.11748-0.02626 0.0476-0.05451 0.07902-0.07253 0.09726a0.51393 0.51393 90 0 0-0.73131-0.72227z"/>
<path d="m-10.393 17.04-0.27409 0.22841"/>
<path d="m-11.195 16.74c-0.0075 0.04032-0.01762 0.10937-0.01435 0.19971 0.0013 0.0356 0.0047 0.07604 0.01162 0.12241 0.01089 0.07262 0.02743 0.13809 0.03891 0.18628 0.0025 0.01177 7.53e-4 3e-3 7.64e-4 -0.0037a0.51393 0.51393 90 0 0 1.0279 0.0016c1.03e-4 -0.06466-0.0068-0.13525-0.02496-0.21968-7.24e-4 -0.0034-0.0015-0.0067-0.0023-0.01006-0.01444-0.06101-0.02191-0.09424-0.02381-0.10693-0.0012-0.0078-9.64e-4 -0.0084-9.17e-4 -0.0071 1.18e-4 0.0033-0.0011 0.01915-0.0024 0.02613a0.51393 0.51393 90 0 0-1.0104-0.18869z"/>
</g>
</g>
</svg>
