<?xml version="1.0" encoding="UTF-8"?>
<svg width="100%" height="100%" version="1.1" viewBox="0 0 3.1974 3.7672" xmlns="http://www.w3.org/2000/svg">
<g transform="translate(-76.63 -129.51)">
<path d="m76.7 129.58v0.83923c0.0079 2e-3 0.0164 6e-3 0.02532 0.0134 0.0034 3e-3 7e-3 6e-3 0.01034 8e-3h0.54519v1.7591h-0.57774v-9e-3c-1e-3 1e-3 -0.0021 2e-3 -0.0031 4e-3v1.0134h3.0582v-1.2702a0.65821 0.66676 0 0 1-0.41703-0.1509 0.65821 0.66676 0 0 1-0.0925-0.93534 0.65821 0.66676 0 0 1 0.50953-0.24546v-1.0258z" fill="#459dd7" stroke="#000" stroke-linecap="round" stroke-linejoin="round" stroke-width=".13917"/>
</g>
</svg>
