<svg width="100%" height="100%" viewBox="0 0 150 52" fill="none" xmlns="http://www.w3.org/2000/svg">
<path d="M106 51H105V52H106V51ZM141 51V52H142V51H141ZM141 44V43H140V44H141ZM148 44V45H149V44H148ZM148 29H149V28H148V29ZM141 29H140V30H141V29ZM141 20.9833L140.933 19.9856L140 20.0479V20.9833H141ZM144.589 19.787L144.044 18.9487L144.044 18.9487L144.589 19.787ZM147.73 15.4942L148.694 15.7601L148.96 14.7961L147.996 14.5302L147.73 15.4942ZM141 13.6379H140V14.3994L140.734 14.6019L141 13.6379ZM141 13.3912L140.787 12.4141L140 12.5854V13.3912H141ZM147.828 11.9051L148.041 12.8822L149.018 12.6695L148.806 11.6924L147.828 11.9051ZM144.928 7.44658L144.337 8.2537L144.337 8.2537L144.928 7.44658ZM141 6.01667H140V6.95208L140.933 7.01444L141 6.01667ZM141 1H142V0H141V1ZM106 1V0H105V1H106ZM106 8.01668H105V8.9521L105.933 9.01446L106 8.01668ZM108.37 8.5709L107.987 9.49478L107.987 9.49478L108.37 8.5709ZM110.803 10.1967L111.51 9.48959L111.51 9.48959L110.803 10.1967ZM112.429 12.6299L111.505 13.0126L111.505 13.0126L112.429 12.6299ZM113 15.5L113 16.5L114 16.5V15.5H113ZM106 15.5L106 14.5L105 14.5V15.5H106ZM106 29H105V30H106V29ZM113 29H114V28H113V29ZM113 44V45H114V44H113ZM106 44V43H105V44H106ZM106 52H141V50H106V52ZM142 51V44H140V51H142ZM141 45H148V43H141V45ZM149 44V29H147V44H149ZM148 28H141V30H148V28ZM142 29V20.9833H140V29H142ZM141.067 21.9811C142.506 21.8849 143.908 21.4229 145.135 20.6253L144.044 18.9487C143.106 19.5587 142.034 19.912 140.933 19.9856L141.067 21.9811ZM145.135 20.6253C146.876 19.4929 148.142 17.7622 148.694 15.7601L146.766 15.2283C146.344 16.7593 145.376 18.0828 144.044 18.9487L145.135 20.6253ZM147.996 14.5302L141.266 12.6739L140.734 14.6019L147.464 16.4582L147.996 14.5302ZM142 13.6379V13.3912H140V13.6379H142ZM141.213 14.3683L148.041 12.8822L147.616 10.9279L140.787 12.4141L141.213 14.3683ZM148.806 11.6924C148.364 9.66305 147.195 7.8656 145.518 6.63945L144.337 8.2537C145.619 9.19134 146.514 10.5659 146.851 12.1177L148.806 11.6924ZM145.518 6.63945C144.211 5.68288 142.665 5.12568 141.067 5.01889L140.933 7.01444C142.156 7.09611 143.337 7.52223 144.337 8.2537L145.518 6.63945ZM142 6.01667V1H140V6.01667H142ZM141 0H106V2H141V0ZM105 1V8.01668H107V1H105ZM105.933 9.01446C106.639 9.06159 107.333 9.22353 107.987 9.49478L108.753 7.64702C107.896 7.2923 106.989 7.08054 106.067 7.01891L105.933 9.01446ZM107.987 9.49478C108.776 9.82144 109.493 10.3002 110.096 10.9038L111.51 9.48959C110.721 8.70029 109.784 8.07419 108.753 7.64702L107.987 9.49478ZM110.096 10.9038C110.7 11.5074 111.179 12.2239 111.505 13.0126L113.353 12.2472C112.926 11.2159 112.3 10.2789 111.51 9.48959L110.096 10.9038ZM111.505 13.0126C111.832 13.8012 112 14.6464 112 15.5H114C114 14.3838 113.78 13.2785 113.353 12.2472L111.505 13.0126ZM113 14.5L106 14.5L106 16.5L113 16.5L113 14.5ZM105 15.5V29H107V15.5H105ZM106 30H113V28H106V30ZM112 29V44H114V29H112ZM113 43H106V45H113V43ZM105 44V51H107V44H105Z" fill="black"/>
<path d="M71 1V0H70V1H71ZM71 8.01668H70V8.9521L70.9333 9.01446L71 8.01668ZM106 1H107V0H106V1ZM106 8.01669H105V8.9521L105.933 9.01446L106 8.01669ZM108.37 8.5709L108.753 7.64702L108.753 7.64702L108.37 8.5709ZM110.803 10.1967L111.51 9.48959L111.51 9.48959L110.803 10.1967ZM112.429 12.6299L111.505 13.0126L111.505 13.0126L112.429 12.6299ZM113 15.5V16.5H114V15.5H113ZM106 15.5V14.5H105V15.5H106ZM106 29H105V30H106V29ZM113 29H114V28H113V29ZM113 44V45H114V44H113ZM106 44V43H105V44H106ZM106 51V52H107V51H106ZM71 51H70V52H71V51ZM71 44.8524L70.2958 44.1423L70 44.4357V44.8524H71ZM79.6348 36.2886L80.339 36.9986L81.0593 36.2841L80.3345 35.5742L79.6348 36.2886ZM71 27.8308H70V28.2511L70.3003 28.5452L71 27.8308ZM71 15.5L71 14.5L70 14.5V15.5H71ZM78 15.5L78 16.5L79 16.5V15.5H78ZM77.4291 12.6299L76.5052 13.0126L76.5052 13.0126L77.4291 12.6299ZM75.8033 10.1967L76.5104 9.48959L76.5104 9.48959L75.8033 10.1967ZM73.3701 8.5709L72.9874 9.49478L72.9874 9.49478L73.3701 8.5709ZM70 1V8.01668H72V1H70ZM106 0H71V2H106V0ZM107 8.01669V1H105V8.01669H107ZM108.753 7.64702C107.896 7.2923 106.989 7.08054 106.067 7.01891L105.933 9.01446C106.639 9.06159 107.333 9.22353 107.987 9.49478L108.753 7.64702ZM111.51 9.48959C110.721 8.70029 109.784 8.07419 108.753 7.64702L107.987 9.49478C108.776 9.82144 109.493 10.3002 110.096 10.9038L111.51 9.48959ZM113.353 12.2472C112.926 11.2159 112.3 10.2789 111.51 9.48959L110.096 10.9038C110.7 11.5074 111.179 12.2239 111.505 13.0126L113.353 12.2472ZM114 15.5C114 14.3838 113.78 13.2785 113.353 12.2472L111.505 13.0126C111.832 13.8012 112 14.6464 112 15.5H114ZM106 16.5H113V14.5H106V16.5ZM107 29V15.5H105V29H107ZM113 28H106V30H113V28ZM114 44V29H112V44H114ZM106 45H113V43H106V45ZM107 51V44H105V51H107ZM71 52H106V50H71V52ZM70 44.8524V51H72V44.8524H70ZM78.9306 35.5786L70.2958 44.1423L71.7042 45.5624L80.339 36.9986L78.9306 35.5786ZM70.3003 28.5452L78.935 37.003L80.3345 35.5742L71.6997 27.1164L70.3003 28.5452ZM70 15.5V27.8308H72V15.5H70ZM78 14.5L71 14.5L71 16.5L78 16.5L78 14.5ZM76.5052 13.0126C76.8319 13.8012 77 14.6464 77 15.5H79C79 14.3838 78.7801 13.2785 78.353 12.2472L76.5052 13.0126ZM75.0962 10.9038C75.6998 11.5074 76.1786 12.2239 76.5052 13.0126L78.353 12.2472C77.9258 11.2159 77.2997 10.2789 76.5104 9.48959L75.0962 10.9038ZM72.9874 9.49478C73.7761 9.82144 74.4926 10.3002 75.0962 10.9038L76.5104 9.48959C75.7211 8.70029 74.7841 8.07419 73.7528 7.64702L72.9874 9.49478ZM70.9333 9.01446C71.6387 9.06159 72.3326 9.22353 72.9874 9.49478L73.7528 7.64702C72.8964 7.2923 71.989 7.08054 71.0667 7.01891L70.9333 9.01446Z" fill="black"/>
<path d="M36 45.5L35.2958 44.79L35 45.0834V45.5H36ZM45.3848 36.1924L46.089 36.9024L46.8093 36.188L46.0845 35.478L45.3848 36.1924ZM36 51H35V52H36V51ZM71 51V52H72V51H71ZM71 44.8524L70.2958 44.1423L70 44.4357V44.8524H71ZM79.6348 36.2886L80.339 36.9986L81.0593 36.2841L80.3345 35.5742L79.6348 36.2886ZM71 27.8308H70V28.2511L70.3003 28.5452L71 27.8308ZM71 15.5V14.5H70V15.5H71ZM78 15.5V16.5H79V15.5H78ZM77.4291 12.6299L76.5052 13.0126L76.5052 13.0126L77.4291 12.6299ZM75.8033 10.1967L76.5104 9.48959L76.5104 9.48959L75.8033 10.1967ZM73.3701 8.5709L73.7528 7.64702L73.7528 7.64702L73.3701 8.5709ZM71 8.01669H70V8.9521L70.9333 9.01446L71 8.01669ZM71 1H72V0H71V1ZM36 1V0H35V1H36ZM36 5.0164H35V5.95275L35.9343 6.01424L36 5.0164ZM36 19.9836L35.9343 18.9858L35 19.0473V19.9836H36ZM36 27H35V27.4203L35.3003 27.7144L36 27ZM36.7042 46.21L46.089 36.9024L44.6806 35.4824L35.2958 44.79L36.7042 46.21ZM37 51V45.5H35V51H37ZM71 50H36V52H71V50ZM70 44.8524V51H72V44.8524H70ZM78.9306 35.5786L70.2958 44.1423L71.7042 45.5624L80.339 36.9986L78.9306 35.5786ZM70.3003 28.5452L78.935 37.003L80.3345 35.5742L71.6997 27.1164L70.3003 28.5452ZM70 15.5V27.8308H72V15.5H70ZM78 14.5H71V16.5H78V14.5ZM76.5052 13.0126C76.8319 13.8012 77 14.6464 77 15.5H79C79 14.3838 78.7801 13.2785 78.353 12.2472L76.5052 13.0126ZM75.0962 10.9038C75.6998 11.5074 76.1786 12.2239 76.5052 13.0126L78.353 12.2472C77.9258 11.2159 77.2997 10.2789 76.5104 9.48959L75.0962 10.9038ZM72.9874 9.49478C73.7761 9.82144 74.4926 10.3002 75.0962 10.9038L76.5104 9.48959C75.7211 8.70029 74.7841 8.07419 73.7528 7.64702L72.9874 9.49478ZM70.9333 9.01446C71.6387 9.06159 72.3326 9.22353 72.9874 9.49478L73.7528 7.64702C72.8964 7.2923 71.989 7.08054 71.0667 7.01891L70.9333 9.01446ZM70 1V8.01669H72V1H70ZM36 2H71V0H36V2ZM37 5.0164V1H35V5.0164H37ZM44 12.5C44 7.9956 40.4969 4.31022 36.0657 4.01856L35.9343 6.01424C39.3212 6.23717 42 9.05616 42 12.5H44ZM36.0657 20.9814C40.4969 20.6898 44 17.0044 44 12.5H42C42 15.9438 39.3212 18.7628 35.9343 18.9858L36.0657 20.9814ZM37 27V19.9836H35V27H37ZM46.0845 35.478L36.6997 26.2856L35.3003 27.7144L44.685 36.9068L46.0845 35.478Z" fill="black"/>
<path d="M36 1H37V0H36V1ZM1 1V0H0V1H1ZM1 5.0164H0V6.08439L1.06568 6.01424L1 5.0164ZM1 19.9836L1.06568 18.9858L0 18.9156V19.9836H1ZM1 30H0V31H1V30ZM9 30H10V29H9V30ZM8.4291 32.8701L7.50522 32.4874L7.50522 32.4874L8.4291 32.8701ZM6.8033 35.3033L6.0962 34.5962L6.09619 34.5962L6.8033 35.3033ZM4.37013 36.9291L4.75281 37.853L4.75281 37.853L4.37013 36.9291ZM4.19258 37L3.83358 36.0667L1.40728 36.9999L3.83353 37.9333L4.19258 37ZM4.37013 37.0709L4.75281 36.147L4.75281 36.147L4.37013 37.0709ZM6.8033 38.6967L6.09619 39.4038L6.0962 39.4038L6.8033 38.6967ZM9 44V45H10V44H9ZM1 44V43H0V44H1ZM1 51H0V52H1V51ZM36 51V52H37V51H36ZM36 45.5L35.2958 44.79L35 45.0834V45.5H36ZM45.3848 36.1924L46.089 36.9024L46.8093 36.188L46.0845 35.478L45.3848 36.1924ZM36 27H35V27.4203L35.3003 27.7144L36 27ZM36 19.9836L35.9343 18.9858L35 19.0473V19.9836H36ZM36 5.0164H35V5.95275L35.9343 6.01424L36 5.0164ZM36 0H1V2H36V0ZM0 1V5.0164H2V1H0ZM1.06568 6.01424C1.20909 6.0048 1.35391 6 1.5 6V4C1.31006 4 1.12143 4.00625 0.934322 4.01856L1.06568 6.01424ZM1.5 6C5.08985 6 8 8.91015 8 12.5H10C10 7.80558 6.19442 4 1.5 4V6ZM8 12.5C8 16.0899 5.08985 19 1.5 19V21C6.19442 21 10 17.1944 10 12.5H8ZM1.5 19C1.35392 19 1.2091 18.9952 1.06568 18.9858L0.934322 20.9814C1.12143 20.9938 1.31005 21 1.5 21V19ZM0 19.9836V30H2V19.9836H0ZM1 31H1.5V29H1V31ZM1.5 31H9V29H1.5V31ZM8 30C8 30.8536 7.83187 31.6988 7.50522 32.4874L9.35298 33.2528C9.78014 32.2215 10 31.1162 10 30H8ZM7.50522 32.4874C7.17856 33.2761 6.69978 33.9926 6.0962 34.5962L7.51041 36.0104C8.29971 35.2211 8.92581 34.2841 9.35298 33.2528L7.50522 32.4874ZM6.09619 34.5962C5.49261 35.1998 4.77606 35.6786 3.98744 36.0052L4.75281 37.853C5.78408 37.4258 6.72111 36.7997 7.51041 36.0104L6.09619 34.5962ZM3.98744 36.0052C3.93638 36.0264 3.88509 36.0468 3.83358 36.0667L4.55158 37.9333C4.61896 37.9074 4.68604 37.8806 4.75281 37.853L3.98744 36.0052ZM3.83353 37.9333C3.88511 37.9532 3.93642 37.9736 3.98744 37.9948L4.75281 36.147C4.68601 36.1194 4.61894 36.0926 4.55163 36.0667L3.83353 37.9333ZM3.98744 37.9948C4.77606 38.3214 5.49261 38.8002 6.09619 39.4038L7.51041 37.9896C6.72111 37.2003 5.78408 36.5742 4.75281 36.147L3.98744 37.9948ZM6.0962 39.4038C6.69978 40.0074 7.17856 40.7239 7.50522 41.5126L9.35298 40.7472C8.92581 39.7159 8.29971 38.7789 7.51041 37.9896L6.0962 39.4038ZM7.50522 41.5126C7.83187 42.3012 8 43.1464 8 44H10C10 42.8838 9.78014 41.7785 9.35298 40.7472L7.50522 41.5126ZM9 43H1.5V45H9V43ZM1.5 43H1V45H1.5V43ZM0 44V51H2V44H0ZM1 52H36V50H1V52ZM37 51V45.5H35V51H37ZM36.7042 46.21L46.089 36.9024L44.6806 35.4824L35.2958 44.79L36.7042 46.21ZM46.0845 35.478L36.6997 26.2856L35.3003 27.7144L44.685 36.9068L46.0845 35.478ZM37 27V19.9836H35V27H37ZM36.0657 20.9814C40.4969 20.6898 44 17.0044 44 12.5H42C42 15.9438 39.3212 18.7628 35.9343 18.9858L36.0657 20.9814ZM44 12.5C44 7.9956 40.4969 4.31022 36.0657 4.01856L35.9343 6.01424C39.3212 6.23717 42 9.05616 42 12.5H44ZM37 5.0164V1H35V5.0164H37Z" fill="black"/>
</svg>
