<svg width="100%" height="100%" viewBox="0 0 150 52" fill="none" xmlns="http://www.w3.org/2000/svg">
<path d="M106 51H105V52H106V51ZM141 51V52H142V51H141ZM106 43.9836L105.934 42.9858L105 43.0473V43.9836H106ZM106 29.0164H105V29.9527L105.934 30.0142L106 29.0164ZM106 20.9833L105.933 19.9856L105 20.0479V20.9833H106ZM109.589 19.787L109.044 18.9487L109.044 18.9487L109.589 19.787ZM112.73 15.4942L113.694 15.7601L113.96 14.7961L112.996 14.5302L112.73 15.4942ZM106 13.6379H105V14.3994L105.734 14.6019L106 13.6379ZM106 13.3912L105.787 12.4141L105 12.5854V13.3912H106ZM112.828 11.9051L113.041 12.8822L114.018 12.6695L113.806 11.6924L112.828 11.9051ZM109.928 7.44658L109.337 8.2537L109.337 8.2537L109.928 7.44658ZM106 6.01667H105V6.95208L105.933 7.01444L106 6.01667ZM106 1V0H105V1H106ZM141 1H142V0H141V1ZM141 8.01668H140V9.08573L141.067 9.01446L141 8.01668ZM144.37 8.5709L143.987 9.49478L143.987 9.49478L144.37 8.5709ZM147.298 10.7421L146.525 11.3764L146.525 11.3764L147.298 10.7421ZM148.856 14.0368L147.875 14.2319L147.875 14.2319L148.856 14.0368ZM148.677 17.6771L149.634 17.9674L149.634 17.9674L148.677 17.6771ZM146.803 20.8033L146.096 21.5104L146.803 22.2175L147.51 21.5104L146.803 20.8033ZM141.5 15.5L142.207 14.7929L141.914 14.5H141.5V15.5ZM141 15.5V14.5H140V15.5H141ZM141 29.3633H140V29.8728L140.412 30.1723L141 29.3633ZM147.633 34.1824L148.584 34.4914L148.808 33.8004L148.221 33.3734L147.633 34.1824ZM144.908 42.5676V43.5676H145.635L145.859 42.8766L144.908 42.5676ZM141 42.5676V41.5676H140V42.5676H141ZM106 52H141V50H106V52ZM105 43.9836V51H107V43.9836H105ZM112 36.5C112 39.9438 109.321 42.7628 105.934 42.9858L106.066 44.9814C110.497 44.6898 114 41.0044 114 36.5H112ZM105.934 30.0142C109.321 30.2372 112 33.0562 112 36.5H114C114 31.9956 110.497 28.3102 106.066 28.0186L105.934 30.0142ZM105 20.9833V29.0164H107V20.9833H105ZM109.044 18.9487C108.106 19.5587 107.034 19.912 105.933 19.9856L106.067 21.9811C107.506 21.8849 108.908 21.4229 110.135 20.6253L109.044 18.9487ZM111.766 15.2283C111.344 16.7593 110.376 18.0828 109.044 18.9487L110.135 20.6253C111.876 19.4929 113.142 17.7622 113.694 15.7601L111.766 15.2283ZM105.734 14.6019L112.464 16.4582L112.996 14.5302L106.266 12.6739L105.734 14.6019ZM105 13.3912V13.6379H107V13.3912H105ZM112.616 10.9279L105.787 12.4141L106.213 14.3683L113.041 12.8822L112.616 10.9279ZM109.337 8.2537C110.619 9.19134 111.514 10.5659 111.851 12.1177L113.806 11.6924C113.364 9.66305 112.195 7.8656 110.518 6.63945L109.337 8.2537ZM105.933 7.01444C107.156 7.09611 108.337 7.52223 109.337 8.2537L110.518 6.63945C109.211 5.68288 107.665 5.12568 106.067 5.01889L105.933 7.01444ZM105 1V6.01667H107V1H105ZM141 0H106V2H141V0ZM142 8.01668V1H140V8.01668H142ZM141.067 9.01446C142.063 8.94786 143.063 9.11183 143.987 9.49478L144.753 7.64702C143.544 7.14624 142.237 6.93182 140.933 7.01891L141.067 9.01446ZM143.987 9.49478C144.975 9.90385 145.846 10.5501 146.525 11.3764L148.071 10.1077C147.184 9.02712 146.044 8.18195 144.753 7.64702L143.987 9.49478ZM146.525 11.3764C147.203 12.2027 147.667 13.1835 147.875 14.2319L149.837 13.8417C149.564 12.4708 148.957 11.1882 148.071 10.1077L146.525 11.3764ZM147.875 14.2319C148.084 15.2803 148.03 16.3639 147.72 17.3869L149.634 17.9674C150.04 16.6298 150.109 15.2127 149.837 13.8417L147.875 14.2319ZM147.72 17.3869C147.41 18.4098 146.852 19.3403 146.096 20.0962L147.51 21.5104C148.499 20.522 149.228 19.3051 149.634 17.9674L147.72 17.3869ZM147.51 20.0962L142.207 14.7929L140.793 16.2071L146.096 21.5104L147.51 20.0962ZM141.5 14.5H141V16.5H141.5V14.5ZM142 29.3633V15.5H140V29.3633H142ZM148.221 33.3734L141.588 28.5543L140.412 30.1723L147.045 34.9914L148.221 33.3734ZM145.859 42.8766L148.584 34.4914L146.682 33.8734L143.957 42.2586L145.859 42.8766ZM141 43.5676H144.908V41.5676H141V43.5676ZM142 51V42.5676H140V51H142Z" fill="black"/>
<path d="M71 1V0H70V1H71ZM71 6.01667H70V6.95208L70.9333 7.01444L71 6.01667ZM106 1H107V0H106V1ZM106 6.01667H105V6.95208L105.933 7.01444L106 6.01667ZM109.928 7.44658L109.337 8.2537L109.337 8.2537L109.928 7.44658ZM112.828 11.9051L113.041 12.8822L114.018 12.6695L113.806 11.6924L112.828 11.9051ZM106 13.3912L105.787 12.4141L105 12.5854V13.3912H106ZM106 13.6379H105V14.3994L105.734 14.6019L106 13.6379ZM112.73 15.4942L113.694 15.7601L113.96 14.7961L112.996 14.5302L112.73 15.4942ZM109.589 19.787L109.044 18.9487L109.044 18.9487L109.589 19.787ZM106 20.9833L105.933 19.9856L105 20.0479V20.9833H106ZM106 29.0164H105V29.9527L105.934 30.0142L106 29.0164ZM106 43.9836L105.934 42.9858L105 43.0473V43.9836H106ZM106 51V52H107V51H106ZM71 51H70V52H71V51ZM71 44V43H70V44H71ZM78 44V45H79V44H78ZM78 29H79V28H78V29ZM71 29H70V30H71V29ZM71 20.9833L70.9333 19.9856L70 20.0479V20.9833H71ZM74.5894 19.787L74.0442 18.9487L74.0442 18.9487L74.5894 19.787ZM77.73 15.4942L78.694 15.7601L78.9599 14.7961L77.9959 14.5302L77.73 15.4942ZM71 13.6379H70V14.3994L70.7341 14.6019L71 13.6379ZM71 13.3912L70.7873 12.4141L70 12.5854V13.3912H71ZM77.8285 11.9051L78.0411 12.8822L79.0182 12.6695L78.8056 11.6924L77.8285 11.9051ZM74.9279 7.44658L74.3375 8.2537L74.3375 8.2537L74.9279 7.44658ZM70 1V6.01667H72V1H70ZM106 0H71V2H106V0ZM107 6.01667V1H105V6.01667H107ZM110.518 6.63945C109.211 5.68288 107.665 5.12568 106.067 5.01889L105.933 7.01444C107.156 7.09611 108.337 7.52223 109.337 8.2537L110.518 6.63945ZM113.806 11.6924C113.364 9.66305 112.195 7.8656 110.518 6.63945L109.337 8.2537C110.619 9.19134 111.514 10.5659 111.851 12.1177L113.806 11.6924ZM106.213 14.3683L113.041 12.8822L112.616 10.9279L105.787 12.4141L106.213 14.3683ZM107 13.6379V13.3912H105V13.6379H107ZM112.996 14.5302L106.266 12.6739L105.734 14.6019L112.464 16.4582L112.996 14.5302ZM110.135 20.6253C111.876 19.4929 113.142 17.7622 113.694 15.7601L111.766 15.2283C111.344 16.7593 110.376 18.0828 109.044 18.9487L110.135 20.6253ZM106.067 21.9811C107.506 21.8849 108.908 21.4229 110.135 20.6253L109.044 18.9487C108.106 19.5587 107.034 19.912 105.933 19.9856L106.067 21.9811ZM107 29.0164V20.9833H105V29.0164H107ZM105.934 30.0142C109.321 30.2372 112 33.0562 112 36.5H114C114 31.9956 110.497 28.3102 106.066 28.0186L105.934 30.0142ZM112 36.5C112 39.9438 109.321 42.7628 105.934 42.9858L106.066 44.9814C110.497 44.6898 114 41.0044 114 36.5H112ZM107 51V43.9836H105V51H107ZM71 52H106V50H71V52ZM70 44V51H72V44H70ZM78 43H71V45H78V43ZM77 29V44H79V29H77ZM71 30H78V28H71V30ZM70 20.9833V29H72V20.9833H70ZM74.0442 18.9487C73.1064 19.5587 72.0343 19.912 70.9333 19.9856L71.0667 21.9811C72.5063 21.8849 73.9084 21.4229 75.1347 20.6253L74.0442 18.9487ZM76.766 15.2283C76.3437 16.7593 75.3755 18.0828 74.0442 18.9487L75.1347 20.6253C76.8757 19.4929 78.1418 17.7622 78.694 15.7601L76.766 15.2283ZM70.7341 14.6019L77.4641 16.4582L77.9959 14.5302L71.2659 12.6739L70.7341 14.6019ZM70 13.3912V13.6379H72V13.3912H70ZM77.6158 10.9279L70.7873 12.4141L71.2127 14.3683L78.0411 12.8822L77.6158 10.9279ZM74.3375 8.2537C75.6194 9.19134 76.5136 10.5659 76.8513 12.1177L78.8056 11.6924C78.3639 9.66305 77.1946 7.8656 75.5183 6.63945L74.3375 8.2537ZM70.9333 7.01444C72.1555 7.09611 73.3375 7.52223 74.3375 8.2537L75.5183 6.63945C74.2105 5.68288 72.6649 5.12568 71.0667 5.01889L70.9333 7.01444Z" fill="black"/>
<path d="M36 51H35V52H36V51ZM71 51V52H72V51H71ZM71 44V43H70V44H71ZM78 44V45H79V44H78ZM78 29H79V28H78V29ZM71 29H70V30H71V29ZM71 20.9833L70.9333 19.9856L70 20.0479V20.9833H71ZM74.5894 19.787L74.0442 18.9487L74.0442 18.9487L74.5894 19.787ZM77.73 15.4942L78.694 15.7601L78.9599 14.7961L77.9959 14.5302L77.73 15.4942ZM71 13.6379H70V14.3994L70.7341 14.6019L71 13.6379ZM71 13.3912L70.7873 12.4141L70 12.5854V13.3912H71ZM77.8285 11.9051L78.0411 12.8822L79.0182 12.6695L78.8056 11.6924L77.8285 11.9051ZM74.9279 7.44658L74.3375 8.2537L74.3375 8.2537L74.9279 7.44658ZM71 6.01667H70V6.95208L70.9333 7.01444L71 6.01667ZM71 1H72V0H71V1ZM36 1V0H35V1H36ZM36 8.01668H35V8.9521L35.9333 9.01446L36 8.01668ZM38.3701 8.5709L37.9874 9.49478L37.9874 9.49478L38.3701 8.5709ZM40.8033 10.1967L41.5104 9.48959L41.5104 9.48959L40.8033 10.1967ZM42.4291 12.6299L41.5052 13.0126L41.5052 13.0126L42.4291 12.6299ZM43 15.5L43 16.5L44 16.5V15.5H43ZM36 15.5L36 14.5L35 14.5V15.5H36ZM36 29H35V30H36V29ZM43 29H44V28H43V29ZM43 44V45H44V44H43ZM36 44V43H35V44H36ZM36 52H71V50H36V52ZM72 51V44H70V51H72ZM71 45H78V43H71V45ZM79 44V29H77V44H79ZM78 28H71V30H78V28ZM72 29V20.9833H70V29H72ZM71.0667 21.9811C72.5063 21.8849 73.9084 21.4229 75.1347 20.6253L74.0442 18.9487C73.1064 19.5587 72.0343 19.912 70.9333 19.9856L71.0667 21.9811ZM75.1347 20.6253C76.8757 19.4929 78.1418 17.7622 78.694 15.7601L76.766 15.2283C76.3437 16.7593 75.3755 18.0828 74.0442 18.9487L75.1347 20.6253ZM77.9959 14.5302L71.2659 12.6739L70.7341 14.6019L77.4641 16.4582L77.9959 14.5302ZM72 13.6379V13.3912H70V13.6379H72ZM71.2127 14.3683L78.0411 12.8822L77.6158 10.9279L70.7873 12.4141L71.2127 14.3683ZM78.8056 11.6924C78.3639 9.66305 77.1946 7.8656 75.5183 6.63945L74.3375 8.2537C75.6194 9.19134 76.5136 10.5659 76.8513 12.1177L78.8056 11.6924ZM75.5183 6.63945C74.2105 5.68288 72.6649 5.12568 71.0667 5.01889L70.9333 7.01444C72.1555 7.09611 73.3375 7.52223 74.3375 8.2537L75.5183 6.63945ZM72 6.01667V1H70V6.01667H72ZM71 0H36V2H71V0ZM35 1V8.01668H37V1H35ZM35.9333 9.01446C36.6387 9.06159 37.3326 9.22353 37.9874 9.49478L38.7528 7.64702C37.8964 7.2923 36.989 7.08054 36.0667 7.01891L35.9333 9.01446ZM37.9874 9.49478C38.7761 9.82144 39.4926 10.3002 40.0962 10.9038L41.5104 9.48959C40.7211 8.70029 39.7841 8.07419 38.7528 7.64702L37.9874 9.49478ZM40.0962 10.9038C40.6998 11.5074 41.1786 12.2239 41.5052 13.0126L43.353 12.2472C42.9258 11.2159 42.2997 10.2789 41.5104 9.48959L40.0962 10.9038ZM41.5052 13.0126C41.8319 13.8012 42 14.6464 42 15.5H44C44 14.3838 43.7801 13.2785 43.353 12.2472L41.5052 13.0126ZM43 14.5L36 14.5L36 16.5L43 16.5L43 14.5ZM35 15.5V29H37V15.5H35ZM36 30H43V28H36V30ZM42 29V44H44V29H42ZM43 43H36V45H43V43ZM35 44V51H37V44H35Z" fill="black"/>
<path d="M1 1V0H0V1H1ZM1 8.01668H0V8.9521L0.933334 9.01446L1 8.01668ZM36 1H37V0H36V1ZM36 8.01669H35V8.9521L35.9333 9.01446L36 8.01669ZM38.3701 8.5709L38.7528 7.64702L38.7528 7.64702L38.3701 8.5709ZM40.8033 10.1967L41.5104 9.48959L41.5104 9.48959L40.8033 10.1967ZM42.4291 12.6299L41.5052 13.0126L41.5052 13.0126L42.4291 12.6299ZM43 15.5V16.5H44V15.5H43ZM36 15.5V14.5H35V15.5H36ZM36 29H35V30H36V29ZM43 29H44V28H43V29ZM43 44V45H44V44H43ZM36 44V43H35V44H36ZM36 51V52H37V51H36ZM1 51H0V52H1V51ZM1 44.8524L0.295818 44.1423L0 44.4357V44.8524H1ZM9.63478 36.2886L10.339 36.9986L11.0593 36.2841L10.3345 35.5742L9.63478 36.2886ZM1 27.8308H0V28.2511L0.300254 28.5452L1 27.8308ZM1 15.5L1 14.5L0 14.5V15.5H1ZM8 15.5L8 16.5L9 16.5V15.5H8ZM7.4291 12.6299L6.50522 13.0126L6.50522 13.0126L7.4291 12.6299ZM5.8033 10.1967L6.51041 9.48959L6.51041 9.48959L5.8033 10.1967ZM3.37012 8.5709L2.98744 9.49478L2.98744 9.49478L3.37012 8.5709ZM0 1V8.01668H2V1H0ZM36 0H1V2H36V0ZM37 8.01669V1H35V8.01669H37ZM38.7528 7.64702C37.8964 7.2923 36.989 7.08054 36.0667 7.01891L35.9333 9.01446C36.6387 9.06159 37.3326 9.22353 37.9874 9.49478L38.7528 7.64702ZM41.5104 9.48959C40.7211 8.70029 39.7841 8.07419 38.7528 7.64702L37.9874 9.49478C38.7761 9.82144 39.4926 10.3002 40.0962 10.9038L41.5104 9.48959ZM43.353 12.2472C42.9258 11.2159 42.2997 10.2789 41.5104 9.48959L40.0962 10.9038C40.6998 11.5074 41.1786 12.2239 41.5052 13.0126L43.353 12.2472ZM44 15.5C44 14.3838 43.7801 13.2785 43.353 12.2472L41.5052 13.0126C41.8319 13.8012 42 14.6464 42 15.5H44ZM36 16.5H43V14.5H36V16.5ZM37 29V15.5H35V29H37ZM43 28H36V30H43V28ZM44 44V29H42V44H44ZM36 45H43V43H36V45ZM37 51V44H35V51H37ZM1 52H36V50H1V52ZM0 44.8524V51H2V44.8524H0ZM8.9306 35.5786L0.295818 44.1423L1.70418 45.5624L10.339 36.9986L8.9306 35.5786ZM0.300254 28.5452L8.93503 37.003L10.3345 35.5742L1.69975 27.1164L0.300254 28.5452ZM0 15.5V27.8308H2V15.5H0ZM8 14.5L1 14.5L1 16.5L8 16.5L8 14.5ZM6.50522 13.0126C6.83187 13.8012 7 14.6464 7 15.5H9C9 14.3838 8.78014 13.2785 8.35298 12.2472L6.50522 13.0126ZM5.0962 10.9038C5.69977 11.5074 6.17856 12.2239 6.50522 13.0126L8.35298 12.2472C7.92581 11.2159 7.29971 10.2789 6.51041 9.48959L5.0962 10.9038ZM2.98744 9.49478C3.77606 9.82144 4.49261 10.3002 5.0962 10.9038L6.51041 9.48959C5.72111 8.70029 4.78408 8.07419 3.75281 7.64702L2.98744 9.49478ZM0.933334 9.01446C1.63865 9.06159 2.33257 9.22353 2.98744 9.49478L3.75281 7.64702C2.89644 7.2923 1.98901 7.08054 1.06667 7.01891L0.933334 9.01446Z" fill="black"/>
</svg>
