<svg width="100%" height="100%" viewBox="0 0 152 52" fill="none" xmlns="http://www.w3.org/2000/svg">
<path d="M106 51H105V52H106V51ZM141 51V52H142V51H141ZM106 45.5962V44.5962H105V45.5962H106ZM112.5 45.5962V46.5962H114.018L113.419 45.2014L112.5 45.5962ZM108.5 36.2886V35.2886H106.982L107.581 36.6834L108.5 36.2886ZM113.5 36.2886V37.2886H114.647L114.491 36.1527L113.5 36.2886ZM112.5 29L113.491 28.8641L113.4 28.2024L112.754 28.0328L112.5 29ZM106 27.2931H105V28.0644L105.746 28.2603L106 27.2931ZM106 20V19H105V20H106ZM113 20V21H114V20H113ZM113 5H114V4H113V5ZM106 5H105V6H106V5ZM106 1V0H105V1H106ZM141 1H142V0H141V1ZM141 5H140V6H141V5ZM148 5H149V4H148V5ZM148 20V21H149V20H148ZM141 20V19H140V20H141ZM141 29.1515H140V30.3762L141.2 30.1313L141 29.1515ZM141.8 29.0327L141.707 28.0371L141.707 28.0371L141.8 29.0327ZM149.828 34.9051L150.041 35.8822L151.018 35.6695L150.806 34.6924L149.828 34.9051ZM142.5 36.5L142.287 35.5229L142.234 37.464L142.5 36.5ZM149.73 38.4942L150.694 38.7601L150.96 37.7961L149.996 37.5302L149.73 38.4942ZM146.589 42.787L146.044 41.9487L146.044 41.9487L146.589 42.787ZM141.392 43.9177L141.244 44.9067L141.244 44.9067L141.392 43.9177ZM141 43.8485L141.2 42.8687L140 42.6238V43.8485H141ZM106 52H141V50H106V52ZM105 45.5962V51H107V45.5962H105ZM112.5 44.5962H106V46.5962H112.5V44.5962ZM107.581 36.6834L111.581 45.991L113.419 45.2014L109.419 35.8937L107.581 36.6834ZM113.5 35.2886H108.5V37.2886H113.5V35.2886ZM111.509 29.1359L112.509 36.4245L114.491 36.1527L113.491 28.8641L111.509 29.1359ZM105.746 28.2603L112.246 29.9672L112.754 28.0328L106.254 26.3259L105.746 28.2603ZM105 20V27.2931H107V20H105ZM113 19H106V21H113V19ZM112 5V20H114V5H112ZM106 6H113V4H106V6ZM105 1V5H107V1H105ZM141 0H106V2H141V0ZM142 5V1H140V5H142ZM148 4H141V6H148V4ZM149 20V5H147V20H149ZM141 21H148V19H141V21ZM142 29.1515V20H140V29.1515H142ZM141.2 30.1313C141.428 30.0847 141.66 30.0503 141.894 30.0284L141.707 28.0371C141.401 28.0657 141.098 28.1108 140.8 28.1717L141.2 30.1313ZM141.894 30.0284C143.475 29.8802 145.056 30.3161 146.337 31.2537L147.518 29.6395C145.842 28.4133 143.775 27.8433 141.707 28.0371L141.894 30.0284ZM146.337 31.2537C147.619 32.1913 148.514 33.5659 148.851 35.1177L150.806 34.6924C150.364 32.663 149.195 30.8656 147.518 29.6395L146.337 31.2537ZM149.616 33.9279L142.287 35.5229L142.713 37.4771L150.041 35.8822L149.616 33.9279ZM142.234 37.464L149.464 39.4582L149.996 37.5302L142.766 35.536L142.234 37.464ZM148.766 38.2283C148.344 39.7593 147.376 41.0828 146.044 41.9487L147.135 43.6253C148.876 42.4929 150.142 40.7622 150.694 38.7601L148.766 38.2283ZM146.044 41.9487C144.713 42.8147 143.111 43.1633 141.54 42.9287L141.244 44.9067C143.298 45.2136 145.394 44.7577 147.135 43.6253L146.044 41.9487ZM141.54 42.9287C141.426 42.9116 141.312 42.8916 141.2 42.8687L140.8 44.8283C140.947 44.8583 141.095 44.8845 141.244 44.9067L141.54 42.9287ZM142 51V43.8485H140V51H142Z" fill="black"/>
<path d="M71 1V0H70V1H71ZM71 8.01668H70V8.9521L70.9333 9.01446L71 8.01668ZM106 1H107V0H106V1ZM106 5H105V6H106V5ZM113 5H114V4H113V5ZM113 20V21H114V20H113ZM106 20V19H105V20H106ZM106 27.2931H105V28.0644L105.746 28.2603L106 27.2931ZM112.5 29L113.491 28.8641L113.4 28.2024L112.754 28.0328L112.5 29ZM113.5 36.2886V37.2886H114.647L114.491 36.1527L113.5 36.2886ZM108.5 36.2886V35.2886H106.982L107.581 36.6834L108.5 36.2886ZM112.5 45.5962V46.5962H114.018L113.419 45.2014L112.5 45.5962ZM106 45.5962V44.5962H105V45.5962H106ZM106 51V52H107V51H106ZM71 51H70V52H71V51ZM71 45.5962V44.5962H70V45.5962H71ZM77.5 45.5962V46.5962H79.0182L78.4188 45.2014L77.5 45.5962ZM73.5 36.2886V35.2886H71.9818L72.5812 36.6834L73.5 36.2886ZM78.5 36.2886V37.2886H79.6466L79.4907 36.1527L78.5 36.2886ZM77.5 29L78.4907 28.8641L78.3999 28.2024L77.754 28.0328L77.5 29ZM71 27.2931H70V28.0644L70.746 28.2603L71 27.2931ZM71 15.5L71 14.5L70 14.5V15.5H71ZM78 15.5L78 16.5L79 16.5V15.5H78ZM77.4291 12.6299L76.5052 13.0126L76.5052 13.0126L77.4291 12.6299ZM75.8033 10.1967L76.5104 9.48959L76.5104 9.48959L75.8033 10.1967ZM73.3701 8.5709L72.9874 9.49478L72.9874 9.49478L73.3701 8.5709ZM70 1V8.01668H72V1H70ZM106 0H71V2H106V0ZM107 5V1H105V5H107ZM106 6H113V4H106V6ZM112 5V20H114V5H112ZM113 19H106V21H113V19ZM107 27.2931V20H105V27.2931H107ZM112.754 28.0328L106.254 26.3259L105.746 28.2603L112.246 29.9672L112.754 28.0328ZM114.491 36.1527L113.491 28.8641L111.509 29.1359L112.509 36.4245L114.491 36.1527ZM108.5 37.2886H113.5V35.2886H108.5V37.2886ZM113.419 45.2014L109.419 35.8937L107.581 36.6834L111.581 45.991L113.419 45.2014ZM106 46.5962H112.5V44.5962H106V46.5962ZM107 51V45.5962H105V51H107ZM71 52H106V50H71V52ZM70 45.5962V51H72V45.5962H70ZM77.5 44.5962H71V46.5962H77.5V44.5962ZM72.5812 36.6834L76.5812 45.991L78.4188 45.2014L74.4188 35.8937L72.5812 36.6834ZM78.5 35.2886H73.5V37.2886H78.5V35.2886ZM76.5093 29.1359L77.5093 36.4245L79.4907 36.1527L78.4907 28.8641L76.5093 29.1359ZM70.746 28.2603L77.246 29.9672L77.754 28.0328L71.254 26.3259L70.746 28.2603ZM70 15.5V27.2931H72V15.5H70ZM78 14.5L71 14.5L71 16.5L78 16.5L78 14.5ZM76.5052 13.0126C76.8319 13.8012 77 14.6464 77 15.5H79C79 14.3838 78.7801 13.2785 78.353 12.2472L76.5052 13.0126ZM75.0962 10.9038C75.6998 11.5074 76.1786 12.2239 76.5052 13.0126L78.353 12.2472C77.9258 11.2159 77.2997 10.2789 76.5104 9.48959L75.0962 10.9038ZM72.9874 9.49478C73.7761 9.82144 74.4926 10.3002 75.0962 10.9038L76.5104 9.48959C75.7211 8.70029 74.7841 8.07419 73.7528 7.64702L72.9874 9.49478ZM70.9333 9.01446C71.6387 9.06159 72.3326 9.22353 72.9874 9.49478L73.7528 7.64702C72.8964 7.2923 71.989 7.08054 71.0667 7.01891L70.9333 9.01446Z" fill="black"/>
<path d="M36 8.01668H35V8.9521L35.9333 9.01446L36 8.01668ZM36 1V0H35V1H36ZM38.3701 8.5709L37.9874 9.49478L37.9874 9.49478L38.3701 8.5709ZM40.8033 10.1967L41.5104 9.48959L41.5104 9.48959L40.8033 10.1967ZM42.4291 12.6299L41.5052 13.0126L41.5052 13.0126L42.4291 12.6299ZM43 15.5L43 16.5L44 16.5V15.5H43ZM36 15.5L36 14.5L35 14.5V15.5H36ZM36 27.8308H35V28.2511L35.3003 28.5452L36 27.8308ZM44.6348 36.2886L45.339 36.9986L46.0593 36.2841L45.3345 35.5742L44.6348 36.2886ZM36 44.8524L35.2958 44.1423L35 44.4357V44.8524H36ZM36 51H35V52H36V51ZM71 51V52H72V51H71ZM71 45.5962V44.5962H70V45.5962H71ZM77.5 45.5962V46.5962H79.0182L78.4188 45.2014L77.5 45.5962ZM73.5 36.2886V35.2886H71.9818L72.5812 36.6834L73.5 36.2886ZM78.5 36.2886V37.2886H79.6466L79.4907 36.1527L78.5 36.2886ZM77.5 29L78.4907 28.8641L78.3999 28.2024L77.754 28.0328L77.5 29ZM71 27.2931H70V28.0644L70.746 28.2603L71 27.2931ZM71 15.5L71 14.5L70 14.5V15.5H71ZM78 15.5L78 16.5L79 16.5V15.5H78ZM77.4291 12.6299L76.5052 13.0126L76.5052 13.0126L77.4291 12.6299ZM75.8033 10.1967L76.5104 9.48959L76.5104 9.48959L75.8033 10.1967ZM73.3701 8.5709L72.9874 9.49478L72.9874 9.49478L73.3701 8.5709ZM71 8.01668H70V8.9521L70.9333 9.01446L71 8.01668ZM71 1H72V0H71V1ZM37 8.01668V1H35V8.01668H37ZM38.7528 7.64702C37.8964 7.2923 36.989 7.08054 36.0667 7.01891L35.9333 9.01446C36.6387 9.06159 37.3326 9.22353 37.9874 9.49478L38.7528 7.64702ZM41.5104 9.48959C40.7211 8.70029 39.7841 8.07419 38.7528 7.64702L37.9874 9.49478C38.7761 9.82144 39.4926 10.3002 40.0962 10.9038L41.5104 9.48959ZM43.353 12.2472C42.9258 11.2159 42.2997 10.2789 41.5104 9.48959L40.0962 10.9038C40.6998 11.5074 41.1786 12.2239 41.5052 13.0126L43.353 12.2472ZM44 15.5C44 14.3838 43.7801 13.2785 43.353 12.2472L41.5052 13.0126C41.8319 13.8012 42 14.6464 42 15.5H44ZM36 16.5L43 16.5L43 14.5L36 14.5L36 16.5ZM37 27.8308V15.5H35V27.8308H37ZM45.3345 35.5742L36.6997 27.1164L35.3003 28.5452L43.935 37.003L45.3345 35.5742ZM36.7042 45.5624L45.339 36.9986L43.9306 35.5786L35.2958 44.1423L36.7042 45.5624ZM37 51V44.8524H35V51H37ZM71 50H36V52H71V50ZM70 45.5962V51H72V45.5962H70ZM77.5 44.5962H71V46.5962H77.5V44.5962ZM72.5812 36.6834L76.5812 45.991L78.4188 45.2014L74.4188 35.8937L72.5812 36.6834ZM78.5 35.2886H73.5V37.2886H78.5V35.2886ZM76.5093 29.1359L77.5093 36.4245L79.4907 36.1527L78.4907 28.8641L76.5093 29.1359ZM70.746 28.2603L77.246 29.9672L77.754 28.0328L71.254 26.3259L70.746 28.2603ZM70 15.5V27.2931H72V15.5H70ZM78 14.5L71 14.5L71 16.5L78 16.5L78 14.5ZM76.5052 13.0126C76.8319 13.8012 77 14.6464 77 15.5H79C79 14.3838 78.7801 13.2785 78.353 12.2472L76.5052 13.0126ZM75.0962 10.9038C75.6998 11.5074 76.1786 12.2239 76.5052 13.0126L78.353 12.2472C77.9258 11.2159 77.2997 10.2789 76.5104 9.48959L75.0962 10.9038ZM72.9874 9.49478C73.7761 9.82144 74.4926 10.3002 75.0962 10.9038L76.5104 9.48959C75.7211 8.70029 74.7841 8.07419 73.7528 7.64702L72.9874 9.49478ZM70.9333 9.01446C71.6387 9.06159 72.3326 9.22353 72.9874 9.49478L73.7528 7.64702C72.8964 7.2923 71.989 7.08054 71.0667 7.01891L70.9333 9.01446ZM70 1V8.01668H72V1H70ZM36 2H71V0H36V2Z" fill="black"/>
<path d="M1 45.5L0.295818 44.79L0 45.0834V45.5H1ZM10.3848 36.1924L11.089 36.9024L11.8093 36.188L11.0845 35.478L10.3848 36.1924ZM1 51H0V52H1V51ZM36 51V52H37V51H36ZM36 44.8524L35.2958 44.1423L35 44.4357V44.8524H36ZM44.6348 36.2886L45.339 36.9986L46.0593 36.2841L45.3345 35.5742L44.6348 36.2886ZM36 27.8308H35V28.2511L35.3003 28.5452L36 27.8308ZM36 15.5V14.5H35V15.5H36ZM43 15.5V16.5H44V15.5H43ZM42.4291 12.6299L41.5052 13.0126L41.5052 13.0126L42.4291 12.6299ZM40.8033 10.1967L41.5104 9.48959L41.5104 9.48959L40.8033 10.1967ZM38.3701 8.5709L38.7528 7.64702L38.7528 7.64702L38.3701 8.5709ZM36 8.01669H35V8.9521L35.9333 9.01446L36 8.01669ZM36 1H37V0H36V1ZM1 1V0H0V1H1ZM1 5.0164H0V5.95275L0.934322 6.01424L1 5.0164ZM1 19.9836L0.934322 18.9858L0 19.0473V19.9836H1ZM1 27H0V27.4203L0.300254 27.7144L1 27ZM1.70418 46.21L11.089 36.9024L9.6806 35.4824L0.295818 44.79L1.70418 46.21ZM2 51V45.5H0V51H2ZM36 50H1V52H36V50ZM35 44.8524V51H37V44.8524H35ZM43.9306 35.5786L35.2958 44.1423L36.7042 45.5624L45.339 36.9986L43.9306 35.5786ZM35.3003 28.5452L43.935 37.003L45.3345 35.5742L36.6997 27.1164L35.3003 28.5452ZM35 15.5V27.8308H37V15.5H35ZM43 14.5H36V16.5H43V14.5ZM41.5052 13.0126C41.8319 13.8012 42 14.6464 42 15.5H44C44 14.3838 43.7801 13.2785 43.353 12.2472L41.5052 13.0126ZM40.0962 10.9038C40.6998 11.5074 41.1786 12.2239 41.5052 13.0126L43.353 12.2472C42.9258 11.2159 42.2997 10.2789 41.5104 9.48959L40.0962 10.9038ZM37.9874 9.49478C38.7761 9.82144 39.4926 10.3002 40.0962 10.9038L41.5104 9.48959C40.7211 8.70029 39.7841 8.07419 38.7528 7.64702L37.9874 9.49478ZM35.9333 9.01446C36.6387 9.06159 37.3326 9.22353 37.9874 9.49478L38.7528 7.64702C37.8964 7.2923 36.989 7.08054 36.0667 7.01891L35.9333 9.01446ZM35 1V8.01669H37V1H35ZM1 2H36V0H1V2ZM2 5.0164V1H0V5.0164H2ZM9 12.5C9 7.9956 5.49686 4.31022 1.06568 4.01856L0.934322 6.01424C4.32118 6.23717 7 9.05616 7 12.5H9ZM1.06568 20.9814C5.49686 20.6898 9 17.0044 9 12.5H7C7 15.9438 4.32118 18.7628 0.934322 18.9858L1.06568 20.9814ZM2 27V19.9836H0V27H2ZM11.0845 35.478L1.69975 26.2856L0.300254 27.7144L9.68503 36.9068L11.0845 35.478Z" fill="black"/>
</svg>
