<svg width="100%" height="100%" viewBox="0 0 155 52" fill="none" xmlns="http://www.w3.org/2000/svg">
<path d="M107 1V0H106V1H107ZM107 8.01668H106V8.9521L106.933 9.01446L107 8.01668ZM142 1H143V0H142V1ZM142 6H141V7H142V6ZM151 6L151.555 6.83205L154.303 5H151V6ZM143.5 11L142.945 10.1679L141.103 11.3959L143.242 11.9662L143.5 11ZM151 13L151.371 13.9285L154.168 12.8098L151.258 12.0338L151 13ZM143.5 16L143.129 15.0715L141.364 15.7775L142.945 16.8321L143.5 16ZM151 21V22H154.303L151.555 20.1679L151 21ZM142 21V20H141V21H142ZM142 29.3633H141V29.8728L141.412 30.1723L142 29.3633ZM148.633 34.1824L149.584 34.4914L149.808 33.8004L149.221 33.3734L148.633 34.1824ZM145.908 42.5676V43.5676H146.635L146.859 42.8766L145.908 42.5676ZM142 42.5676V41.5676H141V42.5676H142ZM142 51V52H143V51H142ZM107 51H106V52H107V51ZM107 42.5676V41.5676H106V42.5676H107ZM110.908 42.5676V43.5676H111.635L111.859 42.8766L110.908 42.5676ZM113.633 34.1824L114.584 34.4914L114.808 33.8004L114.221 33.3734L113.633 34.1824ZM107 29.3633H106V29.8728L106.412 30.1723L107 29.3633ZM107 15.5L107 14.5L106 14.5V15.5H107ZM114 15.5L114 16.5L115 16.5V15.5H114ZM113.429 12.6299L112.505 13.0126L112.505 13.0126L113.429 12.6299ZM111.803 10.1967L112.51 9.48959L112.51 9.48959L111.803 10.1967ZM109.37 8.5709L108.987 9.49478L108.987 9.49478L109.37 8.5709ZM106 1V8.01668H108V1H106ZM142 0H107V2H142V0ZM143 6V1H141V6H143ZM142 7H151V5H142V7ZM150.445 5.16795L142.945 10.1679L144.055 11.8321L151.555 6.83205L150.445 5.16795ZM143.242 11.9662L150.742 13.9662L151.258 12.0338L143.758 10.0338L143.242 11.9662ZM150.629 12.0715L143.129 15.0715L143.871 16.9285L151.371 13.9285L150.629 12.0715ZM142.945 16.8321L150.445 21.8321L151.555 20.1679L144.055 15.1679L142.945 16.8321ZM151 20H142V22H151V20ZM143 29.3633V21H141V29.3633H143ZM149.221 33.3734L142.588 28.5543L141.412 30.1723L148.045 34.9914L149.221 33.3734ZM146.859 42.8766L149.584 34.4914L147.682 33.8734L144.957 42.2586L146.859 42.8766ZM142 43.5676H145.908V41.5676H142V43.5676ZM143 51V42.5676H141V51H143ZM107 52H142V50H107V52ZM106 42.5676V51H108V42.5676H106ZM110.908 41.5676H107V43.5676H110.908V41.5676ZM112.682 33.8734L109.957 42.2586L111.859 42.8766L114.584 34.4914L112.682 33.8734ZM106.412 30.1723L113.045 34.9914L114.221 33.3734L107.588 28.5543L106.412 30.1723ZM106 15.5V29.3633H108V15.5H106ZM114 14.5L107 14.5L107 16.5L114 16.5L114 14.5ZM112.505 13.0126C112.832 13.8012 113 14.6464 113 15.5H115C115 14.3838 114.78 13.2785 114.353 12.2472L112.505 13.0126ZM111.096 10.9038C111.7 11.5074 112.179 12.2239 112.505 13.0126L114.353 12.2472C113.926 11.2159 113.3 10.2789 112.51 9.48959L111.096 10.9038ZM108.987 9.49478C109.776 9.82144 110.493 10.3002 111.096 10.9038L112.51 9.48959C111.721 8.70029 110.784 8.07419 109.753 7.64702L108.987 9.49478ZM106.933 9.01446C107.639 9.06159 108.333 9.22353 108.987 9.49478L109.753 7.64702C108.896 7.2923 107.989 7.08054 107.067 7.01891L106.933 9.01446Z" fill="black"/>
<path d="M72 8.01668H71V8.9521L71.9333 9.01446L72 8.01668ZM72 1V0H71V1H72ZM74.3701 8.5709L73.9874 9.49478L73.9874 9.49478L74.3701 8.5709ZM76.8033 10.1967L77.5104 9.48959L77.5104 9.48959L76.8033 10.1967ZM78.4291 12.6299L77.5052 13.0126L77.5052 13.0126L78.4291 12.6299ZM79 15.5L79 16.5L80 16.5V15.5H79ZM72 15.5L72 14.5L71 14.5V15.5H72ZM72 27.8308H71V28.2511L71.3003 28.5452L72 27.8308ZM80.6348 36.2886L81.339 36.9986L82.0593 36.2841L81.3345 35.5742L80.6348 36.2886ZM72 44.8524L71.2958 44.1423L71 44.4357V44.8524H72ZM72 51H71V52H72V51ZM107 51V52H108V51H107ZM107 42.5676V41.5676H106V42.5676H107ZM110.908 42.5676V43.5676H111.635L111.859 42.8766L110.908 42.5676ZM113.633 34.1824L114.584 34.4914L114.808 33.8004L114.221 33.3734L113.633 34.1824ZM107 29.3633H106V29.8728L106.412 30.1723L107 29.3633ZM107 15.5L107 14.5L106 14.5V15.5H107ZM114 15.5L114 16.5L115 16.5V15.5H114ZM113.429 12.6299L112.505 13.0126L112.505 13.0126L113.429 12.6299ZM111.803 10.1967L112.51 9.48959L112.51 9.48959L111.803 10.1967ZM109.37 8.5709L108.987 9.49478L108.987 9.49478L109.37 8.5709ZM107 8.01668H106V8.9521L106.933 9.01446L107 8.01668ZM107 1H108V0H107V1ZM73 8.01668V1H71V8.01668H73ZM74.7528 7.64702C73.8964 7.2923 72.989 7.08054 72.0667 7.01891L71.9333 9.01446C72.6387 9.06159 73.3326 9.22353 73.9874 9.49478L74.7528 7.64702ZM77.5104 9.48959C76.7211 8.70029 75.7841 8.07419 74.7528 7.64702L73.9874 9.49478C74.7761 9.82144 75.4926 10.3002 76.0962 10.9038L77.5104 9.48959ZM79.353 12.2472C78.9258 11.2159 78.2997 10.2789 77.5104 9.48959L76.0962 10.9038C76.6998 11.5074 77.1786 12.2239 77.5052 13.0126L79.353 12.2472ZM80 15.5C80 14.3838 79.7801 13.2785 79.353 12.2472L77.5052 13.0126C77.8319 13.8012 78 14.6464 78 15.5H80ZM72 16.5L79 16.5L79 14.5L72 14.5L72 16.5ZM73 27.8308V15.5H71V27.8308H73ZM81.3345 35.5742L72.6997 27.1164L71.3003 28.5452L79.935 37.003L81.3345 35.5742ZM72.7042 45.5624L81.339 36.9986L79.9306 35.5786L71.2958 44.1423L72.7042 45.5624ZM73 51V44.8524H71V51H73ZM107 50H72V52H107V50ZM106 42.5676V51H108V42.5676H106ZM110.908 41.5676H107V43.5676H110.908V41.5676ZM112.682 33.8734L109.957 42.2586L111.859 42.8766L114.584 34.4914L112.682 33.8734ZM106.412 30.1723L113.045 34.9914L114.221 33.3734L107.588 28.5543L106.412 30.1723ZM106 15.5V29.3633H108V15.5H106ZM114 14.5L107 14.5L107 16.5L114 16.5L114 14.5ZM112.505 13.0126C112.832 13.8012 113 14.6464 113 15.5H115C115 14.3838 114.78 13.2785 114.353 12.2472L112.505 13.0126ZM111.096 10.9038C111.7 11.5074 112.179 12.2239 112.505 13.0126L114.353 12.2472C113.926 11.2159 113.3 10.2789 112.51 9.48959L111.096 10.9038ZM108.987 9.49478C109.776 9.82144 110.493 10.3002 111.096 10.9038L112.51 9.48959C111.721 8.70029 110.784 8.07419 109.753 7.64702L108.987 9.49478ZM106.933 9.01446C107.639 9.06159 108.333 9.22353 108.987 9.49478L109.753 7.64702C108.896 7.2923 107.989 7.08054 107.067 7.01891L106.933 9.01446ZM106 1V8.01668H108V1H106ZM72 2H107V0H72V2Z" fill="black"/>
<path d="M37 6.0164H36V6.95275L36.9343 7.01424L37 6.0164ZM37 1V0H36V1H37ZM37 20.9836L36.9343 19.9858L36 20.0473V20.9836H37ZM37 29H36V30H37V29ZM44 29H45V28H44V29ZM44 44V45H45V44H44ZM37 44V43H36V44H37ZM37 51H36V52H37V51ZM72 51V52H73V51H72ZM72 44.8524L71.2958 44.1423L71 44.4357V44.8524H72ZM80.6348 36.2886L81.339 36.9986L82.0593 36.2841L81.3345 35.5742L80.6348 36.2886ZM72 27.8308H71V28.2511L71.3003 28.5452L72 27.8308ZM72 15.5L72 14.5L71 14.5V15.5H72ZM79 15.5L79 16.5L80 16.5V15.5H79ZM78.4291 12.6299L77.5052 13.0126L77.5052 13.0126L78.4291 12.6299ZM76.8033 10.1967L77.5104 9.48959L77.5104 9.48959L76.8033 10.1967ZM74.3701 8.5709L73.9874 9.49478L73.9874 9.49478L74.3701 8.5709ZM72 8.01668H71V8.9521L71.9333 9.01446L72 8.01668ZM72 1H73V0H72V1ZM38 6.0164V1H36V6.0164H38ZM45 13.5C45 8.9956 41.4969 5.31022 37.0657 5.01856L36.9343 7.01424C40.3212 7.23717 43 10.0562 43 13.5H45ZM37.0657 21.9814C41.4969 21.6898 45 18.0044 45 13.5H43C43 16.9438 40.3212 19.7628 36.9343 19.9858L37.0657 21.9814ZM38 29V20.9836H36V29H38ZM44 28H37V30H44V28ZM45 44V29H43V44H45ZM37 45H44V43H37V45ZM38 51V44H36V51H38ZM72 50H37V52H72V50ZM71 44.8524V51H73V44.8524H71ZM79.9306 35.5786L71.2958 44.1423L72.7042 45.5624L81.339 36.9986L79.9306 35.5786ZM71.3003 28.5452L79.935 37.003L81.3345 35.5742L72.6997 27.1164L71.3003 28.5452ZM71 15.5V27.8308H73V15.5H71ZM79 14.5L72 14.5L72 16.5L79 16.5L79 14.5ZM77.5052 13.0126C77.8319 13.8012 78 14.6464 78 15.5H80C80 14.3838 79.7801 13.2785 79.353 12.2472L77.5052 13.0126ZM76.0962 10.9038C76.6998 11.5074 77.1786 12.2239 77.5052 13.0126L79.353 12.2472C78.9258 11.2159 78.2997 10.2789 77.5104 9.48959L76.0962 10.9038ZM73.9874 9.49478C74.7761 9.82144 75.4926 10.3002 76.0962 10.9038L77.5104 9.48959C76.7211 8.70029 75.7841 8.07419 74.7528 7.64702L73.9874 9.49478ZM71.9333 9.01446C72.6387 9.06159 73.3326 9.22353 73.9874 9.49478L74.7528 7.64702C73.8964 7.2923 72.989 7.08054 72.0667 7.01891L71.9333 9.01446ZM71 1V8.01668H73V1H71ZM37 2H72V0H37V2Z" fill="black"/>
<path d="M2 51H1V52H2V51ZM37 51V52H38V51H37ZM37 44V43H36V44H37ZM44 44V45H45V44H44ZM44 29H45V28H44V29ZM37 29H36V30H37V29ZM37 20.9836L36.9343 19.9858L36 20.0473V20.9836H37ZM37 6.0164H36V6.95275L36.9343 7.01424L37 6.0164ZM37 1H38V0H37V1ZM2 1V0H1V1H2ZM2 7.01668H1V8.08572L2.06666 8.01446L2 7.01668ZM4.56738 7.29057L4.29173 8.25182L4.29173 8.25182L4.56738 7.29057ZM8.41478 9.88856L9.02964 10.6772L9.81828 10.0623L9.20342 9.27371L8.41478 9.88856ZM2.5 14.5L1.88514 13.7114L0.79045 14.5648L1.94664 15.3329L2.5 14.5ZM8.74707 18.6502L9.58001 19.2036L10.1334 18.3706L9.30043 17.8173L8.74707 18.6502ZM5.10749 21.5321L4.75983 20.5945L4.75983 20.5945L5.10749 21.5321ZM2 21.9833L2.06666 20.9855L1 20.9143V21.9833H2ZM2 29H1V30H2V29ZM9 29H10V28H9V29ZM9 44V45H10V44H9ZM2 44V43H1V44H2ZM2 52H37V50H2V52ZM38 51V44H36V51H38ZM37 45H44V43H37V45ZM45 44V29H43V44H45ZM44 28H37V30H44V28ZM38 29V20.9836H36V29H38ZM37.0657 21.9814C41.4969 21.6898 45 18.0044 45 13.5H43C43 16.9438 40.3212 19.7628 36.9343 19.9858L37.0657 21.9814ZM45 13.5C45 8.9956 41.4969 5.31022 37.0657 5.01856L36.9343 7.01424C40.3212 7.23717 43 10.0562 43 13.5H45ZM38 6.0164V1H36V6.0164H38ZM37 0H2V2H37V0ZM1 1V7.01668H3V1H1ZM2.06666 8.01446C2.81198 7.96467 3.56488 8.04339 4.29173 8.25182L4.84303 6.32931C3.89253 6.05674 2.90794 5.9538 1.93334 6.01891L2.06666 8.01446ZM4.29173 8.25182C5.61336 8.63082 6.78078 9.41913 7.62615 10.5034L9.20342 9.27371C8.09794 7.85578 6.57132 6.82491 4.84303 6.32931L4.29173 8.25182ZM7.79993 9.09993L1.88514 13.7114L3.11486 15.2886L9.02964 10.6772L7.79993 9.09993ZM1.94664 15.3329L8.19371 19.4831L9.30043 17.8173L3.05336 13.6671L1.94664 15.3329ZM7.91412 18.0968C7.15331 19.242 6.04895 20.1165 4.75983 20.5945L5.45516 22.4698C7.14094 21.8447 8.5851 20.7011 9.58001 19.2036L7.91412 18.0968ZM4.75983 20.5945C3.89502 20.9152 2.97695 21.0464 2.06666 20.9855L1.93334 22.9811C3.12366 23.0606 4.32424 22.8891 5.45516 22.4698L4.75983 20.5945ZM1 21.9833V29H3V21.9833H1ZM2 30H9V28H2V30ZM8 29V44H10V29H8ZM9 43H2V45H9V43ZM1 44V51H3V44H1Z" fill="black"/>
</svg>
