<svg xmlns="http://www.w3.org/2000/svg" width="100%" height="100%" fill="currentColor" viewBox="0 0 25 25">
  <path d="M13.9025 6H0V21H3.86952V16.1199H11.2841L14.6671 21H19L15.2695 16.0975C16.4281 15.9176 17.2622 15.4903 17.772 14.8156C18.2817 14.141 18.5366 13.0615 18.5366 11.6222V10.4978C18.5366 9.64318 18.444 8.96855 18.2817 8.45125C18.1195 7.93403 17.8415 7.48425 17.4476 7.07946C17.0305 6.69715 16.5671 6.42729 16.011 6.24737C15.4549 6.08995 14.7597 6 13.9025 6ZM13.2769 12.8141H3.86952V9.30582H13.2769C13.8098 9.30582 14.1805 9.3958 14.3659 9.55321C14.5512 9.71062 14.6671 10.003 14.6671 10.4303V11.6897C14.6671 12.1395 14.5512 12.4318 14.3659 12.5892C14.1805 12.7466 13.8098 12.8141 13.2769 12.8141Z" fill="black"></path>
</svg>