<?xml version="1.0" encoding="UTF-8"?>
<svg xmlns="http://www.w3.org/2000/svg" xmlns:xlink="http://www.w3.org/1999/xlink" width="100%" height="100%" viewBox="0 0 200 200" version="1.1">
<g id="surface1">
<path style=" stroke:none;fill-rule:nonzero;fill:rgb(100%,100%,100%);fill-opacity:1;" d="M 58.578125 0 L 0 58.578125 L 0 141.421875 L 58.578125 200 L 141.421875 200 L 200 141.421875 L 200 58.578125 L 141.421875 0 Z M 58.578125 0 "/>
<path style="fill:none;stroke-width:2;stroke-linecap:butt;stroke-linejoin:miter;stroke:rgb(0%,0%,0%);stroke-opacity:1;stroke-miterlimit:4;" d="M 0.998047 494.566406 L 0.998047 205.433594 L 205.433594 0.998047 L 494.566406 0.998047 L 699.001953 205.433594 L 699.001953 494.566406 L 494.566406 699.001953 L 205.433594 699.001953 Z M 0.998047 494.566406 " transform="matrix(0.285714,0,0,0.285714,0,0)"/>
<path style=" stroke:none;fill-rule:nonzero;fill:rgb(100%,0%,0%);fill-opacity:1;" d="M 60.945312 5.714844 L 5.714844 60.945312 L 5.714844 139.054688 L 60.945312 194.285156 L 139.054688 194.285156 L 194.285156 139.054688 L 194.285156 60.945312 L 139.054688 5.714844 Z M 35.992188 70.535156 C 40.300781 70.855469 44.015625 72.140625 47.132812 74.394531 C 50.253906 76.644531 51.886719 77.929688 52.035156 78.25 L 46.6875 85.269531 C 46.6875 85.035156 45.800781 84.09375 44.019531 82.457031 C 42.234375 80.816406 39.554688 79.886719 35.992188 79.652344 C 32.5 79.828125 30.128906 80.882812 28.867188 82.8125 C 27.601562 84.742188 27.007812 86.492188 27.082031 88.070312 C 27.191406 90.441406 28.453125 92.140625 30.867188 93.167969 C 33.28125 94.199219 36.183594 95.078125 39.5625 95.792969 C 43.773438 96.863281 47.082031 98.757812 49.507812 101.492188 C 51.933594 104.222656 53.171875 107.703125 53.222656 111.929688 C 53.199219 115.730469 51.617188 119.53125 48.472656 123.332031 C 45.328125 127.128906 40.769531 129.171875 34.804688 129.464844 C 31.207031 129.34375 28.003906 128.496094 25.207031 126.917969 C 22.40625 125.34375 20.210938 123.765625 18.597656 122.1875 C 16.988281 120.609375 16.15625 119.765625 16.125 119.644531 L 21.980469 113.929688 C 21.996094 114.195312 23.097656 115.273438 25.277344 117.144531 C 27.457031 119.015625 30.628906 120.082031 34.804688 120.347656 C 38.578125 120.15625 41.128906 119.132812 42.457031 117.277344 C 43.78125 115.421875 44.398438 113.867188 44.3125 112.625 C 44.402344 111.894531 44.363281 110.980469 44.195312 109.867188 C 44.03125 108.753906 43.199219 107.621094 41.707031 106.472656 C 40.210938 105.328125 37.515625 104.339844 33.617188 103.507812 C 27.019531 101.945312 22.832031 99.636719 21.0625 96.582031 C 19.292969 93.527344 18.523438 90.6875 18.757812 88.070312 C 18.84375 83.042969 20.457031 78.890625 23.589844 75.617188 C 26.722656 72.34375 30.851562 70.652344 35.992188 70.535156 Z M 119.355469 70.535156 C 126.746094 70.75 132.25 73.628906 135.867188 79.179688 C 139.484375 84.730469 141.28125 91.667969 141.269531 100 C 141.28125 108.332031 139.484375 115.269531 135.867188 120.820312 C 132.25 126.371094 126.746094 129.25 119.355469 129.464844 C 111.96875 129.25 106.464844 126.371094 102.847656 120.820312 C 99.230469 115.269531 97.425781 108.332031 97.4375 100 C 97.425781 91.667969 99.230469 84.730469 102.847656 79.179688 C 106.464844 73.628906 111.96875 70.75 119.355469 70.535156 Z M 57.472656 71.9375 L 94.867188 71.9375 L 94.867188 80.355469 L 80.679688 80.355469 L 80.679688 128.0625 L 71.660156 128.0625 L 71.660156 80.355469 L 57.472656 80.355469 Z M 148.382812 71.9375 L 167.332031 71.9375 C 174.257812 72.257812 179.167969 74.421875 182.0625 78.429688 C 184.957031 82.433594 186.363281 86.347656 186.277344 90.179688 C 186.1875 94.007812 184.429688 97.921875 181.007812 101.929688 C 177.589844 105.933594 173.03125 108.097656 167.332031 108.417969 L 158.207031 108.417969 L 158.207031 128.0625 L 148.382812 128.0625 Z M 119.355469 79.652344 C 115.585938 79.710938 112.527344 81.523438 110.1875 85.089844 C 107.847656 88.65625 106.640625 93.628906 106.570312 100 C 106.640625 106.371094 107.847656 111.34375 110.1875 114.910156 C 112.527344 118.476562 115.585938 120.289062 119.355469 120.347656 C 123.128906 120.289062 126.1875 118.476562 128.527344 114.910156 C 130.867188 111.34375 132.074219 106.371094 132.144531 100 C 132.074219 93.628906 130.867188 88.65625 128.527344 85.089844 C 126.1875 81.523438 123.128906 79.710938 119.355469 79.652344 Z M 158.207031 80.355469 L 158.207031 100 L 164.527344 100 C 167.449219 100.027344 170.019531 99.273438 172.242188 97.722656 C 174.460938 96.175781 175.632812 93.65625 175.75 90.179688 C 175.632812 86.699219 174.460938 84.183594 172.242188 82.632812 C 170.019531 81.085938 167.449219 80.328125 164.527344 80.355469 Z M 158.207031 80.355469 "/>
</g>
</svg>
