<svg id="svg" version="1.1" xmlns="http://www.w3.org/2000/svg" xmlns:xlink="http://www.w3.org/1999/xlink" width="400" height="67.98866855524079" viewBox="0, 0, 400,67.98866855524079"><g id="svgg"><path id="path0" d="M163.993 7.393 C 163.943 7.444,163.360 7.500,162.697 7.517 C 162.033 7.533,161.456 7.602,161.415 7.670 C 161.373 7.738,160.550 7.847,159.586 7.913 C 158.622 7.978,157.833 8.100,157.833 8.183 C 157.833 8.266,157.636 8.333,157.394 8.333 C 156.798 8.333,154.770 8.705,154.667 8.834 C 154.621 8.891,154.152 9.032,153.625 9.147 C 153.098 9.263,152.667 9.415,152.667 9.485 C 152.667 9.556,152.367 9.712,152.000 9.833 C 151.633 9.954,151.333 10.116,151.333 10.193 C 151.333 10.270,151.228 10.333,151.099 10.333 C 150.309 10.333,148.460 13.047,148.225 14.551 C 148.165 14.936,148.044 15.297,147.955 15.355 C 147.860 15.417,147.733 18.285,147.644 22.347 C 147.562 26.135,147.430 29.275,147.353 29.325 C 147.275 29.376,147.133 30.729,147.038 32.333 C 146.943 33.938,146.825 35.512,146.776 35.833 C 146.619 36.849,146.338 44.620,146.336 48.008 C 146.334 50.176,146.271 51.329,146.148 51.452 C 145.883 51.717,145.843 63.688,146.106 64.015 C 146.210 64.144,146.350 64.510,146.418 64.827 C 146.583 65.596,147.563 67.000,147.936 67.000 C 148.043 67.000,148.172 67.106,148.221 67.236 C 148.561 68.122,178.032 68.067,178.667 67.179 C 178.713 67.115,179.181 66.968,179.708 66.853 C 180.235 66.737,180.667 66.581,180.667 66.507 C 180.667 66.432,180.929 66.321,181.250 66.261 C 181.571 66.201,181.833 66.092,181.833 66.019 C 181.833 65.946,182.133 65.796,182.500 65.686 C 182.867 65.577,183.167 65.427,183.167 65.353 C 183.167 65.280,183.357 65.133,183.590 65.027 C 184.015 64.834,184.253 64.663,184.845 64.125 C 185.022 63.965,185.229 63.833,185.304 63.833 C 185.445 63.833,187.144 62.050,187.750 61.267 C 187.933 61.030,188.217 60.672,188.380 60.471 C 188.542 60.270,188.719 59.932,188.773 59.719 C 188.826 59.507,188.931 59.333,189.007 59.333 C 189.083 59.333,189.240 59.071,189.356 58.750 C 189.472 58.429,189.627 58.167,189.700 58.167 C 189.773 58.167,189.833 58.033,189.833 57.870 C 189.833 57.707,189.935 57.426,190.060 57.245 C 190.184 57.065,190.382 56.504,190.500 56.000 C 190.618 55.496,190.780 55.041,190.859 54.989 C 190.938 54.938,191.084 54.075,191.184 53.073 C 191.284 52.070,191.434 51.120,191.516 50.961 C 191.722 50.565,191.708 47.379,191.500 47.250 C 191.408 47.193,191.333 46.854,191.333 46.497 C 191.333 45.562,190.982 43.333,190.835 43.333 C 190.766 43.333,190.660 42.962,190.600 42.507 C 190.540 42.053,190.389 41.580,190.266 41.456 C 190.142 41.332,189.988 40.992,189.924 40.699 C 189.859 40.406,189.752 40.167,189.685 40.167 C 189.617 40.167,189.459 39.904,189.333 39.583 C 189.207 39.263,189.043 39.000,188.969 39.000 C 188.894 39.000,188.833 38.888,188.833 38.751 C 188.833 38.615,188.683 38.409,188.500 38.295 C 188.317 38.180,188.167 37.998,188.167 37.891 C 188.167 37.614,186.231 35.889,185.333 35.366 C 184.921 35.125,184.490 34.838,184.377 34.728 C 184.263 34.617,183.944 34.478,183.668 34.417 C 183.392 34.356,183.167 34.238,183.167 34.153 C 183.167 34.069,183.035 34.000,182.875 33.999 C 182.715 33.998,182.367 33.885,182.102 33.747 C 181.191 33.272,177.768 32.518,176.472 32.507 C 176.044 32.503,175.668 32.420,175.635 32.323 C 175.596 32.206,173.553 32.101,169.580 32.014 C 163.385 31.877,162.167 31.708,162.167 30.983 C 162.167 30.900,162.054 30.833,161.917 30.833 C 161.717 30.833,161.667 30.583,161.667 29.583 C 161.667 28.861,161.737 28.333,161.833 28.333 C 161.925 28.333,162.000 28.096,162.000 27.805 C 162.000 27.034,162.347 25.167,162.490 25.167 C 162.558 25.167,162.711 24.871,162.830 24.509 C 162.950 24.147,163.149 23.812,163.274 23.764 C 163.398 23.716,163.500 23.579,163.500 23.459 C 163.500 23.202,164.027 22.723,164.596 22.464 C 164.818 22.363,165.000 22.227,165.000 22.162 C 165.000 22.097,165.356 21.947,165.792 21.829 C 166.227 21.711,166.689 21.533,166.818 21.432 C 167.175 21.154,181.579 21.179,181.858 21.458 C 182.338 21.938,186.333 21.512,186.333 20.981 C 186.333 20.900,186.427 20.833,186.542 20.833 C 186.771 20.833,188.000 19.793,188.000 19.599 C 188.000 19.532,188.188 19.232,188.417 18.931 C 188.646 18.631,188.833 18.299,188.833 18.193 C 188.833 18.087,188.901 18.000,188.983 18.000 C 189.066 18.000,189.227 17.606,189.341 17.125 C 189.455 16.644,189.631 16.197,189.733 16.131 C 189.986 15.967,189.984 11.865,189.731 11.702 C 189.629 11.637,189.496 11.427,189.436 11.235 C 189.180 10.412,187.319 9.000,186.489 9.000 C 186.327 9.000,186.169 8.929,186.139 8.841 C 186.108 8.754,185.371 8.590,184.500 8.477 C 183.629 8.363,182.879 8.218,182.833 8.153 C 182.787 8.089,181.963 7.958,181.000 7.863 C 180.037 7.767,179.025 7.640,178.750 7.579 C 178.128 7.442,164.117 7.265,163.993 7.393 M318.835 14.868 C 318.057 14.955,317.382 15.082,317.335 15.152 C 317.288 15.222,316.669 15.376,315.958 15.496 C 315.248 15.616,314.667 15.766,314.667 15.830 C 314.667 15.894,314.254 16.046,313.750 16.167 C 313.246 16.288,312.833 16.434,312.833 16.492 C 312.833 16.550,312.496 16.688,312.083 16.798 C 311.671 16.908,311.333 17.068,311.333 17.153 C 311.333 17.238,311.108 17.356,310.833 17.417 C 310.558 17.477,310.333 17.590,310.333 17.667 C 310.333 17.744,310.052 17.899,309.708 18.011 C 309.365 18.122,309.023 18.316,308.950 18.440 C 308.877 18.565,308.740 18.667,308.647 18.667 C 308.554 18.667,308.232 18.854,307.931 19.083 C 307.631 19.313,307.307 19.500,307.210 19.500 C 307.114 19.500,306.992 19.612,306.940 19.750 C 306.887 19.887,306.733 20.000,306.597 20.000 C 306.461 20.000,306.290 20.094,306.217 20.208 C 306.143 20.323,305.636 20.792,305.089 21.250 C 303.998 22.164,303.167 22.989,303.167 23.158 C 303.167 23.217,302.907 23.525,302.589 23.841 C 302.271 24.158,302.008 24.494,302.005 24.588 C 302.002 24.682,301.869 24.886,301.708 25.040 C 301.086 25.640,300.833 25.951,300.833 26.117 C 300.833 26.211,300.688 26.473,300.510 26.699 C 300.333 26.925,300.137 27.310,300.076 27.555 C 300.014 27.800,299.900 28.000,299.822 28.000 C 299.744 28.000,299.590 28.300,299.480 28.667 C 299.370 29.033,299.224 29.333,299.156 29.333 C 299.087 29.333,298.935 29.708,298.817 30.167 C 298.700 30.625,298.547 31.000,298.479 31.000 C 298.410 31.000,298.303 31.337,298.241 31.750 C 298.179 32.162,298.070 32.500,297.998 32.500 C 297.927 32.500,297.778 33.156,297.668 33.958 C 297.558 34.760,297.382 35.597,297.276 35.817 C 297.009 36.372,297.038 44.105,297.308 44.375 C 297.414 44.480,297.503 44.833,297.507 45.158 C 297.516 46.024,298.292 49.840,298.491 50.000 C 298.548 50.046,298.697 50.496,298.822 51.000 C 298.947 51.504,299.144 52.067,299.259 52.250 C 299.373 52.433,299.518 52.827,299.580 53.125 C 299.642 53.423,299.750 53.667,299.820 53.667 C 299.890 53.667,300.037 53.967,300.147 54.333 C 300.257 54.700,300.404 55.000,300.473 55.000 C 300.543 55.000,300.695 55.262,300.811 55.583 C 300.927 55.904,301.092 56.167,301.177 56.167 C 301.263 56.167,301.333 56.275,301.333 56.408 C 301.333 56.541,301.431 56.710,301.551 56.783 C 301.671 56.857,301.866 57.155,301.983 57.446 C 302.101 57.738,302.303 58.017,302.432 58.066 C 302.561 58.116,302.667 58.253,302.667 58.371 C 302.667 58.489,302.929 58.827,303.250 59.121 C 303.571 59.415,303.834 59.715,303.834 59.787 C 303.836 59.978,307.045 63.000,307.247 63.000 C 307.307 63.000,307.601 63.188,307.902 63.417 C 308.202 63.646,308.527 63.833,308.623 63.833 C 308.719 63.833,308.838 63.939,308.888 64.068 C 308.937 64.196,309.208 64.352,309.489 64.414 C 309.770 64.476,310.000 64.585,310.000 64.656 C 310.000 64.837,311.521 65.608,312.149 65.746 C 312.434 65.809,312.667 65.923,312.667 66.000 C 312.667 66.077,312.910 66.192,313.208 66.256 C 313.506 66.320,313.826 66.433,313.919 66.507 C 314.110 66.660,315.655 67.068,317.500 67.453 C 319.939 67.962,328.686 67.757,329.413 67.174 C 329.507 67.099,329.921 66.985,330.333 66.920 C 330.746 66.855,331.289 66.703,331.540 66.581 C 331.791 66.460,332.222 66.311,332.498 66.250 C 332.774 66.190,333.000 66.085,333.000 66.018 C 333.000 65.951,333.375 65.800,333.833 65.683 C 334.292 65.565,334.667 65.404,334.667 65.325 C 334.667 65.245,334.967 65.090,335.333 64.980 C 335.700 64.870,336.000 64.733,336.000 64.674 C 336.000 64.615,336.262 64.472,336.583 64.356 C 336.904 64.240,337.167 64.087,337.167 64.016 C 337.167 63.945,337.357 63.800,337.590 63.694 C 337.822 63.588,338.103 63.425,338.215 63.331 C 339.079 62.601,339.433 62.334,339.538 62.334 C 339.736 62.333,343.000 59.039,343.000 58.840 C 343.000 58.739,343.110 58.614,343.244 58.563 C 343.378 58.511,343.533 58.327,343.588 58.152 C 343.643 57.978,343.777 57.741,343.886 57.626 C 344.217 57.276,345.000 56.018,345.000 55.837 C 345.000 55.743,345.072 55.667,345.160 55.667 C 345.248 55.667,345.410 55.367,345.520 55.000 C 345.630 54.633,345.771 54.333,345.833 54.333 C 345.896 54.333,346.046 53.921,346.167 53.417 C 346.288 52.912,346.444 52.500,346.515 52.500 C 346.585 52.500,346.737 52.069,346.853 51.542 C 346.968 51.015,347.114 50.546,347.177 50.500 C 347.440 50.308,348.151 46.729,348.160 45.552 C 348.164 45.076,348.242 44.640,348.333 44.583 C 348.431 44.523,348.500 43.582,348.500 42.323 C 348.500 40.997,348.436 40.167,348.333 40.167 C 348.242 40.167,348.167 39.862,348.167 39.490 C 348.167 38.460,347.796 35.667,347.659 35.667 C 347.593 35.667,347.487 35.254,347.424 34.750 C 347.361 34.246,347.257 33.833,347.193 33.833 C 347.129 33.833,346.980 33.329,346.864 32.713 C 346.747 32.097,346.590 31.554,346.516 31.505 C 346.442 31.456,346.288 31.023,346.174 30.542 C 346.060 30.060,345.916 29.667,345.853 29.667 C 345.791 29.667,345.640 29.329,345.518 28.917 C 345.396 28.504,345.245 28.167,345.182 28.167 C 345.119 28.167,344.966 27.885,344.843 27.542 C 344.720 27.198,344.574 26.879,344.518 26.833 C 344.357 26.701,344.014 26.129,343.744 25.542 C 343.608 25.244,343.422 25.000,343.331 25.000 C 343.241 25.000,343.167 24.924,343.167 24.832 C 343.167 24.670,342.517 23.713,342.000 23.115 C 341.219 22.210,339.018 20.000,338.895 19.997 C 338.815 19.996,338.573 19.808,338.358 19.580 C 338.142 19.353,337.860 19.167,337.733 19.167 C 337.605 19.167,337.500 19.090,337.500 18.996 C 337.500 18.902,337.313 18.754,337.083 18.667 C 336.854 18.580,336.667 18.440,336.667 18.356 C 336.667 18.272,336.484 18.157,336.262 18.101 C 336.039 18.045,335.758 17.906,335.637 17.791 C 335.347 17.516,333.636 16.667,333.373 16.667 C 333.259 16.667,333.167 16.601,333.167 16.521 C 333.167 16.441,332.936 16.329,332.653 16.272 C 332.371 16.216,331.902 16.063,331.612 15.933 C 331.321 15.803,330.671 15.609,330.167 15.503 C 329.662 15.396,329.100 15.245,328.917 15.165 C 327.865 14.710,321.854 14.533,318.835 14.868 M58.287 23.785 C 57.595 23.824,57.196 23.913,57.259 24.014 C 57.322 24.117,57.203 24.140,56.949 24.077 C 56.719 24.019,56.487 24.053,56.425 24.153 C 56.364 24.252,56.186 24.333,56.031 24.333 C 55.034 24.333,54.563 25.554,54.409 28.542 C 54.349 29.710,54.243 30.667,54.173 30.667 C 54.103 30.667,53.951 32.110,53.835 33.875 C 53.718 35.640,53.566 37.196,53.497 37.333 C 53.427 37.471,53.273 39.290,53.153 41.375 C 53.033 43.460,52.884 45.167,52.821 45.167 C 52.758 45.167,52.652 46.494,52.584 48.116 C 52.517 49.739,52.399 51.183,52.324 51.325 C 52.154 51.644,51.828 59.444,51.831 63.125 L 51.833 65.833 56.375 65.832 C 60.634 65.831,62.961 65.663,63.163 65.342 C 63.211 65.266,63.512 65.095,63.833 64.961 C 64.489 64.688,66.000 63.295,66.000 62.963 C 66.000 62.844,66.150 62.653,66.333 62.539 C 66.517 62.424,66.667 62.251,66.667 62.153 C 66.667 62.056,66.760 61.878,66.875 61.759 C 66.990 61.639,67.176 61.400,67.289 61.229 C 67.402 61.057,67.683 60.632,67.914 60.284 C 68.144 59.936,68.333 59.613,68.333 59.565 C 68.333 59.517,68.521 59.232,68.750 58.931 C 68.979 58.631,69.167 58.299,69.167 58.193 C 69.167 58.087,69.223 58.000,69.293 58.000 C 69.362 58.000,69.525 57.756,69.654 57.458 C 69.784 57.160,69.934 56.879,69.988 56.833 C 70.193 56.660,71.000 55.333,71.000 55.170 C 71.000 55.077,71.079 55.000,71.175 55.000 C 71.272 55.000,71.429 54.775,71.525 54.500 C 71.621 54.225,71.760 54.000,71.833 54.000 C 71.907 54.000,72.046 53.775,72.142 53.500 C 72.238 53.225,72.395 53.000,72.491 53.000 C 72.588 53.000,72.667 52.928,72.667 52.841 C 72.667 52.688,73.315 51.632,73.664 51.215 C 73.757 51.105,73.833 50.946,73.833 50.864 C 73.833 50.781,74.020 50.438,74.248 50.102 C 74.476 49.766,74.709 49.306,74.766 49.079 C 74.823 48.852,74.938 48.667,75.022 48.667 C 75.106 48.667,75.247 48.477,75.335 48.246 C 75.423 48.014,75.573 47.733,75.669 47.621 C 75.764 47.508,76.185 46.967,76.603 46.417 C 77.297 45.505,77.785 45.045,77.904 45.193 C 78.031 45.351,77.635 52.420,77.489 52.596 C 77.396 52.709,77.276 54.064,77.223 55.609 L 77.126 58.417 77.542 58.893 C 77.853 59.249,78.154 59.392,78.729 59.456 C 79.153 59.504,79.500 59.609,79.500 59.688 C 79.500 59.768,81.450 59.833,83.833 59.833 C 86.611 59.833,88.167 59.774,88.167 59.667 C 88.167 59.565,88.962 59.498,90.208 59.495 C 92.979 59.488,92.833 59.652,92.833 56.521 C 92.833 55.132,92.763 53.865,92.678 53.706 C 92.593 53.547,92.432 51.748,92.321 49.708 C 92.210 47.669,92.067 46.000,92.004 46.000 C 91.940 46.000,91.790 44.669,91.670 43.042 C 91.551 41.415,91.398 40.046,91.330 40.000 C 91.262 39.954,91.116 38.342,91.004 36.417 C 90.892 34.492,90.739 32.767,90.663 32.583 C 90.588 32.400,90.485 31.151,90.435 29.809 C 90.227 24.215,89.250 23.538,82.509 24.321 C 81.642 24.422,80.892 24.569,80.842 24.648 C 80.791 24.727,80.507 24.844,80.209 24.909 C 79.912 24.973,79.612 25.114,79.543 25.222 C 79.473 25.329,79.219 25.519,78.977 25.643 C 78.320 25.982,77.001 27.388,77.000 27.752 C 77.000 27.844,76.850 28.013,76.667 28.128 C 76.483 28.242,76.333 28.448,76.333 28.585 C 76.333 28.721,76.272 28.833,76.198 28.833 C 76.123 28.833,75.960 29.093,75.836 29.410 C 75.712 29.727,75.510 30.024,75.388 30.071 C 75.266 30.118,75.167 30.271,75.167 30.411 C 75.167 30.552,75.106 30.667,75.031 30.667 C 74.957 30.667,74.793 30.929,74.667 31.250 C 74.541 31.571,74.383 31.833,74.315 31.833 C 74.248 31.833,74.106 32.096,74.000 32.417 C 73.894 32.737,73.741 33.000,73.660 33.000 C 73.580 33.000,73.423 33.300,73.314 33.667 C 73.204 34.033,73.060 34.333,72.993 34.333 C 72.927 34.333,72.659 34.765,72.397 35.292 C 72.135 35.819,71.831 36.307,71.723 36.376 C 71.615 36.445,71.478 36.720,71.420 36.987 C 71.361 37.254,71.205 37.514,71.073 37.564 C 70.941 37.615,70.833 37.766,70.833 37.900 C 70.833 38.033,70.737 38.242,70.619 38.363 C 70.502 38.484,70.189 38.958,69.925 39.417 C 69.661 39.875,69.401 40.287,69.347 40.333 C 69.294 40.379,69.147 40.617,69.021 40.861 C 68.594 41.690,68.167 41.590,68.167 40.661 C 68.167 40.217,68.101 39.812,68.021 39.763 C 67.940 39.713,67.819 36.260,67.751 32.089 C 67.634 24.887,67.611 24.487,67.300 24.128 C 66.967 23.744,62.211 23.563,58.287 23.785 M325.907 30.375 C 326.024 30.535,326.194 30.667,326.283 30.667 C 326.512 30.667,327.628 31.900,327.861 32.410 C 327.967 32.643,328.116 32.833,328.193 32.833 C 328.270 32.833,328.333 32.930,328.333 33.048 C 328.333 33.166,328.484 33.558,328.668 33.919 C 328.852 34.280,329.092 35.008,329.201 35.538 C 329.311 36.067,329.452 36.500,329.516 36.500 C 329.580 36.500,329.687 37.044,329.753 37.708 C 329.819 38.373,329.957 38.970,330.060 39.035 C 330.324 39.201,330.326 48.296,330.063 48.464 C 329.960 48.530,329.824 48.821,329.761 49.111 C 329.698 49.401,329.538 49.680,329.406 49.731 C 329.275 49.781,329.167 49.929,329.167 50.058 C 329.167 50.413,327.731 51.626,327.164 51.751 C 326.890 51.811,326.667 51.916,326.667 51.985 C 326.667 52.140,325.145 52.500,324.487 52.500 C 324.219 52.500,324.000 52.575,324.000 52.667 C 324.000 52.765,323.417 52.833,322.583 52.833 C 321.804 52.833,321.167 52.765,321.167 52.681 C 321.167 52.598,320.861 52.478,320.488 52.415 C 320.115 52.352,319.770 52.195,319.721 52.067 C 319.671 51.938,319.545 51.833,319.441 51.832 C 319.166 51.829,317.873 50.555,317.749 50.164 C 317.691 49.982,317.580 49.833,317.502 49.833 C 317.423 49.833,317.273 49.571,317.167 49.250 C 317.061 48.929,316.915 48.667,316.842 48.667 C 316.769 48.667,316.615 48.327,316.499 47.912 C 316.383 47.498,316.227 47.121,316.153 47.075 C 316.080 47.030,315.969 46.656,315.907 46.246 C 315.846 45.836,315.739 45.500,315.670 45.500 C 315.413 45.500,315.167 42.462,315.167 39.287 C 315.167 36.072,315.398 33.500,315.687 33.500 C 315.767 33.500,315.833 33.367,315.833 33.205 C 315.833 32.296,318.190 30.515,319.842 30.175 C 321.222 29.891,325.660 30.037,325.907 30.375 M172.794 42.483 C 172.953 42.565,173.721 42.715,174.500 42.816 C 175.279 42.917,175.942 43.075,175.972 43.166 C 176.003 43.258,176.119 43.333,176.231 43.333 C 176.580 43.333,177.754 44.290,178.008 44.781 C 178.141 45.039,178.311 45.295,178.386 45.350 C 178.461 45.405,178.565 46.026,178.619 46.730 C 178.672 47.434,178.780 48.050,178.858 48.098 C 179.045 48.214,179.043 50.167,178.855 50.167 C 178.775 50.167,178.669 50.419,178.619 50.728 C 178.500 51.462,177.704 52.603,177.125 52.870 C 176.873 52.986,176.667 53.135,176.667 53.201 C 176.667 53.266,176.348 53.411,175.958 53.522 C 175.569 53.634,175.175 53.780,175.083 53.848 C 174.811 54.049,172.410 54.333,170.988 54.333 C 170.218 54.333,169.667 54.403,169.667 54.500 C 169.667 54.594,169.194 54.667,168.583 54.667 C 167.972 54.667,167.500 54.594,167.500 54.500 C 167.500 54.405,166.997 54.333,166.324 54.333 C 163.325 54.333,162.333 53.437,162.333 50.724 C 162.333 49.959,162.391 49.333,162.462 49.333 C 162.533 49.333,162.683 48.757,162.795 48.052 C 162.908 47.347,163.065 46.728,163.145 46.677 C 163.226 46.625,163.342 46.350,163.404 46.066 C 163.666 44.856,165.684 42.914,166.876 42.724 C 167.223 42.668,167.548 42.558,167.597 42.478 C 167.715 42.286,172.422 42.291,172.794 42.483 " stroke="none" fill="#ec743c" fill-rule="evenodd"></path><path id="path1" d="M101.917 18.333 C 101.860 18.425,101.574 18.500,101.282 18.501 C 100.619 18.502,99.517 18.801,99.228 19.057 C 99.108 19.163,98.783 19.434,98.505 19.659 C 98.227 19.884,98.000 20.156,98.000 20.263 C 98.000 20.371,97.897 20.545,97.771 20.649 C 97.645 20.754,97.450 21.194,97.339 21.628 C 97.227 22.062,97.068 22.567,96.986 22.750 C 96.807 23.148,96.500 26.328,96.500 27.782 C 96.500 28.349,96.438 28.852,96.362 28.899 C 96.287 28.945,96.126 30.600,96.004 32.575 C 95.883 34.550,95.728 36.167,95.659 36.167 C 95.590 36.167,95.480 37.198,95.414 38.458 C 95.349 39.719,95.239 40.825,95.170 40.917 C 95.101 41.008,94.954 42.508,94.843 44.250 C 94.732 45.992,94.578 47.567,94.502 47.750 C 93.902 49.187,93.882 56.851,94.475 57.990 C 95.268 59.511,95.218 59.500,101.433 59.500 C 109.543 59.500,109.417 59.632,109.417 51.155 C 109.417 46.208,109.443 45.701,109.708 45.435 C 109.869 45.274,110.000 45.082,110.000 45.008 C 110.000 44.133,111.563 45.233,112.250 46.591 C 112.433 46.953,112.629 47.288,112.684 47.333 C 112.740 47.379,112.877 47.698,112.989 48.042 C 113.101 48.385,113.250 48.667,113.320 48.667 C 113.390 48.667,113.537 48.967,113.647 49.333 C 113.757 49.700,113.914 50.000,113.995 50.000 C 114.077 50.000,114.193 50.155,114.253 50.344 C 114.393 50.785,116.129 52.500,116.435 52.500 C 116.562 52.500,116.667 52.572,116.667 52.660 C 116.667 52.748,116.985 52.905,117.375 53.009 C 117.765 53.113,118.214 53.266,118.373 53.349 C 118.723 53.532,120.500 53.552,120.500 53.373 C 120.500 53.303,120.874 53.157,121.331 53.048 C 122.234 52.834,122.346 52.762,123.414 51.711 C 124.189 50.949,124.911 49.831,125.091 49.114 C 125.152 48.868,125.267 48.667,125.345 48.667 C 125.423 48.667,125.577 48.367,125.686 48.000 C 125.796 47.633,125.941 47.333,126.008 47.333 C 126.076 47.333,126.174 47.160,126.227 46.947 C 126.281 46.735,126.472 46.391,126.653 46.182 C 126.834 45.973,127.005 45.753,127.033 45.693 C 127.481 44.718,128.414 44.863,129.015 46.001 L 129.411 46.750 129.414 55.083 C 129.418 66.645,128.885 65.904,137.125 65.805 L 141.750 65.750 142.539 65.278 C 143.445 64.735,144.167 63.947,144.167 63.501 C 144.167 63.332,144.260 63.163,144.375 63.124 C 144.652 63.031,144.649 57.297,144.372 56.963 C 144.262 56.831,144.100 55.153,143.977 52.870 C 143.862 50.741,143.719 49.000,143.659 49.000 C 143.600 49.000,143.452 46.825,143.330 44.167 C 143.209 41.508,143.061 39.333,143.001 39.333 C 142.941 39.333,142.795 37.290,142.677 34.792 C 142.559 32.294,142.405 30.175,142.335 30.083 C 142.265 29.992,142.155 28.904,142.090 27.667 C 141.922 24.465,141.456 21.127,141.164 21.028 C 141.074 20.997,141.000 20.871,141.000 20.748 C 141.000 20.068,139.060 18.787,137.703 18.570 C 137.312 18.507,136.952 18.391,136.903 18.311 C 136.787 18.123,132.500 18.122,132.500 18.310 C 132.500 18.389,132.080 18.503,131.567 18.564 C 131.053 18.624,130.322 18.811,129.942 18.979 C 129.561 19.147,129.119 19.330,128.958 19.387 C 128.798 19.443,128.667 19.567,128.667 19.661 C 128.667 19.756,128.567 19.833,128.446 19.833 C 128.182 19.833,127.500 20.526,127.500 20.794 C 127.500 20.898,127.406 21.043,127.292 21.117 C 127.063 21.263,126.966 21.412,126.067 23.000 C 125.730 23.596,125.360 24.196,125.246 24.333 C 125.133 24.471,124.983 24.771,124.914 25.000 C 124.845 25.229,124.735 25.454,124.670 25.500 C 124.542 25.590,124.391 25.862,123.500 27.607 C 123.179 28.236,122.871 28.787,122.815 28.833 C 122.759 28.879,122.613 29.198,122.490 29.542 C 122.367 29.885,122.218 30.167,122.160 30.167 C 122.101 30.167,121.963 30.467,121.853 30.833 C 121.743 31.200,121.587 31.500,121.507 31.500 C 121.426 31.500,121.310 31.725,121.250 32.000 C 121.190 32.275,121.077 32.500,121.000 32.500 C 120.922 32.500,120.767 32.781,120.655 33.125 C 120.543 33.469,120.402 33.787,120.342 33.833 C 120.282 33.879,120.099 34.204,119.935 34.556 L 119.638 35.194 119.194 34.693 C 118.950 34.417,118.658 34.055,118.545 33.887 C 117.736 32.690,117.500 32.298,117.500 32.154 C 117.500 32.064,117.392 31.948,117.260 31.898 C 117.128 31.847,116.973 31.588,116.914 31.321 C 116.856 31.055,116.731 30.790,116.637 30.732 C 116.543 30.673,116.359 30.391,116.227 30.105 C 116.096 29.818,115.796 29.246,115.561 28.833 C 115.326 28.421,114.741 27.333,114.262 26.417 C 113.254 24.491,112.953 23.949,112.824 23.833 C 112.773 23.787,112.627 23.488,112.500 23.167 C 112.373 22.846,112.227 22.546,112.176 22.500 C 112.125 22.454,111.971 22.192,111.833 21.917 C 111.696 21.642,111.546 21.379,111.500 21.333 C 111.454 21.287,111.211 20.950,110.961 20.583 C 110.710 20.217,110.223 19.730,109.878 19.501 C 109.532 19.273,109.211 19.034,109.163 18.969 C 109.026 18.786,107.659 18.509,106.875 18.504 C 106.485 18.502,106.167 18.425,106.167 18.333 C 106.167 18.231,105.364 18.167,104.093 18.167 C 102.891 18.167,101.976 18.237,101.917 18.333 M353.583 20.817 C 347.845 20.944,347.848 20.943,347.839 23.314 C 347.833 24.781,348.153 27.691,348.336 27.833 C 348.395 27.879,348.536 28.704,348.650 29.667 C 348.764 30.629,348.903 31.529,348.958 31.667 C 349.064 31.929,349.547 34.813,349.865 37.083 C 349.968 37.817,350.104 38.454,350.168 38.500 C 350.232 38.546,350.380 39.540,350.498 40.708 C 350.616 41.877,350.764 42.833,350.828 42.833 C 350.891 42.833,351.038 43.790,351.156 44.958 C 351.273 46.127,351.427 47.158,351.497 47.250 C 351.568 47.342,351.719 48.317,351.833 49.417 C 351.948 50.517,352.098 51.492,352.167 51.583 C 352.237 51.675,352.347 52.350,352.412 53.083 C 352.477 53.817,352.631 54.867,352.755 55.417 C 352.879 55.967,353.031 56.979,353.094 57.667 C 353.158 58.354,353.267 58.992,353.337 59.083 C 353.408 59.175,353.556 60.225,353.668 61.417 C 353.779 62.608,353.926 63.621,353.994 63.667 C 354.063 63.712,354.169 64.012,354.230 64.333 C 354.291 64.654,354.485 65.104,354.661 65.333 L 354.981 65.750 359.282 65.800 C 361.704 65.828,363.652 65.919,363.742 66.008 C 363.958 66.224,368.333 66.216,368.333 66.000 C 368.333 65.908,368.690 65.833,369.125 65.833 C 370.074 65.832,370.931 65.365,371.188 64.708 C 371.385 64.206,371.249 61.159,371.023 61.006 C 370.950 60.957,370.794 60.129,370.675 59.167 C 370.556 58.204,370.401 57.342,370.330 57.250 C 370.258 57.158,370.146 56.501,370.080 55.789 C 370.014 55.078,369.894 54.454,369.814 54.404 C 369.505 54.214,369.690 53.738,370.181 53.458 C 370.743 53.139,377.000 53.006,377.000 53.314 C 377.000 53.395,377.150 53.500,377.333 53.548 C 377.711 53.647,377.784 55.125,377.493 56.750 C 377.411 57.208,377.210 58.408,377.047 59.417 C 376.884 60.425,376.696 61.333,376.630 61.434 C 376.564 61.536,376.462 62.323,376.403 63.184 C 376.274 65.073,376.569 65.618,377.812 65.785 C 378.195 65.836,378.548 65.943,378.597 66.022 C 378.724 66.228,384.456 66.207,384.583 66.000 C 384.647 65.897,386.166 65.833,388.585 65.833 C 393.377 65.833,393.761 65.669,394.104 63.475 C 394.166 63.076,394.279 62.709,394.354 62.660 C 394.430 62.610,394.575 61.635,394.678 60.493 C 394.780 59.351,394.926 58.267,395.002 58.083 C 395.077 57.900,395.234 56.719,395.351 55.458 C 395.467 54.198,395.615 53.167,395.680 53.167 C 395.745 53.167,395.852 52.473,395.917 51.625 C 395.983 50.777,396.095 50.008,396.166 49.917 C 396.237 49.825,396.388 48.813,396.500 47.667 C 396.612 46.521,396.761 45.508,396.830 45.417 C 396.899 45.325,397.050 44.275,397.167 43.083 C 397.283 41.892,397.433 40.842,397.501 40.750 C 397.569 40.658,397.722 39.571,397.840 38.333 C 397.959 37.096,398.106 36.046,398.167 36.000 C 398.227 35.954,398.362 35.279,398.465 34.500 C 398.833 31.717,399.271 28.913,399.375 28.667 C 399.433 28.529,399.570 27.704,399.678 26.833 C 400.451 20.640,400.355 20.578,390.270 20.745 C 383.045 20.864,382.399 20.937,381.837 21.697 C 381.420 22.261,381.383 22.575,380.869 29.750 C 380.712 31.950,380.533 33.827,380.471 33.921 C 380.364 34.085,380.166 37.979,380.110 41.028 C 380.095 41.823,380.037 42.519,379.981 42.575 C 379.696 42.859,377.454 42.998,373.144 42.999 L 368.370 43.000 368.278 42.458 C 368.227 42.160,368.134 40.754,368.073 39.333 C 368.011 37.912,367.905 36.675,367.838 36.583 C 367.771 36.492,367.626 34.579,367.515 32.333 C 367.405 30.087,367.250 28.025,367.172 27.750 C 367.093 27.475,366.991 26.275,366.944 25.083 C 366.769 20.600,366.548 20.530,353.583 20.817 M198.333 23.846 C 196.861 23.981,195.640 24.331,195.534 24.649 C 195.500 24.750,195.371 24.833,195.247 24.833 C 195.124 24.833,194.970 25.002,194.905 25.208 C 194.841 25.415,194.727 25.623,194.652 25.671 C 194.578 25.720,194.430 27.107,194.325 28.755 C 194.220 30.402,194.074 31.825,194.000 31.917 C 193.927 32.008,193.770 33.602,193.651 35.458 C 193.533 37.315,193.386 38.833,193.325 38.833 C 193.264 38.833,193.162 39.902,193.098 41.208 C 193.035 42.515,192.877 44.483,192.748 45.583 C 192.619 46.683,192.463 48.858,192.402 50.417 C 192.341 51.975,192.234 53.325,192.164 53.417 C 191.992 53.644,191.604 64.670,191.746 65.316 L 191.860 65.833 196.388 65.832 C 200.540 65.831,202.941 65.664,203.163 65.362 C 203.211 65.297,203.459 65.151,203.715 65.039 C 204.633 64.636,206.492 62.757,206.498 62.226 C 206.499 62.121,206.612 61.992,206.750 61.940 C 206.887 61.887,207.000 61.737,207.000 61.606 C 207.000 61.476,207.112 61.326,207.250 61.273 C 207.387 61.220,207.500 61.103,207.500 61.013 C 207.500 60.871,208.063 59.931,208.456 59.417 C 208.526 59.325,208.696 59.025,208.833 58.750 C 208.970 58.475,209.129 58.212,209.185 58.167 C 209.241 58.121,209.429 57.830,209.602 57.520 C 210.015 56.780,210.135 56.589,210.875 55.483 C 211.219 54.969,211.500 54.463,211.500 54.358 C 211.500 54.253,211.570 54.167,211.655 54.167 C 211.741 54.167,211.858 54.017,211.916 53.834 C 211.974 53.652,212.112 53.408,212.223 53.293 C 212.679 52.818,213.835 50.923,214.420 49.691 C 214.566 49.384,214.757 49.046,214.845 48.941 C 215.190 48.528,215.833 47.477,215.833 47.326 C 215.833 47.238,215.896 47.167,215.972 47.167 C 216.048 47.167,216.217 46.963,216.347 46.715 C 216.477 46.466,216.846 46.012,217.167 45.707 L 217.750 45.151 217.808 46.117 C 217.890 47.493,217.495 53.546,217.308 53.776 C 217.222 53.882,217.136 54.970,217.118 56.193 C 217.078 58.740,217.286 59.230,218.486 59.426 C 218.815 59.480,219.233 59.596,219.417 59.684 C 220.163 60.042,232.019 59.670,232.645 59.269 C 232.891 59.111,232.765 52.098,232.509 51.750 C 232.441 51.658,232.291 50.121,232.175 48.333 C 232.059 46.546,231.906 45.008,231.836 44.917 C 231.767 44.825,231.613 43.419,231.494 41.792 C 231.376 40.165,231.227 38.833,231.163 38.833 C 231.099 38.833,230.959 37.165,230.851 35.125 C 230.743 33.085,230.618 31.117,230.573 30.750 C 230.529 30.383,230.422 29.344,230.334 28.439 C 230.247 27.535,230.107 26.710,230.024 26.606 C 229.940 26.502,229.821 26.179,229.759 25.888 C 229.488 24.620,228.496 24.169,225.976 24.168 C 224.138 24.167,220.966 24.460,220.837 24.643 C 220.789 24.711,220.431 24.859,220.042 24.973 C 219.652 25.087,219.333 25.247,219.333 25.329 C 219.333 25.411,219.180 25.526,218.993 25.585 C 218.599 25.711,217.434 26.874,217.035 27.542 C 216.885 27.794,216.712 28.000,216.651 28.000 C 216.590 28.000,216.447 28.225,216.333 28.500 C 216.219 28.775,216.060 29.000,215.980 29.000 C 215.899 29.000,215.833 29.060,215.833 29.134 C 215.833 29.208,215.346 30.088,214.750 31.090 C 214.154 32.091,213.667 33.006,213.667 33.122 C 213.667 33.238,213.601 33.333,213.520 33.333 C 213.440 33.333,213.275 33.577,213.155 33.875 C 213.034 34.173,212.894 34.454,212.843 34.500 C 212.699 34.629,212.360 35.192,212.041 35.833 C 211.881 36.154,211.656 36.516,211.542 36.637 C 211.427 36.758,211.288 37.039,211.232 37.262 C 211.176 37.484,211.082 37.667,211.023 37.667 C 210.963 37.667,210.809 37.910,210.679 38.208 C 210.549 38.506,210.399 38.787,210.345 38.833 C 210.197 38.959,209.333 40.312,209.333 40.419 C 209.333 40.572,208.333 41.500,208.168 41.500 C 208.011 41.500,207.938 39.652,207.712 29.863 C 207.571 23.776,207.641 24.152,206.583 23.808 C 206.124 23.659,200.069 23.686,198.333 23.846 " stroke="none" fill="#049c9c" fill-rule="evenodd"></path><path id="path2" d="M21.000 0.176 C 19.212 0.259,17.563 0.378,17.333 0.442 C 17.104 0.505,16.673 0.546,16.375 0.532 C 16.077 0.519,15.833 0.570,15.833 0.647 C 15.833 0.723,15.293 0.836,14.632 0.897 C 13.971 0.959,13.379 1.093,13.316 1.195 C 13.253 1.297,13.043 1.340,12.851 1.290 C 12.658 1.239,12.458 1.266,12.407 1.349 C 12.356 1.432,12.179 1.500,12.013 1.500 C 11.547 1.500,9.227 2.272,8.804 2.568 C 8.596 2.714,8.309 2.833,8.167 2.833 C 8.024 2.833,7.784 2.965,7.632 3.125 C 7.242 3.538,6.833 3.862,6.833 3.758 C 6.833 3.709,6.608 3.905,6.333 4.193 C 6.058 4.481,5.833 4.784,5.833 4.868 C 5.833 4.951,5.767 4.979,5.686 4.929 C 5.605 4.879,5.446 5.062,5.332 5.335 C 5.219 5.609,5.066 5.833,4.993 5.833 C 4.919 5.833,4.773 6.096,4.667 6.417 C 4.561 6.738,4.421 7.000,4.357 7.000 C 4.257 7.000,3.771 8.369,3.755 8.694 C 3.752 8.756,3.695 8.861,3.627 8.928 C 3.560 8.996,3.457 9.414,3.398 9.859 C 3.339 10.303,3.230 10.667,3.155 10.667 C 3.081 10.667,3.040 10.873,3.064 11.125 C 3.088 11.377,3.049 11.663,2.976 11.761 C 2.903 11.858,2.794 13.133,2.733 14.594 C 2.672 16.055,2.575 17.287,2.517 17.333 C 2.459 17.379,2.398 18.092,2.380 18.917 C 2.323 21.594,1.935 27.813,1.829 27.747 C 1.772 27.712,1.719 28.223,1.711 28.883 C 1.655 33.426,1.462 39.540,1.326 41.083 C 1.236 42.092,1.170 43.442,1.178 44.083 C 1.199 45.688,0.822 51.398,0.688 51.500 C 0.628 51.546,0.560 51.958,0.537 52.417 C 0.515 52.875,0.426 53.775,0.341 54.417 C -0.451 60.349,0.505 64.607,2.875 65.703 C 3.127 65.819,3.333 65.969,3.333 66.036 C 3.333 66.211,5.057 67.000,5.441 67.000 C 5.620 67.000,5.838 67.069,5.925 67.154 C 6.819 68.022,34.019 68.117,36.086 67.258 C 36.363 67.143,36.944 66.996,37.378 66.931 C 37.812 66.866,38.167 66.745,38.167 66.662 C 38.167 66.579,38.272 66.551,38.400 66.600 C 38.528 66.649,38.682 66.609,38.743 66.511 C 38.803 66.413,38.980 66.333,39.135 66.332 C 39.290 66.332,39.616 66.227,39.859 66.101 C 40.102 65.974,40.571 65.781,40.901 65.672 C 41.230 65.563,41.500 65.405,41.500 65.320 C 41.500 65.236,41.594 65.166,41.708 65.166 C 41.823 65.165,42.142 65.042,42.417 64.893 C 42.692 64.743,43.123 64.513,43.375 64.382 C 43.627 64.250,43.833 64.073,43.833 63.988 C 43.833 63.903,43.915 63.833,44.015 63.833 C 45.190 63.833,49.978 57.931,50.367 56.004 C 50.394 55.869,50.510 55.657,50.625 55.534 C 50.740 55.410,50.833 55.132,50.833 54.915 C 50.833 54.697,50.915 54.469,51.015 54.408 C 51.114 54.346,51.159 54.154,51.113 53.981 C 51.068 53.808,51.087 53.667,51.154 53.667 C 51.222 53.667,51.284 53.573,51.292 53.458 C 51.300 53.344,51.395 52.725,51.503 52.083 C 51.734 50.703,51.868 45.665,51.680 45.420 C 51.608 45.327,51.533 44.800,51.513 44.250 C 51.436 42.120,50.320 37.762,49.792 37.528 C 49.723 37.497,49.667 37.334,49.667 37.165 C 49.667 36.996,49.549 36.739,49.405 36.595 C 49.261 36.451,49.191 36.333,49.249 36.333 C 49.307 36.333,49.039 35.883,48.653 35.333 C 48.267 34.783,47.888 34.333,47.809 34.333 C 47.731 34.333,47.684 34.277,47.704 34.208 C 47.759 34.026,46.913 33.167,46.679 33.167 C 46.570 33.167,46.527 33.092,46.583 33.000 C 46.640 32.908,46.617 32.833,46.533 32.833 C 46.448 32.833,46.200 32.662,45.981 32.454 C 45.489 31.984,44.234 31.167,44.004 31.167 C 43.910 31.167,43.833 31.098,43.833 31.013 C 43.833 30.929,43.608 30.810,43.333 30.750 C 43.058 30.690,42.833 30.571,42.833 30.487 C 42.833 30.402,42.777 30.346,42.708 30.362 C 42.581 30.392,41.911 30.127,41.167 29.753 C 40.938 29.637,40.451 29.489,40.085 29.423 C 39.719 29.357,39.344 29.256,39.251 29.198 C 39.159 29.140,39.008 29.076,38.917 29.057 C 38.825 29.037,38.188 28.899,37.500 28.750 C 35.371 28.289,34.721 28.191,33.042 28.072 C 32.148 28.009,31.330 27.888,31.224 27.805 C 31.036 27.656,26.454 27.724,22.785 27.930 C 21.796 27.985,20.859 27.974,20.702 27.905 C 20.545 27.835,20.357 27.772,20.284 27.764 C 20.095 27.744,19.169 26.657,19.153 26.436 C 19.145 26.334,19.115 26.063,19.086 25.833 C 18.840 23.887,19.105 20.244,19.511 19.993 C 19.592 19.943,19.681 19.753,19.709 19.571 C 19.851 18.637,21.486 16.945,22.733 16.442 C 24.636 15.674,25.241 15.612,30.647 15.623 C 33.744 15.629,35.919 15.698,35.980 15.791 C 36.207 16.138,45.333 16.172,45.333 15.826 C 45.333 15.758,45.518 15.656,45.744 15.600 C 46.247 15.474,47.907 13.857,48.585 12.833 C 48.859 12.421,49.145 12.037,49.222 11.981 C 49.299 11.925,49.366 11.813,49.370 11.731 C 49.379 11.579,49.542 11.147,49.940 10.225 C 50.065 9.936,50.167 9.509,50.167 9.276 C 50.167 9.043,50.225 8.817,50.296 8.773 C 50.468 8.667,50.394 7.091,50.175 6.210 C 50.014 5.565,49.796 5.195,49.208 4.577 C 49.094 4.456,49.000 4.277,49.000 4.179 C 49.000 4.080,48.936 4.000,48.858 4.000 C 48.780 4.000,48.484 3.778,48.201 3.508 C 47.677 3.007,45.717 2.000,45.267 2.000 C 45.131 2.000,44.970 1.920,44.910 1.822 C 44.849 1.724,44.697 1.683,44.572 1.731 C 44.447 1.779,44.300 1.747,44.246 1.659 C 44.191 1.572,43.968 1.500,43.750 1.500 C 43.532 1.500,43.306 1.425,43.250 1.333 C 43.193 1.241,42.962 1.212,42.738 1.268 C 42.513 1.324,42.235 1.293,42.120 1.197 C 42.005 1.102,41.256 0.971,40.456 0.906 C 39.655 0.841,39.000 0.742,39.000 0.685 C 39.000 0.629,38.644 0.569,38.208 0.552 C 37.773 0.535,36.592 0.447,35.583 0.357 C 32.819 0.108,24.671 0.007,21.000 0.176 M241.311 9.153 C 240.886 9.212,240.402 9.371,240.237 9.506 C 239.971 9.721,239.953 9.721,240.078 9.500 C 240.201 9.284,239.857 9.545,239.049 10.280 C 238.930 10.388,238.833 10.539,238.833 10.615 C 238.833 10.691,238.665 10.943,238.458 11.175 C 238.053 11.630,238.048 11.642,237.742 13.000 C 237.629 13.504,237.487 14.036,237.427 14.182 C 237.367 14.328,237.208 16.428,237.075 18.849 C 236.941 21.270,236.794 23.700,236.749 24.250 C 236.704 24.800,236.554 26.637,236.415 28.333 C 236.175 31.274,235.749 35.968,235.560 37.750 C 235.512 38.208,235.392 39.596,235.295 40.833 C 235.198 42.071,235.073 43.121,235.017 43.167 C 234.962 43.212,234.906 43.475,234.894 43.750 C 234.822 45.366,234.460 49.622,234.377 49.833 C 234.041 50.683,234.016 56.333,234.348 56.333 C 234.417 56.333,234.524 56.563,234.586 56.845 C 234.648 57.126,234.801 57.395,234.926 57.443 C 235.051 57.491,235.199 57.674,235.255 57.849 C 235.310 58.024,235.468 58.167,235.604 58.167 C 235.741 58.167,235.811 58.234,235.760 58.317 C 235.326 59.020,250.206 59.053,250.660 58.350 C 250.710 58.274,250.938 58.154,251.167 58.084 C 251.626 57.943,252.500 57.058,252.500 56.734 C 252.500 56.621,252.576 56.503,252.668 56.472 C 252.761 56.441,252.875 55.816,252.921 55.083 C 252.968 54.350,253.051 53.300,253.105 52.750 C 253.160 52.200,253.225 51.025,253.251 50.138 C 253.276 49.252,253.346 48.448,253.406 48.351 C 253.466 48.254,253.561 46.902,253.616 45.347 C 253.731 42.151,253.725 42.172,254.608 42.011 C 255.169 41.908,255.301 41.946,255.587 42.293 C 255.768 42.513,255.998 42.782,256.097 42.890 C 256.196 42.998,256.246 43.179,256.208 43.293 C 256.170 43.407,256.212 43.500,256.301 43.500 C 256.390 43.500,256.515 43.781,256.579 44.125 C 256.642 44.469,256.800 44.975,256.929 45.250 C 257.134 45.689,257.477 47.030,257.535 47.625 C 257.546 47.740,257.610 47.833,257.676 47.833 C 257.742 47.833,257.846 48.171,257.908 48.583 C 257.970 48.996,258.091 49.333,258.177 49.333 C 258.263 49.333,258.323 49.390,258.309 49.458 C 258.267 49.679,258.694 50.667,258.832 50.667 C 258.904 50.667,259.010 50.849,259.066 51.072 C 259.220 51.689,260.547 52.984,261.147 53.104 C 261.433 53.162,261.667 53.274,261.667 53.354 C 261.667 53.434,262.567 53.500,263.667 53.500 C 264.889 53.500,265.667 53.435,265.667 53.333 C 265.667 53.242,265.798 53.165,265.958 53.164 C 267.124 53.152,269.500 49.970,269.500 48.422 C 269.500 48.201,269.568 47.978,269.651 47.926 C 269.734 47.875,269.854 47.458,269.917 47.000 C 269.980 46.542,270.108 46.167,270.202 46.167 C 270.296 46.167,270.333 46.017,270.285 45.833 C 270.237 45.650,270.256 45.465,270.327 45.421 C 270.397 45.377,270.499 45.071,270.553 44.740 C 270.765 43.432,271.707 42.018,272.375 42.006 C 272.535 42.002,272.667 41.923,272.667 41.828 C 272.667 41.734,272.889 41.821,273.160 42.021 L 273.653 42.386 273.663 53.552 C 273.673 64.315,273.707 65.500,274.007 65.500 C 274.082 65.500,274.196 65.664,274.260 65.864 C 274.415 66.354,275.735 67.636,276.205 67.753 C 276.413 67.805,280.258 67.825,284.750 67.799 L 292.917 67.750 293.563 67.348 C 294.610 66.697,295.833 65.329,295.833 64.809 C 295.833 64.650,295.896 64.481,295.973 64.434 C 296.122 64.341,296.114 62.157,295.963 61.903 C 295.913 61.819,295.817 60.479,295.751 58.926 C 295.684 57.373,295.567 55.986,295.490 55.843 C 295.366 55.611,294.934 48.996,294.980 48.029 C 294.990 47.816,294.921 47.497,294.827 47.321 C 294.708 47.099,294.709 47.000,294.829 47.000 C 294.943 47.000,294.949 46.900,294.846 46.708 C 294.690 46.417,294.341 41.497,294.314 39.208 C 294.306 38.544,294.242 38.000,294.170 38.000 C 294.099 38.000,293.986 36.669,293.919 35.042 C 293.852 33.415,293.751 32.008,293.696 31.917 C 293.640 31.825,293.577 31.262,293.557 30.667 C 293.537 30.071,293.402 28.121,293.258 26.333 C 292.979 22.864,292.915 21.898,292.668 17.335 C 292.506 14.351,292.452 13.770,292.298 13.333 C 292.250 13.196,292.130 12.653,292.031 12.128 C 291.933 11.603,291.772 11.078,291.674 10.961 C 291.576 10.845,291.346 10.550,291.163 10.304 C 290.979 10.059,290.586 9.806,290.290 9.742 C 289.993 9.677,289.706 9.556,289.653 9.473 C 289.359 9.013,274.950 8.879,274.663 9.333 C 274.576 9.471,274.503 9.508,274.500 9.417 C 274.497 9.313,274.449 9.316,274.372 9.425 C 274.305 9.522,273.974 9.769,273.637 9.974 C 272.743 10.517,271.340 12.220,271.119 13.031 C 271.046 13.295,270.921 13.471,270.840 13.421 C 270.760 13.371,270.602 13.612,270.489 13.957 C 270.377 14.301,270.238 14.621,270.181 14.667 C 270.065 14.759,269.614 15.684,269.595 15.867 C 269.589 15.931,269.490 16.077,269.375 16.192 C 269.260 16.306,269.167 16.535,269.167 16.700 C 269.167 16.865,269.092 17.000,269.000 17.000 C 268.908 17.000,268.849 17.056,268.867 17.125 C 268.924 17.333,268.483 18.500,268.348 18.500 C 268.279 18.500,268.221 18.594,268.221 18.708 C 268.220 18.823,268.064 19.236,267.874 19.626 C 267.685 20.016,267.596 20.293,267.678 20.243 C 267.760 20.192,267.719 20.361,267.587 20.617 C 267.129 21.507,266.860 22.166,266.750 22.665 C 266.690 22.941,266.581 23.167,266.508 23.167 C 266.436 23.167,266.282 23.504,266.167 23.917 C 266.051 24.329,265.900 24.667,265.830 24.667 C 265.760 24.667,265.604 25.004,265.482 25.417 C 265.360 25.829,265.208 26.167,265.143 26.167 C 265.079 26.167,264.944 26.416,264.843 26.720 C 264.667 27.253,264.559 27.427,263.841 28.333 L 263.511 28.750 263.506 28.375 C 263.502 28.169,263.433 28.000,263.352 28.000 C 263.270 28.000,263.153 27.727,263.090 27.394 C 263.028 27.061,262.832 26.518,262.655 26.188 C 262.478 25.858,262.333 25.462,262.333 25.308 C 262.333 25.154,262.277 25.003,262.208 24.972 C 262.066 24.909,261.257 23.273,261.089 22.708 C 261.028 22.502,260.908 22.333,260.822 22.333 C 260.737 22.333,260.679 22.277,260.693 22.208 C 260.742 21.979,258.541 17.367,258.170 16.920 C 258.091 16.826,257.971 16.524,257.902 16.251 C 257.833 15.977,257.677 15.654,257.555 15.532 C 257.434 15.410,257.285 15.109,257.225 14.863 C 257.165 14.618,257.069 14.379,257.013 14.333 C 256.859 14.209,256.437 13.269,256.471 13.125 C 256.487 13.056,256.433 13.000,256.351 13.000 C 256.270 13.000,256.160 12.831,256.108 12.625 C 255.951 12.001,254.014 9.834,253.611 9.832 C 253.504 9.832,253.203 9.720,252.941 9.583 C 251.924 9.053,244.093 8.763,241.311 9.153 M32.625 39.691 C 33.381 39.802,34.000 39.954,34.000 40.030 C 34.000 40.105,34.132 40.167,34.294 40.167 C 34.986 40.167,37.000 41.621,37.000 42.120 C 37.000 42.237,37.069 42.333,37.153 42.333 C 37.371 42.333,37.822 44.476,37.741 45.125 C 37.704 45.423,37.747 45.667,37.837 45.667 C 38.052 45.667,38.049 47.950,37.833 48.083 C 37.742 48.140,37.666 48.388,37.664 48.635 C 37.663 48.882,37.569 49.237,37.456 49.425 C 36.786 50.535,36.564 50.831,36.401 50.832 C 36.300 50.833,36.082 50.984,35.915 51.168 C 35.749 51.352,35.325 51.589,34.973 51.694 C 34.621 51.800,34.333 51.949,34.333 52.026 C 34.333 52.104,34.202 52.167,34.042 52.168 C 33.881 52.168,33.554 52.271,33.314 52.396 C 33.075 52.521,32.700 52.610,32.481 52.594 C 32.262 52.577,31.978 52.643,31.849 52.740 C 31.559 52.959,22.237 52.985,21.750 52.769 C 21.567 52.687,21.280 52.605,21.113 52.587 C 20.551 52.526,19.450 51.018,19.620 50.542 C 19.661 50.427,19.613 50.333,19.514 50.333 C 19.294 50.333,19.259 46.565,19.478 46.430 C 19.558 46.381,19.676 45.873,19.740 45.301 C 19.868 44.171,20.543 42.547,21.029 42.199 C 21.196 42.079,21.333 41.873,21.333 41.741 C 21.333 41.608,21.404 41.500,21.490 41.500 C 21.576 41.500,21.888 41.279,22.184 41.009 C 22.480 40.739,22.953 40.431,23.236 40.325 C 23.519 40.220,23.910 40.058,24.104 39.966 C 25.214 39.443,29.905 39.292,32.625 39.691 " stroke="none" fill="#642c84" fill-rule="evenodd"></path><path id="path3" d="" stroke="none" fill="#643484" fill-rule="evenodd"></path><path id="path4" d="" stroke="none" fill="#cc8c6c" fill-rule="evenodd"></path><path id="path5" d="" stroke="none" fill="#88646c" fill-rule="evenodd"></path><path id="path6" d="" stroke="none" fill="#4c2c94" fill-rule="evenodd"></path><path id="path7" d="M225.288 24.120 C 225.584 24.157,226.109 24.158,226.455 24.122 C 226.800 24.086,226.558 24.055,225.917 24.055 C 225.275 24.054,224.992 24.083,225.288 24.120 M37.678 45.792 C 37.724 46.280,37.977 46.553,37.988 46.125 C 37.995 45.873,37.925 45.667,37.833 45.667 C 37.742 45.667,37.672 45.723,37.678 45.792 " stroke="none" fill="#4c2c88" fill-rule="evenodd"></path><path id="path8" d="M225.288 24.120 C 225.584 24.157,226.109 24.158,226.455 24.122 C 226.800 24.086,226.558 24.055,225.917 24.055 C 225.275 24.054,224.992 24.083,225.288 24.120 M37.678 45.792 C 37.724 46.280,37.977 46.553,37.988 46.125 C 37.995 45.873,37.925 45.667,37.833 45.667 C 37.742 45.667,37.672 45.723,37.678 45.792 " stroke="none" fill="#4c2c88" fill-rule="evenodd"></path></g></svg>